<svg width="1118" height="480" viewBox="0 0 1118 480" fill="none" xmlns="http://www.w3.org/2000/svg">
<g clip-path="url(#clip0_214_2212)">
<path d="M208.025 470.4V390.08H0V326.72L149.778 9.59999H226.267L76.4891 326.72H208.025V201.92H275.873V326.72H321.638V390.08H275.873V470.4H208.025ZM559.131 480C527.767 480 500.031 473.173 475.921 459.52C451.812 445.653 432.823 426.667 418.954 402.56C405.3 378.453 398.472 350.72 398.472 319.36V160.64C398.472 129.28 405.3 101.547 418.954 77.44C432.823 53.3333 451.812 34.4533 475.921 20.8C500.031 6.93333 527.767 0 559.131 0C590.495 0 618.232 6.93333 642.341 20.8C666.451 34.4533 685.333 53.3333 698.988 77.44C712.856 101.547 719.79 129.28 719.79 160.64V319.36C719.79 350.72 712.856 378.453 698.988 402.56C685.333 426.667 666.451 445.653 642.341 459.52C618.232 473.173 590.495 480 559.131 480ZM559.131 416C576.2 416 591.668 411.947 605.537 403.84C619.618 395.52 630.82 384.427 639.141 370.56C647.462 356.48 651.622 340.8 651.622 323.52V155.84C651.622 138.773 647.462 123.307 639.141 109.44C630.82 95.36 619.618 84.2667 605.537 76.16C591.668 67.84 576.2 63.68 559.131 63.68C542.062 63.68 526.487 67.84 512.406 76.16C498.537 84.2667 487.443 95.36 479.122 109.44C470.801 123.307 466.64 138.773 466.64 155.84V323.52C466.64 340.8 470.801 356.48 479.122 370.56C487.443 384.427 498.537 395.52 512.406 403.84C526.487 411.947 542.062 416 559.131 416ZM1004.37 470.4V390.08H796.345V326.72L946.122 9.59999H1022.61L872.834 326.72H1004.37V201.92H1072.21V326.72H1117.98V390.08H1072.21V470.4H1004.37Z" fill="#F0F0F0"/>
</g>
<defs>
<clipPath id="clip0_214_2212">
<rect width="1118" height="480" fill="white"/>
</clipPath>
</defs>
</svg>
