<svg width="1284" height="148" viewBox="0 0 1284 148" fill="none" xmlns="http://www.w3.org/2000/svg">
<path d="M612.113 71.0654H642.121V128.573C626.505 140.298 605.02 146.569 584.759 146.569C540.206 146.569 507.34 115.98 507.34 73.3086C507.34 30.5862 540.155 0.0483398 585.372 0.0483398C610.276 0.0483398 630.945 8.56231 644.724 24.5194L623.648 43.9433C613.338 33.0333 601.345 27.9351 586.954 27.9351C559.395 27.9351 540.563 46.3395 540.563 73.2575C540.563 99.768 559.395 118.58 586.545 118.58C595.477 118.58 603.795 116.949 612.062 112.513V71.0654H612.113Z" fill="#0158FF"/>
<path d="M762.861 144.119L735.507 104.659H733.874H705.295V144.119H672.479V2.44238H733.874C771.742 2.44238 795.473 22.0703 795.473 53.8316C795.473 75.0908 784.755 90.691 766.281 98.5422L798.075 144.068H762.861V144.119ZM732.037 29.1567H705.295V78.5575H732.037C752.093 78.5575 762.249 69.2279 762.249 53.8825C762.249 38.2822 752.093 29.1567 732.037 29.1567Z" fill="#0158FF"/>
<path d="M812.531 73.2601C812.531 31.1496 845.346 0 890.155 0C934.708 0 967.778 30.9456 967.778 73.2601C967.778 115.574 934.758 146.52 890.155 146.52C845.346 146.571 812.531 115.371 812.531 73.2601ZM934.503 73.2601C934.503 46.342 915.468 27.9377 890.104 27.9377C864.79 27.9377 845.704 46.342 845.704 73.2601C845.704 100.178 864.74 118.583 890.104 118.583C915.416 118.634 934.503 100.23 934.503 73.2601Z" fill="#0158FF"/>
<path d="M991.188 81.7692V2.44238H1024.01V80.5967C1024.01 107.515 1035.74 118.629 1055.6 118.629C1075.66 118.629 1087.19 107.515 1087.19 80.5967V2.44238H1119.6V81.7692C1119.6 123.472 1095.66 146.566 1055.34 146.566C1015.13 146.566 991.188 123.472 991.188 81.7692Z" fill="#0158FF"/>
<path d="M1275.08 53.8395C1275.08 85.3969 1251.35 105.025 1213.48 105.025H1184.9V144.076H1152.09V2.39941H1213.48C1251.41 2.4504 1275.08 22.0781 1275.08 53.8395ZM1241.86 53.8395C1241.86 38.2393 1231.7 29.1646 1211.64 29.1646H1184.9V78.3615H1211.64C1231.7 78.3615 1241.86 69.2359 1241.86 53.8395Z" fill="#0158FF"/>
<path d="M187.806 4.12402H220.621V119.087H291.763V145.801H187.806V4.12402Z" fill="#0158FF"/>
<path d="M435.481 4.12402L374.087 145.801H341.68L280.489 4.12402H315.958L359.133 105.322L402.921 4.12402H435.481Z" fill="#0158FF"/>
<path d="M455.534 4.12402H488.349V145.801H455.534V4.12402Z" fill="#0158FF"/>
<path d="M122.177 4.12656H112.684H88.5956H82.8287L0 145.804H33.6317L51.0343 115.47H122.177V145.804H154.992V30.9428V4.07568H122.177V4.12656ZM122.177 90.5909H65.3751L99.6186 30.9938H122.177V90.5909Z" fill="#0158FF"/>
</svg>
