<svg width="160" height="64" viewBox="0 0 160 64" fill="none" xmlns="http://www.w3.org/2000/svg">
<mask id="mask0_119_2313" style="mask-type:luminance" maskUnits="userSpaceOnUse" x="26" y="19" width="108" height="26">
<path d="M133.6 19.2H26.4004V44.8H133.6V19.2Z" fill="white"/>
</mask>
<g mask="url(#mask0_119_2313)">
<path d="M51.589 43.0987H45.6463L43.8283 38.7062H33.9241L32.2677 43.0987H26.4229L35.3524 20.9141H41.7496L51.589 43.0987ZM38.6324 26.2152L35.3853 34.8348H42.2046L38.6324 26.2152ZM73.1763 20.9141H77.9821V43.0987H72.4612V29.2415L66.4862 36.2019H65.6423L59.6678 29.2415V43.0984H54.1468V20.9141H58.9527L66.0639 29.1436L73.1763 20.9141ZM91.9706 20.9141C100.056 20.9141 104.212 25.9553 104.212 32.038C104.212 38.4135 100.186 43.0987 91.3538 43.0987H82.1962V20.9141H91.9706ZM87.717 39.0327H91.3202C96.873 39.0327 98.5298 35.2585 98.5298 32.0052C98.5298 28.1991 96.4834 24.9796 91.2554 24.9796H87.7162V39.0327H87.717ZM115.195 26.1743L108.235 19.2H133.577V44.5864L126.615 37.6128V26.1743H115.195ZM115.187 27.5718L108.02 34.7508V44.8H118.051L125.218 37.621H115.187V27.5718Z" fill="#686868"/>
</g>
</svg>
