<svg width="160" height="64" viewBox="0 0 160 64" fill="none" xmlns="http://www.w3.org/2000/svg">
<mask id="mask0_119_2351" style="mask-type:luminance" maskUnits="userSpaceOnUse" x="31" y="8" width="99" height="48">
<path d="M129.599 8H31.1992V56H129.599V8Z" fill="white"/>
</mask>
<g mask="url(#mask0_119_2351)">
<path d="M51.5048 42.6888C51.5048 42.1464 51.098 41.8752 50.5558 41.8752C50.0813 41.8752 49.7421 42.011 49.4034 42.2145V41.5353C49.6718 41.3359 50.1418 41.2026 50.6782 41.2026C51.6176 41.2026 52.2218 41.7353 52.2218 42.6006V45.3289H51.5561V45.0105C51.4351 45.1438 50.9698 45.4099 50.5041 45.4099C49.7057 45.4099 48.9739 44.9445 48.9739 44.1457C48.9739 43.4137 49.6401 42.881 50.5041 42.881C50.9032 42.881 51.5048 43.2137 51.5048 43.2137V42.6888ZM51.5048 43.9448C51.3716 43.6121 50.973 43.4126 50.5738 43.4126C50.1079 43.4126 49.6422 43.6121 49.6422 44.1447C49.6422 44.6101 50.1079 44.8768 50.5738 44.8768C50.973 44.8768 51.3721 44.6768 51.5048 44.3441V43.9448ZM60.0625 39.741V45.3289H59.345V42.8169H56.2192V45.3289H55.5018V39.741H56.2192V42.1505H59.345V39.741H60.0625ZM61.7463 43.4137C61.7463 44.3451 62.3454 44.8111 63.0786 44.8111C63.5445 44.8111 63.877 44.6778 64.2147 44.4117V45.0105C63.877 45.2771 63.4778 45.3433 63.012 45.3433C61.8811 45.3433 61.0832 44.5451 61.0832 43.2804C61.0832 42.0157 61.815 41.1509 62.8793 41.1509C63.9436 41.1509 64.5426 41.9495 64.5222 43.1501V43.4321H61.7468L61.7463 43.4137ZM61.7463 42.8682H63.8089C63.8089 42.2694 63.4763 41.7368 62.8112 41.7368C62.3454 41.8034 61.8795 42.1361 61.7463 42.8682ZM68.737 44.4061L69.6081 41.3302H70.2548L69.0603 45.3801H68.3942L67.5317 42.3263L66.6729 45.3801H66.0067L64.8122 41.3302H65.4614L66.3326 44.4061L67.1341 41.3302H67.7357L68.738 44.4061H68.737ZM71.7459 45.3801H71.0798V39.4334H71.7459V45.3801ZM73.3217 43.4137C73.3217 44.3451 73.9202 44.8111 74.654 44.8111C75.1198 44.8111 75.4524 44.6778 75.7962 44.4117V45.0105C75.4524 45.2771 75.0532 45.3433 74.5879 45.3433C73.4565 45.3433 72.6586 44.5451 72.6586 43.2804C72.6586 42.0157 73.3903 41.1509 74.4546 41.1509C75.519 41.1509 76.118 41.9495 76.1037 43.1501V43.4321H73.3217V43.4137ZM73.3217 42.8682H75.3842C75.3842 42.2694 75.0517 41.7368 74.3866 41.7368C73.9202 41.8034 73.4544 42.1361 73.3217 42.8682ZM78.0489 45.3801H77.3827V41.8941H76.5116V41.279H77.3827V40.2025H78.0489V41.279H78.9713V41.8941H78.0489V45.3801ZM81.1232 45.3801H80.4576V41.8941H79.5862V41.279H80.4576V40.2025H81.1232V41.279H82.0456V41.8941H81.1232V45.3801ZM85.684 43.0733V45.3289H84.9664V39.741H86.988C88.0968 39.741 88.8144 40.3409 88.8144 41.4072C88.8144 42.4734 88.0968 43.0733 86.988 43.0733H85.684ZM87.0064 40.3562H85.684V42.4068H87.0064C87.7336 42.4068 88.1304 42.01 88.1304 41.3482C88.1952 40.8176 87.8 40.3562 87.0064 40.3562ZM91.8848 42.6888C91.8848 42.1464 91.4784 41.8752 90.936 41.8752C90.4616 41.8752 90.1224 42.011 89.784 42.2141V41.5353C90.052 41.3359 90.5224 41.2026 91.0584 41.2026C91.9976 41.2026 92.6016 41.7353 92.6016 42.6006V45.3289H91.936V45.0105C91.8144 45.1438 91.3488 45.4099 90.8832 45.4099C90.0848 45.4099 89.3528 44.9439 89.3528 44.1452C89.3528 43.4137 90.0192 42.881 90.8832 42.881C91.2824 42.881 91.8848 43.2137 91.8848 43.2137V42.6888ZM91.8848 43.9458C91.752 43.6131 91.3528 43.4137 90.9536 43.4137C90.488 43.4137 90.0224 43.6131 90.0224 44.1452C90.0224 44.6112 90.488 44.8773 90.9536 44.8773C91.3528 44.8773 91.752 44.6778 91.8848 44.3451V43.9448V43.9458ZM95.3304 41.2175C95.7296 41.2175 96.1288 41.2836 96.3944 41.5501V42.2166C96.1288 41.9505 95.728 41.8173 95.3304 41.8173C94.5984 41.8173 93.9976 42.3499 93.9976 43.2814C93.9976 44.2129 94.5968 44.7455 95.3304 44.7455C95.7296 44.7455 96.0616 44.6122 96.3944 44.3461V45.0126C96.1288 45.2787 95.728 45.3453 95.3304 45.3453C94.2656 45.3453 93.4008 44.5471 93.4008 43.2157C93.4 42.0157 94.2664 41.2175 95.3304 41.2175ZM100.738 45.3801H99.848L97.9824 43.3757V45.3801H97.316V39.4334H97.9824V43.0271L99.7968 41.279H100.668L98.652 43.1614L100.738 45.3801ZM103.619 42.6888C103.619 42.1464 103.213 41.8752 102.67 41.8752C102.196 41.8752 101.857 42.011 101.518 42.2141V41.5353C101.786 41.3359 102.256 41.2026 102.793 41.2026C103.732 41.2026 104.336 41.7353 104.336 42.6006V45.3289H103.67V45.0105C103.522 45.1438 103.055 45.4099 102.591 45.4099C101.793 45.4099 101.061 44.9439 101.061 44.1452C101.061 43.4137 101.727 42.881 102.591 42.881C102.99 42.881 103.618 43.2137 103.618 43.2137V42.6888H103.619ZM103.568 43.9448C103.435 43.6121 103.036 43.4126 102.637 43.4126C102.171 43.4126 101.706 43.6121 101.706 44.1441C101.706 44.6101 102.171 44.8762 102.637 44.8762C103.036 44.8762 103.435 44.6768 103.568 44.3441V43.9448ZM107.36 41.9588C107.228 41.8921 107.097 41.8255 106.899 41.8255C106.503 41.8255 106.108 42.0921 105.977 42.5575V45.2745H105.31V41.2277H105.977V41.7604C106.174 41.4277 106.503 41.1611 106.965 41.1611C107.162 41.1611 107.294 41.1611 107.36 41.2277V41.9588ZM110.845 44.8757C110.645 45.1428 110.178 45.4099 109.712 45.4099C108.513 45.4099 107.913 44.4749 107.913 43.2721C107.913 42.1361 108.579 41.1339 109.712 41.1339C109.93 41.1304 110.144 41.1768 110.341 41.2694C110.537 41.3621 110.71 41.4987 110.845 41.6686V39.3309H111.51V45.2777H110.845V44.8768V44.8757ZM110.845 42.4806C110.747 42.2809 110.596 42.1125 110.408 41.9947C110.22 41.8769 110.002 41.8143 109.78 41.8142C108.982 41.8142 108.582 42.4129 108.582 43.2783C108.582 44.1437 109.049 44.7425 109.78 44.7425C110.179 44.7425 110.578 44.4764 110.845 44.076V42.4817V42.4806ZM50.1725 48.8765V49.5326H47.3029V51.3269H49.9163V51.9933H47.3029V53.9414H50.1725V54.6078H46.6367V49.0097L50.1725 48.8765ZM51.0437 50.4041H51.7098V50.9353C51.9778 50.6036 52.3801 50.338 52.9161 50.338C53.8538 50.338 54.3232 50.9353 54.3232 51.7985V54.454H53.6058V51.9252C53.6058 51.3925 53.3424 50.9932 52.7495 50.9932C52.2883 50.9932 51.8927 51.3259 51.761 51.7253V54.454H51.0949V50.3529H51.0437V50.4041ZM56.5779 54.4028H55.9118V50.9168H55.0406V50.3529H55.9118V49.2763H56.5779V50.3529H57.5003V50.9168H56.5779V54.4028ZM58.5534 52.5311C58.5534 53.4626 59.1518 53.9286 59.8857 53.9286C60.3515 53.9286 60.6841 53.7953 61.0382 53.5293V54.128C60.6841 54.3946 60.2849 54.4607 59.8196 54.4607C58.6886 54.4607 57.8902 53.6625 57.8902 52.3978C57.8902 51.1331 58.622 50.2683 59.6869 50.2683C60.7517 50.2683 61.3497 51.067 61.3456 52.2645V52.506H58.5534V52.5311ZM58.62 51.9933H60.682C60.682 51.3945 60.3494 50.8619 59.6843 50.8619C59.1524 50.8619 58.7532 51.2613 58.62 51.9933ZM64.3157 51.0849C64.184 51.0183 64.0522 50.9517 63.8545 50.9517C63.4589 50.9517 63.0638 51.2182 62.9321 51.6837V54.4007H62.2659V50.3529H62.9321V50.8855C63.1294 50.5528 63.4589 50.2862 63.9201 50.2862C64.1178 50.2862 64.2496 50.2862 64.3157 50.3529V51.0849ZM65.7505 55.992H65.0843V50.4041H65.7505V50.8696C65.9503 50.6036 66.4166 50.3375 66.883 50.3375C68.0821 50.3375 68.6821 51.3356 68.6821 52.466C68.6821 53.5964 68.0826 54.595 66.883 54.595C66.3506 54.595 65.9503 54.3289 65.7505 54.0629V55.992ZM65.7505 53.1965C65.8476 53.3962 65.9989 53.5646 66.1871 53.6824C66.3753 53.8003 66.5928 53.8628 66.8148 53.8629C67.6132 53.8629 68.0124 53.2642 68.0124 52.3988C68.0124 51.5335 67.5466 50.9347 66.8148 50.9347C66.4156 50.9347 66.0164 51.2008 65.7505 51.6012V53.1985V53.1965ZM71.6434 51.0849C71.5118 51.0183 71.3801 50.9517 71.1822 50.9517C70.7866 50.9517 70.3916 51.2182 70.2599 51.6837V54.4007H69.5938V50.3529H70.2599V50.8855C70.4572 50.5528 70.7866 50.2862 71.2478 50.2862C71.4457 50.2862 71.5774 50.2862 71.6434 50.3529V51.0849ZM72.7893 49.6029C72.6971 49.6029 72.607 49.5755 72.5305 49.5243C72.4538 49.4731 72.3942 49.4004 72.3589 49.3152C72.3237 49.2301 72.3144 49.1364 72.3324 49.046C72.3504 48.9556 72.3947 48.8725 72.4599 48.8073C72.525 48.7422 72.608 48.6978 72.6984 48.6798C72.7887 48.6618 72.8824 48.6711 72.9675 48.7063C73.0526 48.7416 73.1254 48.8013 73.1766 48.878C73.2278 48.9546 73.255 49.0447 73.255 49.1369C73.1885 49.4029 72.9891 49.6029 72.7893 49.6029ZM73.1295 54.4028H72.4634V50.3529H73.1295V54.4028ZM74.0519 53.3975C74.4516 53.7307 74.9179 53.9306 75.3842 53.9306C75.8506 53.9306 76.2502 53.7973 76.2502 53.3975C76.2502 53.0643 76.0504 52.9309 75.6507 52.7977L75.1178 52.5977C74.5182 52.3978 74.1185 52.1313 74.1185 51.4648C74.1185 50.7317 74.7181 50.3318 75.5174 50.3318C75.9402 50.3305 76.355 50.4458 76.7166 50.6651V51.3981C76.3834 51.1316 75.9838 50.9317 75.5174 50.9317C75.1178 50.9317 74.7846 51.1316 74.7846 51.4648C74.7846 51.7981 74.9846 51.9313 75.3842 52.0646L75.9838 52.2645C76.5834 52.4644 76.9164 52.7977 76.9164 53.3975C76.9164 54.1305 76.2502 54.5971 75.3842 54.5971C74.8513 54.5971 74.385 54.4638 74.0519 54.1972V53.3975ZM78.2441 52.5311C78.2441 53.4626 78.8426 53.9286 79.5765 53.9286C80.0424 53.9286 80.3752 53.7953 80.7152 53.5293V54.128C80.3752 54.3946 79.9756 54.4607 79.5103 54.4607C78.3794 54.4607 77.581 53.6625 77.581 52.3978C77.581 51.1331 78.3128 50.2683 79.3776 50.2683C80.4424 50.2683 81.0408 51.067 81.0232 52.2645V52.506H78.2446L78.2441 52.5311ZM78.2441 51.9933H80.3064C80.3064 51.3945 79.9736 50.8619 79.3085 50.8619C78.8426 50.8619 78.3774 51.2613 78.2441 51.9933ZM85.696 50.3349C86.0952 50.3349 86.4944 50.401 86.76 50.6677V51.3341C86.4944 51.068 86.0944 50.9347 85.696 50.9347C84.964 50.9347 84.3632 51.4673 84.3632 52.3988C84.3632 53.3303 84.9624 53.8629 85.696 53.8629C86.0952 53.8629 86.428 53.7297 86.76 53.4636V54.13C86.4944 54.3961 86.0944 54.4628 85.696 54.4628C84.6312 54.4628 83.7664 53.664 83.7664 52.3332C83.7664 51.1331 84.6312 50.3349 85.696 50.3349ZM89.22 54.5273C88.0888 54.5273 87.3576 53.662 87.3576 52.3978C87.3576 51.1337 88.0888 50.2683 89.22 50.2683C90.3512 50.2683 91.0824 51.1337 91.0824 52.3978C91.0824 53.662 90.284 54.5273 89.22 54.5273ZM89.22 50.9337C88.488 50.9337 88.0888 51.5324 88.0888 52.4644C88.0888 53.3298 88.5544 53.9953 89.22 53.9953C89.952 53.9953 90.3512 53.396 90.3512 52.4644C90.3512 51.533 89.952 50.9337 89.22 50.9337ZM96.056 50.338C96.8512 50.338 97.316 50.9353 97.316 51.7985V54.454H96.6496V51.8652C96.6704 51.333 96.404 50.9337 95.9384 50.9337C95.5392 50.9337 95.2064 51.1997 95.0608 51.6657V54.5053H94.3952V51.9097C94.3952 51.3771 94.1304 50.9783 93.6672 50.9783C93.2696 50.9783 92.9384 51.2444 92.8064 51.7104V54.454H92.14V50.4041H92.8064V50.8686C93.0056 50.5369 93.4032 50.3375 93.868 50.3375C94.3984 50.3375 94.796 50.603 94.9288 51.0013C95.0616 50.603 95.4592 50.338 96.056 50.338ZM99.1096 55.992H98.444V50.4041H99.1096V50.8696C99.3096 50.6036 99.776 50.3375 100.242 50.3375C101.442 50.3375 102.042 51.3356 102.042 52.466C102.042 53.5964 101.442 54.595 100.242 54.595C99.7096 54.595 99.3096 54.3289 99.1096 54.0629V55.992ZM99.1096 53.1965C99.2072 53.3962 99.3584 53.5646 99.5464 53.6824C99.7344 53.8003 99.952 53.8628 100.174 53.8629C100.973 53.8629 101.372 53.2642 101.372 52.3988C101.372 51.5335 100.906 50.9347 100.174 50.9347C99.7752 50.9347 99.376 51.2008 99.1096 51.6012V53.1985V53.1965ZM105.259 51.7401C105.259 51.1972 104.852 50.926 104.31 50.926C103.835 50.926 103.496 51.0618 103.158 51.2653V50.6092C103.426 50.4097 103.896 50.2765 104.433 50.2765C105.372 50.2765 105.976 50.8091 105.976 51.6745V54.4028H105.31V54.0613C105.185 54.1946 104.719 54.4607 104.254 54.4607C103.455 54.4607 102.723 53.9952 102.723 53.1965C102.723 52.4644 103.39 51.9318 104.254 51.9318C104.653 51.9318 105.258 52.2645 105.258 52.2645V51.7396L105.259 51.7401ZM105.259 52.9966C105.126 52.6639 104.727 52.4644 104.328 52.4644C103.862 52.4644 103.396 52.6639 103.396 53.1965C103.396 53.662 103.862 53.9286 104.328 53.9286C104.727 53.9286 105.126 53.7286 105.259 53.396V52.9966ZM107.053 50.4041H107.718V50.9353C107.986 50.6036 108.389 50.338 108.925 50.338C109.862 50.338 110.332 50.9353 110.332 51.7985V54.454H109.614V51.9252C109.614 51.3925 109.351 50.9932 108.758 50.9932C108.298 50.9932 107.902 51.3259 107.77 51.7253V54.454H107.104V50.3529H107.053V50.4041ZM111.838 55.992L112.438 54.4617L110.842 50.4041H111.573L112.77 53.5974L113.966 50.4041H114.698L112.504 55.992H111.838Z" fill="#686868"/>
<path d="M87.016 23.285C87.016 28.6217 82.7664 32.9581 77.5872 32.9581C72.4081 32.9581 68.1585 28.6217 68.1585 23.285V15.0718C68.1585 15.0718 72.6679 16.1997 72.6679 20.9765V23.2599C72.6679 26.1881 74.8616 28.5176 77.5872 28.5176C80.3128 28.5176 82.5064 26.1881 82.5064 23.2599V18.6014C82.7056 14.6084 86.0936 13.3442 86.9608 12.8782H87.016V23.285ZM62.7369 13.6652C64.0006 13.6652 65.1966 13.8651 66.2625 14.3316V19.3889C65.3309 18.5901 64.0667 18.1241 62.7359 18.1241C59.7418 18.1237 57.3461 20.4537 57.3461 23.3824V32.9228H52.8367V15.4625C52.8367 15.4625 54.6994 15.5286 55.897 16.394C57.6264 14.6638 60.0876 13.6657 62.7487 13.6657M41.0574 28.5729C38.0638 28.5729 35.6026 26.1769 35.6026 23.2486C35.6026 20.3204 38.0623 17.9248 41.0574 17.9248C44.0526 17.9248 46.5123 20.3204 46.5123 23.2486C46.5123 26.1769 44.0526 28.5729 41.0574 28.5729ZM41.0441 13.6657C35.5892 13.6657 31.1992 17.9914 31.1992 23.2486C31.1992 28.5729 35.5898 32.8321 41.0441 32.8321C43.3059 32.8321 45.368 32.1 47.0314 30.8327C48.0291 32.4968 50.8895 32.8321 50.8895 32.8321V23.2486C50.8895 17.9914 46.499 13.6657 41.0441 13.6657ZM119.754 28.5729C116.76 28.5729 114.299 26.1769 114.299 23.2486C114.299 20.3204 116.758 17.9248 119.754 17.9248C122.749 17.9248 125.209 20.3204 125.209 23.2486C125.209 26.1769 122.749 28.5729 119.754 28.5729ZM119.754 13.6657C114.299 13.6657 109.909 17.9914 109.909 23.2486C109.909 28.5729 114.299 32.8321 119.754 32.8321C122.016 32.8321 124.078 32.1 125.741 30.8327C126.738 32.4968 129.599 32.8321 129.599 32.8321V23.2486C129.599 17.9914 125.209 13.6657 119.754 13.6657ZM98.8656 28.5729C95.872 28.5729 93.4104 26.1769 93.4104 23.2486C93.4104 20.3204 95.8704 17.9248 98.8656 17.9248C101.861 17.9248 104.321 20.3204 104.321 23.2486C104.387 26.1769 101.926 28.5729 98.8656 28.5729ZM98.8968 13.6646C96.8936 13.6646 95.024 14.2639 93.4216 15.2621V13.7313C93.2208 9.73822 89.9488 8.47406 89.0808 8.00806H89.0144V32.8982C89.0144 32.8982 91.952 32.5655 93.0872 30.9681C94.7568 32.0995 96.76 32.8315 98.8968 32.8315C104.372 32.8315 108.778 28.5058 108.778 23.2481C108.846 17.9909 104.371 13.6646 98.8968 13.6646Z" fill="#686868"/>
</g>
</svg>
