<svg width="160" height="64" viewBox="0 0 160 64" fill="none" xmlns="http://www.w3.org/2000/svg">
<mask id="mask0_119_2406" style="mask-type:luminance" maskUnits="userSpaceOnUse" x="24" y="20" width="112" height="24">
<path d="M136 20.8H24V44H136V20.8Z" fill="white"/>
</mask>
<g mask="url(#mask0_119_2406)">
<path d="M127.409 30.0759L107.187 28.8743C107.187 31.9943 109.221 34.0708 112.683 34.3554L127.073 35.4727C128.185 35.5675 128.877 35.8416 128.877 36.7692C128.877 37.6967 128.091 37.9814 126.465 37.9814H106.861V44.0107H126.895C133.209 44.0107 136 41.7971 136 36.7271C136 32.1629 133.503 30.4553 127.409 30.0759Z" fill="#686868"/>
<path d="M100.358 35.3251C100.358 37.4543 99.2884 38.1078 95.6068 38.1078H90.5196C87.4884 38.1078 86.1876 37.2223 86.1876 35.3251V27.8517L79.7264 27.3879V35.8731H79.59C79.2229 33.4171 78.2894 30.5395 72.1639 30.1179L51.9309 28.7793C51.9309 31.8783 54.1545 33.7439 57.6159 34.1128L71.6919 35.5569C72.7932 35.6412 73.6428 35.9786 73.6428 36.9061C73.6428 37.9286 72.8037 38.0129 71.5031 38.0129H51.7001V28.7371L45.2285 28.326V43.9895H71.5451C77.4084 43.9895 79.2964 40.9327 79.5796 38.3819H79.7159C80.45 42.4083 83.9532 43.9895 89.9108 43.9895H96.4772C103.431 43.9895 106.724 41.8603 106.724 36.8429V28.8742L100.358 28.5052V35.3251Z" fill="#686868"/>
<path d="M24 43.9999H31.8457L41.6842 28.0309L34.6672 27.3457L24 43.9999Z" fill="#686868"/>
<path d="M113.657 20.8C109.085 20.8 107.049 23.6776 106.735 26.4182V20.8H100.357V26.745H135.349V20.8H113.657Z" fill="#686868"/>
<path d="M86.188 20.8H79.7266V26.745H86.188V20.8Z" fill="#686868"/>
<path d="M78.5738 20.8H58.8547C54.2815 20.8 52.2572 23.6776 51.7957 26.4182V20.8H40.8454C39.3455 20.8 38.5903 21.2638 37.8455 22.339L34.8457 26.745H78.5633L78.5738 20.8Z" fill="#686868"/>
</g>
</svg>
