<svg width="160" height="64" viewBox="0 0 160 64" fill="none" xmlns="http://www.w3.org/2000/svg">
<mask id="mask0_125_966" style="mask-type:luminance" maskUnits="userSpaceOnUse" x="16" y="18" width="128" height="28">
<path d="M144 18.3999H16V45.5999H144V18.3999Z" fill="white"/>
</mask>
<g mask="url(#mask0_125_966)">
<path d="M41.9572 38.0301C39.4021 42.6701 34.7239 45.5158 29.8391 45.5999C22.0845 45.5111 15.9456 39.474 16.0302 31.8621C15.9456 24.3437 22.0516 18.3438 29.8344 18.3999C33.3994 18.3392 36.7201 19.6896 39.4162 22.325C40.9708 23.7736 41.2574 24.1988 41.9525 25.6894H38.8525C36.9362 22.6054 33.3994 20.7222 29.8344 20.6475C23.7284 20.7222 18.5853 25.909 18.5665 31.8621C18.59 37.9086 23.7613 43.1327 29.5573 43.0766C33.437 43.1327 36.7201 41.0721 38.8525 38.0301H41.9572ZM59.9886 36.0675L63.9341 45.0392H66.757L55.4796 18.685H52.6662L41.1118 45.0392H43.9252L47.8706 36.0675L48.7207 33.8246L54.0753 21.7689L59.1479 33.8246H48.7207L47.8706 36.0675H59.9886ZM69.0068 18.685H75.7703C78.8046 18.8018 80.7348 19.0868 82.2524 19.8064C85.0564 21.1849 86.8412 24.0259 86.7612 27.3762C86.8412 31.6611 83.6236 34.9648 79.1522 35.2265L86.4844 45.0392H83.0972L74.366 33.2639H75.2114C78.8422 33.119 79.8097 32.9741 81.1292 32.1425C83.0596 31.1985 84.2012 29.2827 84.2292 27.0959C84.19 26.0938 83.9148 25.1149 83.4252 24.2383C82.9356 23.3618 82.246 22.6119 81.4116 22.0493C80.0588 21.4325 78.7388 21.1849 76.3386 21.2082H71.8296V45.0392H69.0068V18.685ZM91.2748 18.685H98.8836C100.861 18.8018 103.431 19.1943 105.084 19.8064C110.105 21.54 113.675 26.5492 113.538 31.8621C113.58 34.3887 112.882 36.8728 111.532 39.0129C110.18 41.1529 108.235 42.8568 105.929 43.9177C104.036 44.6233 101.684 45.0532 98.8836 45.0392H91.2748L93.8116 42.7963H97.7564C101.364 42.6701 103.144 42.3897 105.088 41.3945C108.715 39.759 111.04 36.0629 111.007 31.8621C111.04 28.9276 110.039 26.5492 107.907 24.5726C105.469 22.0727 102.688 21.1849 97.7612 21.2082H93.8156V42.7963L91.2748 45.0392V18.685ZM115.788 18.685H118.611V45.0392H115.788V18.685ZM123.12 18.685H126.502L141.433 40.5533V18.685H143.97V45.0392H141.433L125.656 22.0493V45.0392H123.12V18.685Z" fill="#686868"/>
</g>
</svg>
