<svg width="160" height="64" viewBox="0 0 160 64" fill="none" xmlns="http://www.w3.org/2000/svg">
<mask id="mask0_119_2358" style="mask-type:luminance" maskUnits="userSpaceOnUse" x="34" y="8" width="92" height="48">
<path d="M125.598 8H34.3984V56H125.598V8Z" fill="white"/>
</mask>
<g mask="url(#mask0_119_2358)">
<path d="M64.1903 39.8882H60.1914V55.6915H64.1903V39.8882Z" fill="#686868"/>
<path d="M96.4372 44.4167C96.2764 44.3334 94.9908 43.573 93.078 43.573C90.4876 43.573 88.6956 45.3679 88.6956 47.7881C88.6956 50.1363 90.4132 52.007 93.078 52.007C94.958 52.007 96.2652 51.263 96.4372 51.1683V55.41C95.9404 55.5502 94.5764 55.9722 92.7908 55.9722C88.2948 55.9722 84.3516 52.8799 84.3516 47.7881C84.3516 43.0689 87.9236 39.6079 92.7908 39.6079C94.6724 39.6079 96.0612 40.0639 96.4372 40.175V44.4167Z" fill="#686868"/>
<path d="M54.6947 44.4167C54.5338 44.3334 53.2481 43.573 51.3355 43.573C48.7451 43.573 46.9527 45.3679 46.9527 47.7881C46.9527 50.1363 48.6703 52.007 51.3355 52.007C53.2151 52.007 54.5223 51.263 54.6947 51.1683V55.41C54.1981 55.5502 52.8339 55.9722 51.0479 55.9722C46.5525 55.9722 42.6094 52.8799 42.6094 47.7881C42.6094 43.0689 46.1814 39.6079 51.0479 39.6079C52.9302 39.6079 54.3184 40.0639 54.6947 40.175V44.4167Z" fill="#686868"/>
<path d="M109.015 43.6319C106.642 43.6319 104.881 45.4939 104.881 47.7878C104.881 50.0867 106.642 51.9474 109.015 51.9474C111.385 51.9474 113.152 50.0867 113.152 47.7878C113.152 45.4939 111.385 43.6319 109.015 43.6319ZM117.389 47.7878C117.389 52.3086 113.889 55.9718 109.015 55.9718C104.141 55.9718 100.646 52.3086 100.646 47.7878C100.646 43.2745 104.141 39.6075 109.015 39.6075C113.889 39.6075 117.389 43.2745 117.389 47.7878Z" fill="#686868"/>
<path d="M79.3574 43.4803C79.2979 43.4613 77.6145 42.9978 76.2313 42.9978C74.6289 42.9978 73.7575 43.5333 73.7575 44.2925C73.7575 45.2551 74.9329 45.5911 75.5904 45.7982L76.6937 46.1481C79.289 46.9716 80.4721 48.7439 80.4721 50.6689C80.4721 54.6391 76.971 55.9729 73.9108 55.9729C71.7841 55.9729 69.7916 55.5826 69.5953 55.5409V51.9043C69.9473 51.9928 71.6244 52.4916 73.3712 52.4916C75.3611 52.4916 76.2756 51.9119 76.2756 51.0163C76.2756 50.2155 75.484 49.7532 74.4921 49.4424C74.2502 49.3616 73.8867 49.2479 73.6385 49.167C71.4117 48.4648 69.5547 47.1599 69.5547 44.5439C69.5547 41.5881 71.7739 39.6036 75.4599 39.6036C77.4068 39.6036 79.2384 40.0748 79.3574 40.1064V43.4803Z" fill="#686868"/>
<path d="M38.3694 22.9047C38.3694 21.8159 37.4777 20.933 36.3846 20.933C35.2914 20.933 34.3984 21.8159 34.3984 22.9047V27.053C34.3984 28.1481 35.2914 29.0323 36.3846 29.0323C37.4777 29.0323 38.3694 28.1481 38.3694 27.053V22.9047Z" fill="#686868"/>
<path d="M49.2757 17.4599C49.2757 16.371 48.384 15.4856 47.2908 15.4856C46.1964 15.4856 45.3047 16.371 45.3047 17.4599V27.0536C45.3047 28.1487 46.1964 29.0317 47.2908 29.0317C48.384 29.0317 49.2757 28.1487 49.2757 27.0536V17.4599Z" fill="#686868"/>
<path d="M60.1799 10.0104C60.1799 8.92151 59.2883 8.03735 58.1951 8.03735C57.1007 8.03735 56.209 8.92151 56.209 10.0104V30.9952C56.209 32.0904 57.1007 32.9746 58.1951 32.9746C59.2883 32.9746 60.1799 32.0904 60.1799 30.9952V10.0104Z" fill="#686868"/>
<path d="M71.0843 17.4599C71.0843 16.371 70.1926 15.4856 69.0994 15.4856C68.005 15.4856 67.1133 16.371 67.1133 17.4599V27.0536C67.1133 28.1487 68.005 29.0317 69.0994 29.0317C70.1926 29.0317 71.0843 28.1487 71.0843 27.0536V17.4599Z" fill="#686868"/>
<path d="M81.9776 22.9047C81.9776 21.8158 81.0928 20.9329 80.004 20.9329C78.9112 20.9329 78.0195 21.8158 78.0195 22.9047V27.0529C78.0195 28.1481 78.9112 29.0322 80.004 29.0322C81.0928 29.0322 81.9776 28.1481 81.9776 27.0529V22.9047Z" fill="#686868"/>
<path d="M81.9824 22.9047C81.9824 21.8158 81.0912 20.9329 79.9979 20.9329C78.9048 20.9329 78.0117 21.8158 78.0117 22.9047V27.0529C78.0117 28.1481 78.9048 29.0322 79.9979 29.0322C81.0912 29.0322 81.9824 28.1481 81.9824 27.0529V22.9047Z" fill="#686868"/>
<path d="M92.8892 17.4598C92.8892 16.371 91.998 15.4855 90.9044 15.4855C89.81 15.4855 88.918 16.371 88.918 17.4598V27.0535C88.918 28.1487 89.81 29.0316 90.9044 29.0316C91.998 29.0316 92.8892 28.1487 92.8892 27.0535V17.4598Z" fill="#686868"/>
<path d="M103.793 10.0103C103.793 8.92147 102.901 8.03723 101.809 8.03723C100.714 8.03723 99.8223 8.92147 99.8223 10.0103V30.9952C99.8223 32.0903 100.714 32.9745 101.809 32.9745C102.901 32.9745 103.793 32.0903 103.793 30.9952V10.0103Z" fill="#686868"/>
<path d="M114.698 17.4598C114.698 16.371 113.806 15.4855 112.713 15.4855C111.619 15.4855 110.727 16.371 110.727 17.4598V27.0535C110.727 28.1487 111.619 29.0316 112.713 29.0316C113.806 29.0316 114.698 28.1487 114.698 27.0535V17.4598Z" fill="#686868"/>
<path d="M125.591 22.9046C125.591 21.8157 124.706 20.9327 123.618 20.9327C122.525 20.9327 121.633 21.8157 121.633 22.9046V27.0527C121.633 28.1479 122.525 29.0321 123.618 29.0321C124.706 29.0321 125.591 28.1479 125.591 27.0527V22.9046Z" fill="#686868"/>
<path d="M123.312 53.6102V53.8578H122.604V55.6907H122.315V53.8578H121.604V53.6102H123.312Z" fill="#686868"/>
<path d="M123.459 53.6102H123.914L124.538 55.3168H124.549L125.153 53.6102H125.598V55.6907H125.301V53.9854H125.291L124.657 55.6907H124.382L123.765 53.9854H123.75V55.6907H123.459V53.6102Z" fill="#686868"/>
</g>
</svg>
