<svg width="160" height="64" viewBox="0 0 160 64" fill="none" xmlns="http://www.w3.org/2000/svg">
<path fill-rule="evenodd" clip-rule="evenodd" d="M23.7266 25.8308H103.259C105.036 25.8308 106.515 25.9975 107.654 24.4567C108.351 23.5143 108.497 22.1801 107.949 21.0814C107.451 20.0819 106.441 19.2461 105.26 19.2461C103.595 19.2461 101.806 19.4895 100.132 19.6255L23.7266 25.8308Z" fill="#686868"/>
<path fill-rule="evenodd" clip-rule="evenodd" d="M112.764 30.0729V34.4416C112.764 34.5571 113.26 34.3132 113.487 34.2246C115.931 33.272 119.919 32.6656 122.338 33.4835C123.225 33.7833 123.866 34.2978 123.956 35.3913C123.418 35.3913 122.035 35.2013 121.017 35.2013C118.119 35.2013 114.201 35.2962 111.998 37.5276C110.106 39.4431 109.799 43.3256 113.096 44.9954C114.32 45.6157 115.786 45.8476 117.138 45.9014H120.392C121.362 45.9014 122.757 45.6474 123.508 45.1947C123.806 45.0149 124.02 44.8541 124.269 44.6352C124.374 45.9271 128.27 45.7115 129.27 45.7115C129.486 45.7115 129.708 45.704 129.708 45.6482V39.5067C129.708 36.0371 130.333 31.7018 126.958 30.0091C124.634 28.844 122.071 28.9965 119.454 28.9965C117.581 28.9965 114.88 29.3633 113.045 29.8509C112.873 29.8966 112.764 29.8735 112.764 30.0729ZM59.242 29.3765V40.6464C59.242 42.1834 60.3966 43.6708 61.5292 44.4717C63.673 45.9879 67.0451 46.4 69.5804 45.1637C69.8631 45.0257 70.2812 44.7641 70.5591 44.6985C70.6465 45.0298 71.1971 45.1796 71.4881 45.2773C72.8585 45.7377 74.6351 45.7748 76.1239 45.7748V29.1865H70.5591C70.2608 29.1865 70.3715 29.6997 70.3715 30.2628L70.3723 39.3175C70.3056 40.7232 69.2585 41.9161 67.9943 42.1013C66.5629 42.3111 64.9943 41.4687 64.9943 40.0765V29.1865H59.4296C59.2855 29.1865 59.242 29.2306 59.242 29.3765ZM133.334 45.7748H138.962V17.6H133.334V45.7748ZM78.875 37.1641C78.875 40.0474 80.7031 42.0709 82.4135 43.2681C84.2671 44.5657 87.3063 45.5849 89.6919 45.5849C91.8615 45.5849 93.0119 45.6013 95.1583 44.9791C96.3807 44.6248 97.4375 44.2253 98.4455 43.6854L96.5071 41.0262C96.268 41.0827 95.0335 41.5969 93.8439 41.8746C92.7607 42.1274 91.6135 42.2292 90.3799 42.2292C87.6295 42.2292 85.0023 40.4334 85.0023 37.6073C85.0023 36.5473 85.0047 35.6573 85.5519 34.7449C88.5376 29.7733 96.3767 33.4918 96.3823 33.4918L98.3207 30.9593C97.6191 30.6182 96.1703 29.8285 95.0567 29.5157C92.5687 28.8171 92.3287 28.8065 89.7543 28.8065C88.4103 28.8065 86.7663 29.1781 85.7127 29.5261C82.3871 30.6253 78.875 33.2058 78.875 37.1641ZM21.4847 39.6253C23.0428 43.4827 28.1237 45.5849 31.7934 45.5849C33.9345 45.5849 35.1486 45.5961 37.2693 44.9884C38.4882 44.639 39.5443 44.2226 40.547 43.6854C40.4586 43.3502 39.0012 41.5253 38.6711 41.0262C38.1043 41.16 37.4408 41.5745 35.9987 41.8656C33.5256 42.3649 30.7663 42.6093 28.7098 40.9197C27.5991 40.0073 27.1039 38.8189 27.1039 37.0375C27.1039 34.7087 28.4917 33.2616 30.3639 32.5509C31.9976 31.9309 34.2614 32.1553 35.8456 32.5542C36.5055 32.7205 38.1958 33.4571 38.6087 33.4919C38.8523 33.17 40.4196 31.205 40.4844 30.9593C39.829 30.8047 38.2151 29.8673 37.2567 29.5425C34.8875 28.7392 32.3734 28.6054 29.8818 29.0236C26.2555 29.6321 21.3016 32.4301 21.0391 36.7842C21.0391 37.9177 21.0413 38.5278 21.4847 39.6253ZM50.2383 30.4528C49.4543 29.921 49.2189 29.8256 48.2116 29.656C46.8514 29.4269 45.9675 29.4397 44.6111 29.4397V45.6481H50.1134C50.2788 45.6481 50.3014 45.5313 50.3011 44.8886L50.2986 35.8954C50.2939 34.2915 52.221 33.2386 53.6773 33.2386C54.664 33.2386 55.6388 33.2885 56.491 33.7451L56.4989 29.7482C56.4994 29.5093 56.4007 29.4633 56.0115 29.4187C52.6127 29.0297 51.4163 29.6137 50.2383 30.4528ZM101.51 29.7563V45.3949C101.51 45.5408 101.553 45.5849 101.697 45.5849H107.199V29.5664H101.697C101.553 29.5664 101.51 29.6104 101.51 29.7563ZM118.454 43.2176C122.063 43.1489 123.974 41.1056 123.782 38.0892C122.166 38.1793 120.92 38.0793 119.336 38.1461C117.359 38.2295 115.642 39.0105 115.528 40.5964C115.414 42.1799 116.518 43.2545 118.454 43.2176Z" fill="#686868"/>
</svg>
