<svg width="160" height="64" viewBox="0 0 160 64" fill="none" xmlns="http://www.w3.org/2000/svg">
<path d="M66.0146 34.4476L71.7723 16.7235H65.0334L61.6337 27.2238L61.5913 26.8315L61.5717 26.4381L61.5121 26.0685L61.4675 25.6763L61.3826 25.3033L61.2989 24.9303L61.1958 24.5608L61.0915 24.1912L60.9642 23.817L60.8439 23.4667L60.6754 23.0972L60.5298 22.748L60.3396 22.4147L60.1527 22.0644L59.9418 21.7106L59.7355 21.3819L59.2953 20.7832L58.8208 20.2255L58.3164 19.7142L57.7547 19.2142L57.1919 18.7596L56.5867 18.3469L55.9402 17.9774L55.2697 17.6328L54.5807 17.3187L53.8735 17.0488L53.1433 16.8188L52.396 16.6204L51.6005 16.4729L50.8084 16.3312L49.9957 16.2462L49.1818 16.2077L48.3245 16.1816L47.4705 16.2077L46.612 16.2656L45.7385 16.3664L44.8628 16.4923L43.9881 16.6612L43.0918 16.8641L42.2161 17.1112L41.3185 17.4004L40.4221 17.7064L39.5429 18.0817L38.6466 18.4728L37.7674 18.907L36.8951 19.382L36.0377 19.8775L35.1849 20.433L34.3493 21.0089L33.5549 21.6086L32.7869 22.2265L32.0545 22.8704L31.3449 23.5246L30.6778 24.2116L30.0325 24.9111L29.4479 25.6332L28.8828 26.3554L28.3406 27.0798L27.8626 27.8405L27.4053 28.5888L26.9869 29.3484L26.6132 30.1317L26.2567 30.8981L25.9621 31.6804L25.695 32.4422L25.4623 33.2256L25.2973 34.009L25.1529 34.7742L25.0509 35.5576L25.0027 36.3228L24.9844 37.0654L25.0027 37.8114L25.0921 38.5517L25.2125 39.2693L25.3581 39.996L25.5655 40.6944L25.8394 41.3553L26.1317 42.0389L26.4848 42.6806L26.8802 43.2984L27.2998 43.8766L27.7537 44.4117L28.2385 44.9242L28.7589 45.398L29.3023 45.8345L29.8651 46.2506L30.4692 46.6213L31.095 46.9682L31.7449 47.2766L32.4098 47.5464L33.117 47.7936L33.8277 48.001L34.5545 48.1643L35.3098 48.3105L36.0584 48.4352L36.8527 48.4999L37.6459 48.5396H38.4391L39.2507 48.5157L40.0909 48.4545L40.9219 48.374L41.7564 48.2289L42.5897 48.086L43.4471 47.8786L44.3011 47.6473L45.1356 47.3809L45.9907 47.0929L46.8469 46.7415L47.678 46.3957L48.5125 45.9796L49.3469 45.5488L50.1837 45.0727V43.7531L49.473 44.1238L48.7818 44.4537L48.0734 44.7632L47.3628 45.0477L46.6361 45.2949L45.9299 45.525L45.2204 45.7325L44.5085 45.8992L43.799 46.0408L43.0918 46.1486L42.4017 46.2506L41.6911 46.2903L41.0056 46.3311H40.3373L39.6473 46.3118L39.002 46.2506L38.336 46.1644L37.7078 46.0636L37.0831 45.9377L36.4779 45.7756L35.8749 45.567L35.2881 45.3629L34.7287 45.1101L34.1853 44.8437L33.6604 44.5387L33.1629 44.2258L32.6597 43.8766L32.2035 43.4821L31.7621 43.0706L31.3645 42.6375L30.9713 42.1829L30.6159 41.6875L30.2605 41.149L29.9683 40.5788L29.6989 39.996L29.4685 39.3963L29.2828 38.7784L29.1361 38.1549L29.0283 37.52L28.9699 36.8806L28.9286 36.2174V35.5576L28.9699 34.9012L29.0489 34.2164L29.1773 33.5577L29.3229 32.8741L29.5109 32.1928L29.7229 31.5103L29.9912 30.855L30.2605 30.1748L30.5953 29.5093L30.9506 28.8518L31.3243 28.192L31.7621 27.548L32.2035 26.9132L32.6826 26.2953L33.2041 25.6763L33.7475 25.0755L34.3275 24.4757L34.9316 23.8987L35.5574 23.3443L36.2245 22.8092L36.9157 22.2922L37.6253 21.7968L38.3532 21.3218L39.104 20.8888L39.857 20.4738L40.6297 20.102L41.3816 19.7732L42.1461 19.4614L42.9233 19.1996L43.6947 18.9467L44.4673 18.7415L45.241 18.5544L45.9907 18.432L46.7621 18.3119L47.5129 18.228L48.2625 18.186H48.995L49.7229 18.203L50.4325 18.2449L51.1408 18.3288L51.832 18.4524L52.4945 18.5964L53.164 18.7868L53.7898 18.9898L54.4191 19.238L55.0221 19.5045L55.6078 19.8185L56.15 20.1439L56.6704 20.5157L57.1919 20.9296L57.6505 21.3615L58.1112 21.8127L58.5296 22.3104L58.8998 22.85L59.2139 23.3239L59.4845 23.7978L59.7183 24.2728L59.9223 24.7886L60.0908 25.2829L60.2341 25.7976L60.3396 26.3372L60.4427 26.8724L60.5069 27.4268L60.5299 27.988L60.5517 28.565L60.5299 29.1432L60.4875 29.7417L60.4233 30.3369L60.3397 30.9356L60.2341 31.5545L60.0909 32.2177L59.9006 32.8741L59.6932 33.5169L59.4628 34.1336L59.214 34.7356L58.9194 35.3308L58.6088 35.9102L58.2741 36.4917L57.9015 37.0439L57.5038 37.6039L57.0877 38.139L56.6281 38.6741L56.126 39.1877L55.6079 39.7069L55.0622 40.2035L54.4777 40.6944L54.7505 40.759L55.0221 40.8021L55.2973 40.8384L55.5838 40.8826L55.899 40.9268L56.212 40.9665H56.5249H56.8355H57.2952L57.7319 40.945L58.1915 40.9031L58.6294 40.8181L58.9435 40.7592L59.2759 40.6945L59.59 40.6152L59.9006 40.5109L60.1964 40.4088L60.5069 40.2819L60.7981 40.1617L61.0916 40.0144L61.3827 39.8715L61.6555 39.7276L61.9249 39.562L62.1977 39.3784L62.4693 39.2105L62.7169 39.0224L62.9703 38.8206L63.2213 38.6131L63.4471 38.4056L63.6798 38.1812L63.9068 37.9521L64.12 37.7265L64.3252 37.4783L64.5338 37.23L64.7195 36.9828L64.8869 36.7164L65.0794 36.4466L65.2227 36.1756L65.3866 35.9104L65.5345 35.6224L65.6617 35.3311L65.7844 35.0454L65.9093 34.7359L66.0146 34.4476Z" fill="#686868"/>
<path d="M75.1904 16.6758L67.3927 40.9667H74.1292L77.1734 31.4293L77.2154 31.3695V31.328L77.3615 30.8731L77.4891 30.5891L77.6536 30.3001L77.8182 30.0294L78.0096 29.7603L78.196 29.5096L78.4226 29.2854L78.6745 29.0762L78.9264 28.8752L79.1782 28.6892L79.4687 28.5215L79.7592 28.4003L80.0528 28.274L80.364 28.1711L80.6976 28.0897L81.0352 28.0315L81.3696 28.0099L81.532 28.0315L81.68 28.0681L81.8248 28.108L81.9704 28.1711L82.1 28.2507L82.2192 28.3355L82.348 28.4168L82.4472 28.5215L82.5512 28.646L82.6408 28.749L82.7192 28.8935L82.7848 29.018L82.8288 29.1608L82.8688 29.3053L82.8904 29.4498V29.5959L82.8688 29.8865L82.8048 30.1539L79.2606 40.9666H86.0456L90.044 28.646L90.1088 28.4616L90.1696 28.274L90.208 28.0681L90.232 27.8605L90.292 27.6313L90.3392 27.3855L90.3544 27.1215L90.3776 26.8724L90.3544 26.4804L90.292 26.0869L90.208 25.7398L90.0856 25.3861L89.9192 25.0556L89.7312 24.7467L89.5048 24.4378L89.2496 24.1738L88.9992 23.9197L88.7088 23.6955L88.3984 23.5062L88.064 23.3235L87.7096 23.2006L87.3536 23.0976L86.9792 23.013L86.5816 22.9715H86.3936L86.2288 22.9299H86.1464H86.0824H86.0456H85.9936L85.4768 22.9499L84.9744 22.9914L84.4976 23.0528L83.9936 23.1392L83.5184 23.2388L83.0536 23.385L82.5984 23.5245L82.1416 23.7138L81.7 23.9197L81.2784 24.1273L80.864 24.3731L80.4712 24.6239L80.0728 24.9111L79.7188 25.2018L79.368 25.5306L79.0288 25.8594L81.932 16.6758H75.1904ZM46.1355 22.8103L45.6956 22.8236L45.2405 22.8486L44.8006 22.8867L44.3624 22.9482L43.9241 22.9914L43.4875 23.0778L43.0912 23.1574L42.69 23.2388L42.2988 23.3634L41.9209 23.4879L41.5667 23.6141L41.2107 23.7569L40.858 23.8981L40.5223 24.0857L40.1881 24.2535L39.8792 24.4378L39.5652 24.6454L39.2512 24.848L38.959 25.0555L38.6904 25.2815L38.3982 25.5123L38.143 25.758L37.876 25.9823L37.6258 26.233L37.3975 26.4987L37.1422 26.7893L36.8954 27.0966L36.6452 27.4271L36.3951 27.8007L36.1432 28.1926L42.5271 28.8751L42.7957 28.5048L43.066 28.171L43.3616 27.9036L43.632 27.6761L43.8418 27.5483L44.05 27.4055L44.3237 27.2643L44.6344 27.1364L44.9668 27.0401L45.3026 26.9554L45.6334 26.8972L45.9911 26.8507H46.3655L46.7164 26.8723L46.928 26.8972L47.1362 26.9554L47.3427 26.9935L47.5744 27.0799L47.8044 27.163L48.0328 27.2643L48.2628 27.3656L48.4728 27.4669L48.4912 27.6762L48.5131 27.8821L48.4912 28.0897L48.4728 28.2923L48.4308 28.5048L48.3686 28.6891L48.2813 28.8751L48.1973 29.0628L47.5542 29.2837L46.9061 29.4763L46.2764 29.6375L45.6535 29.7803L45.3026 29.8616L44.8442 29.9895L44.28 30.1123L43.6319 30.2369L43.2994 30.3183L42.9652 30.3781L42.5892 30.4429L42.1912 30.5243L41.7765 30.5891L41.36 30.6671L40.8983 30.7518L40.4416 30.8331L39.6272 30.9975L38.8767 31.1835L38.1715 31.3911L37.5216 31.6153L36.9356 31.8644L36.395 32.1351L35.8946 32.4042L35.453 32.7114L35.0803 33.0419L34.7293 33.374L34.3885 33.7227L34.0796 34.0947L33.9536 34.3007L33.8076 34.5099L33.7051 34.7142L33.5775 34.9417L33.4717 35.1841L33.3692 35.4199L33.2836 35.6873L33.2048 35.9563L33.1359 36.2171L33.1006 36.4679L33.0587 36.7153L33.0352 36.9644V37.1886L33.0587 37.4144L33.0772 37.6419L33.1175 37.8678L33.1796 38.0754L33.2434 38.2813L33.3056 38.4922L33.3929 38.6931L33.497 38.8858L33.5944 39.0635L33.7204 39.2312L33.848 39.4206L33.994 39.5866L34.1435 39.7477L34.3046 39.9138L34.4944 40.0583L34.6841 40.2044L34.8705 40.3256L35.1005 40.4551L35.3272 40.5515L35.5824 40.6544L35.8528 40.7341L36.1651 40.8022L36.4774 40.8653L36.8333 40.9019L37.2296 40.9451L37.646 40.965H38.0826H38.6669L39.2294 40.9451L39.812 40.8819L40.3762 40.779L40.922 40.6727L41.4626 40.5332L41.9798 40.3639L42.4667 40.1795L42.7572 40.0799L43.0241 39.9503L43.3196 39.8075L43.632 39.6431L44.092 39.3973L44.5488 39.125L45.0055 38.8211L45.4689 38.4491L45.4051 38.65L45.3648 38.8393L45.3412 39.022V39.2312V39.5617L45.405 39.8939L45.4487 40.0383L45.5075 40.1795L45.5696 40.3256L45.6536 40.4718V40.5116H46.8676H50.1822H51.5556H52.1601L52.0997 40.3639L52.0594 40.2044L52.0224 40.0135L51.9972 39.8307L51.9788 39.6248L51.9972 39.4206L52.0224 39.2113L52.0828 39.0038L52.6638 37.1671L53.1844 35.5412L53.6679 34.0748L54.0826 32.7928L54.4588 31.6586L54.7728 30.6671L55.0616 29.8035L55.2966 29.0629L55.3588 28.8503L55.394 28.666L55.4377 28.4617L55.4596 28.2508L55.4796 27.9037V27.6762L55.4596 27.2461L55.394 26.8094L55.3135 26.3959L55.1674 26.0089L55.0028 25.6319L54.7879 25.2616L54.5612 24.9311L54.2926 24.6239L54.0021 24.315L53.6881 24.0643L53.3523 23.8168L52.9997 23.6142L52.6219 23.4464L52.2256 23.3036L51.8109 23.2007L51.371 23.1193L50.9512 23.0529L50.4744 22.9915L49.9538 22.9316L49.4081 22.8868L48.849 22.8487L48.263 22.8238L47.6568 22.8105H47.0322H46.594L46.1355 22.8103ZM125.672 22.8103L125.236 22.8236L124.774 22.8486L124.338 22.8867L123.898 22.9315L123.459 22.9913L123.024 23.0776L122.608 23.1573L122.232 23.2619L121.834 23.3632L121.461 23.4878L121.109 23.614L120.726 23.7568L120.395 23.898L120.062 24.0641L119.728 24.2534L119.416 24.4377L119.102 24.6237L118.786 24.828L118.501 25.0372L118.222 25.2614L117.937 25.4873L117.666 25.7397L117.413 25.9672L117.161 26.2113L116.91 26.4987L116.662 26.7892L116.414 27.0965L116.184 27.427L115.934 27.8006L115.678 28.1925L122.046 28.8751L122.338 28.5047L122.608 28.1709L122.875 27.9035L123.17 27.676L123.354 27.5482L123.568 27.4054L123.858 27.2642L124.168 27.1363L124.482 27.04L124.816 26.9553L125.172 26.8971L125.526 26.8507H125.881L126.255 26.8723L126.653 26.9553L127.11 27.0799L127.345 27.163L127.57 27.246L127.8 27.344L128.008 27.4503L128.033 27.6562V27.8588V28.0896L128.008 28.2923L127.966 28.5048L127.902 28.6891L127.82 28.8751L127.738 29.0628L127.071 29.2837L126.445 29.4763L125.818 29.6374L125.194 29.7803L124.816 29.8616L124.359 29.9895L123.817 30.1123L123.17 30.2369L122.836 30.3183L122.484 30.378L122.106 30.4428L121.73 30.5242L121.31 30.589L120.872 30.6671L120.437 30.7518L119.978 30.8331L119.162 30.9975L118.394 31.1835L117.703 31.3911L117.058 31.6153L116.454 31.8644L115.906 32.1351L115.433 32.4041L114.994 32.7114L114.595 33.0419L114.241 33.3739L113.929 33.7227L113.613 34.0947L113.469 34.3007L113.346 34.5099L113.217 34.7141L113.116 34.9416L113.01 35.1841L112.902 35.4199L112.804 35.6873L112.714 35.9563L112.674 36.2171L112.614 36.4678L112.592 36.7153L112.569 36.9643V37.1886L112.592 37.4144L112.614 37.6419L112.656 37.8678L112.694 38.0754L112.76 38.2813L112.846 38.4922L112.93 38.6931L113.032 38.8858L113.136 39.0635L113.24 39.2312L113.365 39.4205L113.532 39.5866L113.675 39.7477L113.846 39.9137L114.011 40.0583L114.202 40.2043L114.41 40.3256L114.614 40.4551L114.87 40.5515L115.116 40.6544L115.384 40.7341L115.678 40.8022L116.014 40.8653L116.368 40.9019L116.765 40.9451L117.161 40.9649H117.621H118.182L118.766 40.9451L119.33 40.8819L119.893 40.779L120.458 40.6727L120.978 40.5332L121.502 40.3638L122 40.1795L122.294 40.0799L122.564 39.9503L122.858 39.8075L123.17 39.6431L123.606 39.3973L124.089 39.1249L124.544 38.8211L125.006 38.4491L124.943 38.6499L124.9 38.8393L124.88 39.0219L124.856 39.2312L124.88 39.5617L124.943 39.8939L124.984 40.0383L125.05 40.1795L125.11 40.3256L125.194 40.4718V40.5116H126.381H129.717H131.096H131.702L131.642 40.3639L131.578 40.1795L131.553 39.9968L131.51 39.7942V39.5867L131.534 39.3774L131.553 39.1881L131.601 39.0037L132.202 37.167L132.722 35.5412L133.186 34.0748L133.602 32.7927L133.954 31.6585L134.267 30.6671L134.538 29.8035L134.788 29.0629L134.894 28.6659L134.974 28.2508L134.994 27.9037L135.016 27.6762L134.994 27.2461L134.936 26.8093L134.828 26.3958L134.704 26.0089L134.538 25.6319L134.33 25.2615L134.101 24.9311L133.829 24.6239L133.534 24.315L133.225 24.0642L132.89 23.8167L132.533 23.6142L132.14 23.4464L131.744 23.3036L131.347 23.2007L130.907 23.1193L130.47 23.0529L129.99 22.9914L129.492 22.9316L128.948 22.8868L128.382 22.8487L127.799 22.8237L127.195 22.8104H126.566H126.132L125.672 22.8103ZM94.9448 22.9299L90.92 35.2738L90.8512 35.4781L90.816 35.6873L90.776 35.8716L90.752 36.0759L90.6904 36.3217L90.6496 36.5691L90.6096 36.7967V37.0441L90.6312 37.4377L90.6904 37.8113L90.776 38.1816L90.9016 38.5321L91.0456 38.8575L91.2344 39.188L91.4624 39.4819L91.6888 39.7477L91.9608 39.9968L92.2552 40.2227L92.5656 40.4303L92.9032 40.593L93.2576 40.7208L93.612 40.8171L93.988 40.9019L94.3792 40.9267L94.5504 40.9667H94.7568H94.8024H94.8408H94.9032H94.9232H94.992H95.4904L95.9872 40.9267L96.468 40.8653L96.9464 40.759L97.428 40.6544L97.888 40.5331L98.3464 40.3638L98.8032 40.2043L99.2432 39.9967L99.6616 39.7925L100.078 39.5434L100.494 39.2943L100.869 39.0219L101.248 38.7396L101.622 38.4258L101.955 38.0969L101.181 40.5099H107.858L113.633 22.9299H106.856L103.748 32.4855L103.71 32.6083L103.582 33.0235L103.454 33.3275L103.314 33.6214L103.147 33.8887L102.954 34.1545L102.75 34.4052L102.516 34.6295L102.291 34.8603L102.039 35.0446L101.769 35.2306L101.473 35.3967L101.181 35.5163L100.869 35.6458L100.558 35.7438L100.242 35.8284L99.9096 35.8716L99.5608 35.9098L99.4096 35.8849L99.2648 35.845L99.1176 35.8035L98.9712 35.7438L98.8472 35.6873L98.7224 35.5993L98.6168 35.5162L98.5096 35.4199L98.4072 35.2903L98.3264 35.1841L98.2648 35.0446L98.2024 34.92L98.1416 34.7755L98.1184 34.6078L98.0952 34.4633L98.076 34.3006L98.1184 34.0315L98.1808 33.7608L101.682 22.9299L94.9448 22.9299ZM47.2201 32.3377L46.9061 33.3939L46.802 33.6795L46.6778 33.9519L46.5519 34.2176L46.4293 34.4634L46.2765 34.7142L46.1355 34.9417L45.9676 35.1642L45.7996 35.3552L45.6334 35.5411L45.4688 35.7255L45.2573 35.8849L45.0491 36.0743L44.8442 36.2419L44.594 36.3848L44.3237 36.5276L44.05 36.6738L43.8418 36.7751L43.632 36.8581L43.4036 36.9428L43.1702 37.0043L42.9435 37.0641L42.7152 37.1073L42.2332 37.1887L41.7765 37.2301H41.5247L41.2728 37.2085L41.0646 37.1671L40.8799 37.1289L40.7136 37.0641L40.5642 36.9827L40.4416 36.8582L40.2956 36.7153L40.2116 36.5891L40.1276 36.4463L40.0655 36.3002L40.0236 36.1358L40.0017 35.9564V35.7887L40.0454 35.5994L40.1092 35.3951L40.1696 35.2323L40.2704 35.0663L40.3761 34.9201L40.4836 34.7524L40.6297 34.6079L40.7724 34.4635L40.9219 34.3422L41.0848 34.2176L41.2728 34.1147L41.5062 33.9918L41.7765 33.8888L42.0653 33.761L42.7772 33.5351L43.6319 33.2877L43.8418 33.2262L44.092 33.1664L44.4883 33.0834L44.8862 32.9837L45.2757 32.8741L45.677 32.7927L46.0716 32.6915L46.446 32.5652L46.8474 32.4623L47.2201 32.3377ZM126.757 32.3377L126.445 33.3939L126.298 33.7875L126.132 34.1744L125.919 34.5464L125.696 34.9002L125.439 35.2323L125.172 35.5411L124.856 35.8285L124.544 36.0959L124.188 36.3217L123.837 36.5492L123.459 36.7352L123.048 36.9029L122.648 37.0242L122.206 37.1288L121.77 37.2084L121.31 37.2533H121.039H120.811L120.605 37.2084L120.417 37.147L120.25 37.0855L120.102 36.9826L119.958 36.858L119.832 36.7152L119.75 36.589L119.662 36.4462L119.606 36.3L119.562 36.1356L119.543 35.9563V35.7885L119.582 35.5992L119.646 35.3949L119.706 35.2322L119.79 35.0661L119.893 34.9199L120.018 34.7523L120.146 34.6078L120.292 34.4633L120.458 34.342L120.625 34.2175L120.811 34.1146L121.039 33.9916L121.291 33.8887L121.602 33.7608L122.294 33.535L123.17 33.2875L123.378 33.226L123.626 33.1663L124.023 33.0832L124.419 32.9835L124.816 32.8739L125.212 32.7926L125.588 32.6913L125.984 32.5651L126.381 32.4621L126.757 32.3377Z" fill="#686868"/>
<path d="M92.944 46.9067V46.1494H94.864V47.7535V47.9451V48.5766H94.1528V48.3113L93.8824 48.4349L93.5912 48.5392L93.4416 48.5766L93.2776 48.6038L93.132 48.6185H92.9848L92.6296 48.6038L92.3192 48.5562L92.1736 48.5154L92.0272 48.4542L91.9008 48.3952L91.776 48.3317L91.6488 48.2512L91.5256 48.1639L91.4208 48.0868L91.3152 47.9803L91.236 47.8544L91.1488 47.7535L91.0688 47.6287L91.0056 47.4871L90.8776 47.2172L90.792 46.9066L90.752 46.6209L90.7336 46.2899L90.752 45.96L90.8152 45.6335L90.9008 45.3364L91.0288 45.0474L91.1048 44.9238L91.192 44.8036L91.276 44.6835L91.3792 44.5791L91.4848 44.4715L91.612 44.3694L91.7344 44.2867L91.88 44.2255L92.0872 44.1246L92.3384 44.0373L92.6296 43.9964H92.9208H93.132L93.32 44.0226L93.4848 44.0373L93.6552 44.0803L93.8192 44.1246L93.964 44.179L94.0912 44.2686L94.2176 44.3479L94.3192 44.4318L94.4232 44.5395L94.5072 44.6347L94.5912 44.764L94.656 44.8887L94.7184 45.0077L94.7568 45.1528L94.8016 45.3195L94.0496 45.4646L93.9872 45.2946L93.9032 45.1528L93.7976 45.0327L93.6728 44.9239L93.5088 44.8433L93.3392 44.7821L93.1512 44.7436H92.9208H92.7776L92.6512 44.764L92.5056 44.8037L92.3808 44.8434L92.2552 44.9057L92.152 44.967L92.0472 45.0475L91.9616 45.1347L91.8592 45.2606L91.7944 45.3819L91.7344 45.5078L91.6888 45.6483L91.6488 45.8139L91.6304 45.9601L91.612 46.1234V46.3115V46.4736L91.6304 46.6426L91.6488 46.7831L91.6888 46.9464L91.7344 47.0927L91.7944 47.2174L91.88 47.3432L91.9616 47.4645L92.0472 47.5461L92.152 47.6288L92.2552 47.6901L92.3808 47.7536L92.5056 47.7944L92.6512 47.8341L92.7776 47.8545H92.9208L93.1512 47.8341L93.3392 47.8171L93.5088 47.7944L93.6728 47.7536L93.7976 47.6901L93.9224 47.6288L94.0312 47.5461L94.1528 47.4645V46.9067L92.944 46.9067ZM85.5376 46.3307V46.1867L85.56 46.019L85.6008 45.8739L85.6208 45.7083L85.7456 45.3819L85.8944 45.0735L85.976 44.9239L86.0616 44.7821L86.164 44.6619L86.2888 44.5395L86.416 44.4318L86.5408 44.3298L86.6856 44.2493L86.8104 44.1654L87.0408 44.103L87.2696 44.0373L87.4968 43.9965H87.7712H88.024L88.2488 44.0373L88.4792 44.103L88.6904 44.179L88.872 44.2685L89.0616 44.3887L89.2336 44.5123L89.3952 44.6835L89.5248 44.8433L89.6472 45.0077L89.7528 45.1925L89.8584 45.3988L89.92 45.6335L89.96 45.8591L90.004 46.0779V46.3115V46.5597L89.96 46.7831L89.92 47.0098L89.8584 47.2172L89.7528 47.4235L89.6472 47.6118L89.5408 47.7943L89.3952 47.9598L89.2496 48.1027L89.0616 48.2296L88.8976 48.3532L88.6904 48.4541L88.4792 48.5153L88.2488 48.5766L88.024 48.6185H87.7712H87.5392L87.3104 48.5766L87.0816 48.5153L86.8768 48.4541L86.6648 48.3532L86.4776 48.2511L86.3104 48.1027L86.164 47.9598L86.0216 47.7943L85.8944 47.6287L85.7888 47.444L85.704 47.2388L85.6432 47.0313L85.5816 46.8091L85.56 46.5755L85.5376 46.3307ZM86.4584 46.3115L86.4776 46.5994L86.5408 46.8659L86.5808 47.0098L86.6432 47.1356L86.704 47.2615L86.7896 47.3612L86.8768 47.4644L86.9784 47.5687L87.0816 47.648L87.2072 47.7161L87.3344 47.7728L87.456 47.817L87.624 47.834L87.7712 47.8544L87.9384 47.834L88.0872 47.817L88.2304 47.7728L88.3544 47.7161L88.4792 47.648L88.5872 47.5687L88.6672 47.4644L88.7712 47.3612L88.836 47.2388L88.8976 47.1163L88.956 46.9894L89 46.8659L89.0616 46.5756L89.0864 46.2899L89.0616 45.9986L89 45.7321L88.956 45.5893L88.8976 45.4646L88.836 45.3626L88.7712 45.2379L88.6904 45.1347L88.5872 45.0474L88.4792 44.9668L88.3544 44.9056L88.2304 44.8433L88.0872 44.8036L87.9384 44.7821L87.7704 44.764L87.6032 44.7821L87.4552 44.8036L87.3096 44.8433L87.1864 44.9056L87.0816 44.9668L86.956 45.0474L86.8768 45.1528L86.7896 45.2605L86.704 45.3626L86.6432 45.4839L86.5808 45.6063L86.5408 45.7321L86.4776 46.019L86.4584 46.3115ZM72.6459 48.5562V44.0577H73.4196L75.5058 47.0744V44.0577H76.3414V48.5562H75.5242L73.4804 45.6335V48.5562H72.6459ZM67.7674 48.5562V44.0577H68.6661V45.8353H70.687V44.0577H71.5615V48.5562H70.687V46.5994H68.6661V48.5562H67.7674ZM58.8622 48.5562V44.0577H62.1336V44.8251H59.7562V45.8138H61.9674V46.5756H59.7562V47.7943H62.2195V48.5562H58.8622ZM96.6976 48.5562V46.6607L95.092 44.0577H96.1352L97.1576 45.8353L98.18 44.0577H99.2024L97.5944 46.6822V48.5562H96.6976ZM82.388 48.5562V44.103H83.288V47.7943H85.2888V48.5562H82.388ZM77.2149 46.3307V46.1867L77.2355 46.019L77.2573 45.8739L77.2997 45.7083L77.4051 45.3819L77.5507 45.0735L77.6538 44.9238L77.7375 44.7821L77.8418 44.6619L77.969 44.5395L78.0676 44.4318L78.2178 44.3298L78.3427 44.2492L78.4871 44.1653L78.6969 44.103L78.9262 44.0373L79.1783 43.9964H79.4466H79.6965L79.9269 44.0373L80.1528 44.103L80.3632 44.1789L80.5536 44.2685L80.7384 44.3887L80.9088 44.5123L81.072 44.6834L81.1992 44.8433L81.3208 45.0076L81.4288 45.1924L81.5096 45.3987L81.5968 45.6335L81.636 45.8591L81.6808 46.0779V46.3114V46.5597L81.636 46.783L81.5968 47.0098L81.5096 47.2172L81.4288 47.4235L81.3208 47.6118L81.1992 47.7943L81.072 47.9598L80.9088 48.1027L80.7384 48.2296L80.5536 48.3531L80.3632 48.4541L80.1528 48.5153L79.9269 48.5765L79.6965 48.6184H79.4466H79.2185L78.9674 48.5765L78.7611 48.5153L78.5514 48.4541L78.3427 48.3531L78.1525 48.2511L77.9874 48.1027L77.8418 47.9598L77.6951 47.7943L77.5724 47.6287L77.4647 47.4439L77.3856 47.2387L77.2996 47.0313L77.2573 46.8091L77.2149 46.5755V46.3307ZM78.133 46.3115L78.1526 46.5994L78.2179 46.8658L78.2591 47.0098L78.3222 47.1356L78.3806 47.2615L78.4712 47.3612L78.5514 47.4644L78.65 47.5687L78.7612 47.648L78.8643 47.716L79.0099 47.7727L79.1337 47.817L79.3034 47.8339L79.4466 47.8544L79.6128 47.8339L79.7595 47.817L79.9051 47.7727L80.0312 47.716L80.1528 47.648L80.2624 47.5687L80.344 47.4644L80.428 47.3612L80.5128 47.2388L80.572 47.1163L80.6368 46.9894L80.6768 46.8658L80.7384 46.5755L80.76 46.2899L80.7384 45.9985L80.6768 45.7321L80.6368 45.5893L80.572 45.4646L80.5128 45.3625L80.452 45.2378L80.344 45.1347L80.2624 45.0474L80.1528 44.9668L80.0312 44.9056L79.9051 44.8433L79.7595 44.8036L79.6128 44.7821L79.4466 44.7639L79.2793 44.7821L79.1337 44.8036L78.987 44.8433L78.8643 44.9056L78.7382 44.9668L78.6339 45.0474L78.5514 45.1528L78.4459 45.2605L78.3806 45.3625L78.3222 45.4839L78.2591 45.6063L78.2178 45.7321L78.1525 46.0189L78.133 46.3115ZM65.9701 46.9066L66.8882 47.1742L66.847 47.3612L66.7668 47.529L66.7026 47.6707L66.6177 47.817L66.5122 47.9598L66.4102 48.0584L66.3048 48.1639L66.1798 48.2704L66.0549 48.3531L65.9093 48.4348L65.7638 48.4995L65.617 48.5391L65.4508 48.5766L65.2846 48.6038L65.1207 48.6185H64.9281H64.6794L64.4685 48.6038L64.2622 48.5391L64.0524 48.4756L63.8644 48.3951L63.6798 48.2908L63.5079 48.1639L63.3658 48.0255L63.2214 47.8543L63.0953 47.6707L62.9886 47.4643L62.8866 47.2614L62.8224 47.0313L62.7788 46.783L62.7375 46.5596V46.3114L62.7582 46.0779L62.7788 45.8352L62.8224 45.6062L62.9073 45.3817L62.9886 45.1743L63.0953 44.9668L63.2214 44.782L63.3658 44.6222L63.532 44.4714L63.6982 44.3478L63.8839 44.2492L64.0719 44.1438L64.2839 44.0803L64.5143 44.0371L64.7413 43.9963H64.9729H65.1986L65.3866 44.0224L65.5976 44.0575L65.7638 44.1244L65.9506 44.1789L66.0974 44.2684L66.2658 44.3693L66.3862 44.4714L66.5582 44.6346L66.6819 44.8251L66.7839 45.0473L66.8882 45.2944L65.93 45.5246L65.8864 45.3624L65.8038 45.2162L65.7018 45.0734L65.5758 44.9668L65.4302 44.8886L65.2846 44.8251L65.1207 44.7819L64.9281 44.7639L64.8043 44.7819H64.6794L64.5522 44.8251L64.449 44.8635L64.3435 44.9055L64.2415 44.9667L64.159 45.0324L64.0718 45.1344L63.9687 45.2603L63.8838 45.3816L63.8219 45.5244L63.7624 45.6934L63.7188 45.8351L63.6798 45.9983L63.6592 46.1639V46.3305V46.4903L63.6798 46.6604L63.7188 46.8089L63.7624 46.9676L63.8219 47.1162L63.8838 47.2386L63.9687 47.3803L64.0718 47.4869L64.159 47.5685L64.2415 47.6479L64.3435 47.7159L64.449 47.7532L64.5522 47.7941L64.6587 47.8338L64.7826 47.8542H64.9052L65.0943 47.8338L65.264 47.7941L65.4302 47.7339L65.5758 47.6285L65.7018 47.4868L65.8038 47.3213L65.8864 47.1354L65.9701 46.9066ZM55.7707 48.5562V44.8251H54.4766V44.0576H57.9841V44.8251H56.6694V48.5562H55.7707Z" fill="#686868"/>
</svg>
