<svg width="160" height="64" viewBox="0 0 160 64" fill="none" xmlns="http://www.w3.org/2000/svg">
<mask id="mask0_119_2380" style="mask-type:luminance" maskUnits="userSpaceOnUse" x="8" y="23" width="144" height="19">
<path d="M152 23.2H8V41.6H152V23.2Z" fill="white"/>
</mask>
<g mask="url(#mask0_119_2380)">
<path d="M64.2218 24.9239V24.3449L63.9718 24.1772H54.0078L53.8418 24.3429V24.9239L54.0078 25.0896H58.2418L58.4078 25.2553V37.3583L58.5738 37.524H59.3218L59.4878 37.3583V25.3392L59.6538 25.1715H63.9738L64.2218 24.9239ZM66.4658 27.8268C63.8078 27.8268 62.2258 29.7315 62.2258 32.4668V32.8841C62.2258 35.5374 63.5558 37.8554 66.6298 37.8554C69.2878 37.8554 70.2838 36.1144 70.4498 34.9544L70.2858 34.7907H69.5358L69.3718 34.9544C68.9558 36.1144 68.2058 36.8611 66.7118 36.8611C64.2198 36.8611 63.4718 34.5392 63.4718 33.3792L63.6418 33.2155H70.5318L70.6998 33.0477V32.4668C70.6998 29.7315 69.2058 27.8268 66.4658 27.8268ZM66.4658 28.8211C67.6278 28.8211 68.3938 29.2983 68.8718 29.9392C69.3498 30.582 69.5358 31.3906 69.5358 32.0535L69.3718 32.2212H63.5598L63.3918 32.0535C63.3918 31.3906 63.5778 30.582 64.0558 29.9392C64.5318 29.2983 65.3018 28.8211 66.4658 28.8211ZM72.6098 32.8002C72.6098 30.1448 73.9378 28.7372 75.8498 28.7372C77.7578 28.7372 78.5058 29.8973 78.7538 31.0592L78.9198 31.2249H79.7518L79.9178 31.0592C79.7518 29.1525 78.1738 27.8249 75.8478 27.8249C73.3558 27.8249 71.4478 29.4021 71.4478 32.8002C71.4478 36.2821 73.3558 37.7736 75.8478 37.7736C78.1738 37.7736 79.6678 36.4478 79.9178 34.5392L79.7518 34.3754H79.0038L78.8378 34.5412C78.6718 35.6992 77.8418 36.8611 75.9318 36.8611C74.0218 36.8611 72.6098 35.5354 72.6098 32.8002ZM89.218 37.4421V31.6382C89.218 29.1525 87.89 27.8249 85.73 27.8249C84.402 27.8249 83.2396 28.4038 82.658 29.4021H82.4916V24.4248L82.242 24.1752H81.4956L81.33 24.3409V37.4381L81.4956 37.6058H82.242L82.4076 37.4401V32.2172C82.4076 30.0609 83.406 28.7353 85.482 28.7353C87.0596 28.7353 87.9716 29.7295 87.9716 31.6362V37.4401L88.138 37.6058H88.886L89.218 37.4421ZM99.018 37.4421V31.6382C99.018 29.1525 97.69 27.8249 95.53 27.8249C94.202 27.8249 93.038 28.4038 92.458 29.4021H92.2916L92.126 28.2401L91.9596 28.0744H91.378L91.2116 28.2401V37.4421L91.378 37.6078H92.126L92.2916 37.4421V32.2172C92.2916 30.0609 93.2876 28.7353 95.3636 28.7353C96.942 28.7353 97.8556 29.7295 97.8556 31.6362V37.4401L98.022 37.6058H98.8516L99.018 37.4421ZM104.582 27.9087C102.092 27.9087 100.182 29.6517 100.182 32.8841C100.182 36.1185 102.092 37.8554 104.582 37.8554C107.072 37.8554 108.986 36.1185 108.986 32.8841C108.986 29.6497 107.074 27.9087 104.582 27.9087ZM104.582 28.8211C105.538 28.8211 106.348 29.2165 106.918 29.9192C107.49 30.626 107.82 31.6402 107.82 32.8841C107.82 34.1279 107.49 35.1421 106.92 35.8469C106.348 36.5517 105.538 36.945 104.582 36.945C104.134 36.9529 103.691 36.8581 103.285 36.6677C102.88 36.4773 102.524 36.1965 102.246 35.8469C101.676 35.1441 101.346 34.1279 101.346 32.8841C101.346 31.5983 101.676 30.584 102.246 29.8892C102.818 29.1944 103.626 28.8211 104.582 28.8211ZM111.558 37.4421V24.3449L111.308 24.1772H110.562L110.394 24.3429V37.4421L110.562 37.6078H111.308L111.558 37.4421ZM117.29 27.9087C114.798 27.9087 112.888 29.6517 112.888 32.8841C112.888 36.1185 114.798 37.8554 117.288 37.8554C119.778 37.8554 121.688 36.1185 121.688 32.8841C121.688 29.6497 119.782 27.9087 117.29 27.9087ZM117.29 28.8211C118.244 28.8211 119.05 29.2165 119.622 29.9192C120.192 30.626 120.528 31.6402 120.528 32.8841C120.528 34.1279 120.192 35.1421 119.622 35.8469C119.344 36.1965 118.988 36.4774 118.584 36.6678C118.18 36.8583 117.737 36.9531 117.29 36.945C116.842 36.9529 116.399 36.8581 115.993 36.6677C115.588 36.4773 115.232 36.1965 114.954 35.8469C114.38 35.1421 114.044 34.1279 114.044 32.8841C114.044 31.5983 114.378 30.584 114.95 29.8892C115.52 29.1944 116.33 28.8211 117.286 28.8211H117.29ZM126.754 27.8268C124.096 27.8268 122.684 29.9791 122.684 32.7982C122.684 35.6992 124.014 37.7736 126.754 37.7736C128.498 37.7736 129.414 37.0269 129.828 36.1983V36.2801C129.828 38.7678 129.248 40.6745 126.922 40.6745C125.178 40.6745 124.596 39.9318 124.43 38.9375L124.262 38.7678H123.516L123.348 38.9355C123.514 40.5128 124.68 41.5869 127.004 41.5869C129.496 41.5869 131.074 40.0117 131.074 36.1983V28.2401L130.906 28.0764H130.326L130.16 28.2401L129.992 29.4021H129.828C129.414 28.6554 128.498 27.8249 126.754 27.8249V27.8268ZM126.754 28.7392C127.71 28.7392 128.478 29.0667 129.008 29.7415C129.538 30.4144 129.828 31.4305 129.828 32.7982C129.828 34.1658 129.538 35.182 129.008 35.8548C128.478 36.5297 127.708 36.8611 126.754 36.8611C125.8 36.8611 125.03 36.5297 124.5 35.8548C123.97 35.182 123.684 34.1658 123.684 32.7982C123.684 31.4725 123.97 30.4563 124.5 29.7714C125.03 29.0886 125.8 28.7392 126.754 28.7392ZM134.062 26.3334V25.1734L133.896 25.0077H133.15L132.9 25.1734V26.3334L133.066 26.4992H133.814L134.062 26.3334ZM134.062 37.4421V28.2401L133.896 28.0744H133.15L132.9 28.2401V37.4421L133.066 37.6078H133.814L134.062 37.4421ZM139.626 27.8268C136.968 27.8268 135.392 29.7315 135.392 32.4668V32.8861C135.392 35.5374 136.72 37.8574 139.792 37.8574C142.452 37.8574 143.448 36.1144 143.614 34.9544L143.446 34.7907H142.7L142.532 34.9544C142.116 36.1144 141.372 36.8611 139.876 36.8611C137.384 36.8611 136.636 34.5392 136.636 33.3792L136.806 33.2155H143.696L143.864 33.0477V32.4688C143.864 29.8134 142.284 27.8268 139.626 27.8268ZM139.626 28.8211C140.788 28.8211 141.558 29.2983 142.036 29.9392C142.514 30.582 142.7 31.3906 142.7 32.0555L142.532 32.2212H136.72L136.556 32.0535C136.556 31.3906 136.742 30.582 137.22 29.9392C137.698 29.2983 138.464 28.8211 139.626 28.8211ZM152 35.1201C152 33.3792 151.004 32.6345 149.094 32.2192C147.184 31.8039 146.022 31.6402 146.022 30.3125C146.022 29.3182 146.768 28.7372 148.182 28.7372C149.924 28.7372 150.506 29.484 150.506 30.4782L150.672 30.644H151.42L151.586 30.4782C151.586 28.5716 150.006 27.8249 148.098 27.8249C145.938 27.8249 144.858 28.9869 144.858 30.3125C144.858 31.8877 146.022 32.6345 147.932 32.9659C149.842 33.3792 150.838 33.5449 150.838 35.1221C150.838 36.1165 150.258 36.8611 148.346 36.8611C146.602 36.8611 145.856 35.8668 145.856 34.7048L145.688 34.5412H144.942L144.776 34.7069C144.776 36.4478 146.104 37.7736 148.43 37.7736C150.838 37.8574 152 36.6954 152 35.1201Z" fill="#686868"/>
<path d="M53.758 34.7808V37.524H45.118V23.9975H48.258V34.7788L53.758 34.7808ZM27.636 23.2129L19.98 29.0967C19.194 26.1558 16.64 23.9975 13.5 23.9975H8V37.524H13.5C16.64 37.524 19.39 35.3678 19.98 32.4269L27.636 38.3087L35.296 32.4269V37.524H43.936V34.7788H38.246V23.9975H35.1V29.0927L27.834 34.9785L26.264 33.6048L29.8 30.8596L33.532 27.9187L31.372 26.1578L24.106 31.8379L22.536 30.4663L29.8 24.9759L27.64 23.2129H27.636ZM10.944 26.7428H13.3C13.79 26.7428 14.272 26.8526 14.714 27.0543C15.156 27.2559 15.562 27.5534 15.906 27.9187C16.25 28.2881 16.53 28.7254 16.726 29.2225C16.922 29.7176 17.03 30.2727 17.03 30.8596C17.03 31.3987 16.934 31.9238 16.754 32.4109C16.572 32.8981 16.308 33.3453 15.974 33.7267C15.644 34.106 15.248 34.4175 14.796 34.6351C14.346 34.8527 13.84 34.9745 13.3 34.9745H10.944V26.7428Z" fill="#686868"/>
</g>
</svg>
