<svg width="160" height="64" viewBox="0 0 160 64" fill="none" xmlns="http://www.w3.org/2000/svg">
<mask id="mask0_119_2387" style="mask-type:luminance" maskUnits="userSpaceOnUse" x="8" y="23" width="144" height="18">
<path d="M152 23.2H8V40.8H152V23.2Z" fill="white"/>
</mask>
<g mask="url(#mask0_119_2387)">
<path d="M101.37 40.1577H97.4064V23.8452L110.154 23.8555C110.154 23.8555 112.488 23.7684 113.973 25.247C113.973 25.247 115.488 26.5231 115.488 29.6422V40.1549H111.535V29.3705C111.535 29.3705 111.583 28.2705 111.213 27.8845C111.213 27.8845 110.883 27.4657 110.258 27.4657H101.361L101.37 40.1521L101.37 40.1577ZM118.243 40.1549V23.8575H134.15V27.4825L122.182 27.4816V30.2531H130.496V33.7536H122.182V36.5345H134.224V40.1605H118.234L118.243 40.1549ZM90.4992 40.1549V23.8575H94.4464V40.1605H90.4992V40.1549ZM139.831 40.1549V27.4779H136.106V23.8527H150.925V27.4779H143.781V40.1549H139.834H139.831ZM77.4639 40.1549V27.4779H73.7382V23.8527H88.5576V27.4779H81.4136V40.1549H77.4667H77.4639ZM65.5619 30.2419C66.5263 30.2343 67.1033 30.2428 67.3356 30.1004C67.3356 30.1004 67.7407 29.8746 67.7454 29.3892L67.7462 28.323C67.7462 27.8358 67.3366 27.6119 67.3366 27.6119C67.029 27.4431 66.5078 27.4751 65.2692 27.4741H57.5798V30.2419H65.7384H65.5619ZM67.6886 40.1549V34.5912C67.6886 34.0909 67.2742 33.8819 67.2742 33.8819C67.0875 33.7648 66.5273 33.7433 65.7031 33.7433H65.8946H57.5798V40.1539H53.6329V23.8565H65.953C68.0807 23.8631 69.5497 24.1788 70.5615 25.1691C71.5557 26.1904 71.6876 27.5266 71.6932 28.917V30.0779C71.7062 31.2594 71.0902 32.3369 70.3562 32.9647L70.5039 33.0387C70.803 33.1848 70.9675 33.3919 70.9675 33.3919C71.525 34.1115 71.5185 34.7299 71.5176 35.4907V40.1577H67.6896L67.6886 40.1549ZM8.00184 23.8518V40.1502H11.9488V33.7451H23.9066V30.2428H11.9488V27.4731H25.8484V23.8481H8L8.00184 23.8518ZM149.592 37.2719V38.0205H150.283C150.47 38.0205 150.651 37.969 150.678 37.6888C150.718 37.3178 150.452 37.2719 150.283 37.2719H149.592ZM149.314 37.0255H150.277C150.611 37.0255 150.934 37.0891 150.962 37.5801C150.974 37.8612 150.889 37.9634 150.678 38.1235C150.901 38.266 150.906 38.3007 150.94 38.6763C150.962 38.9631 150.922 39.009 151.042 39.1973H150.713L150.669 38.9228C150.622 38.6651 150.747 38.2669 150.3 38.2669H149.592V39.1973H149.314V37.0255ZM150.038 36.4258C149.812 36.426 149.587 36.4715 149.378 36.5596C149.168 36.6478 148.978 36.7767 148.818 36.9392C148.658 37.1017 148.531 37.2944 148.446 37.5063C148.36 37.7183 148.317 37.9452 148.318 38.1742C148.318 39.1336 149.089 39.9169 150.046 39.9113C150.273 39.9108 150.498 39.8654 150.707 39.7774C150.917 39.6894 151.107 39.5607 151.267 39.3985C151.427 39.2364 151.554 39.044 151.641 38.8324C151.727 38.6208 151.771 38.3941 151.771 38.1652C151.77 37.9364 151.726 37.7099 151.638 37.4986C151.551 37.2873 151.423 37.0955 151.262 36.9339C151.102 36.7724 150.911 36.6444 150.701 36.5572C150.491 36.47 150.266 36.4254 150.038 36.4258ZM150.045 40.138C149.789 40.1385 149.534 40.0879 149.297 39.9891C149.059 39.8903 148.844 39.7454 148.662 39.5624C148.481 39.3795 148.337 39.1621 148.238 38.923C148.141 38.6838 148.09 38.4274 148.09 38.1685C148.09 37.9095 148.14 37.6531 148.238 37.4137C148.337 37.1743 148.48 36.9569 148.662 36.7738C148.843 36.5906 149.059 36.4455 149.297 36.3465C149.534 36.2475 149.788 36.1968 150.045 36.1971C151.123 36.1971 152 37.0835 152 38.1695C151.998 38.6917 151.792 39.1921 151.426 39.5611C151.059 39.93 150.563 40.1375 150.045 40.138Z" fill="#686868"/>
<path d="M48.2062 40.3169C49.4884 39.8774 50.4863 38.3886 50.726 36.5166V35.975H44.1524V40.3169H48.2062ZM50.7269 28.0146V27.5246C50.4751 25.571 49.4029 24.0326 48.0362 23.6699H44.1534V28.0146H50.7269ZM27.5918 35.9759V36.5119C27.8296 38.3858 28.8275 39.8774 30.1134 40.3169H34.1458V35.975H27.5918V35.9759ZM30.2816 23.6737C28.9167 24.0354 27.8417 25.5757 27.5918 27.5321V28.0184H34.1458V23.6746H30.2816V23.6737ZM50.7316 29.8258H44.158V34.1695H50.7316V29.8258ZM35.94 40.3197H42.3704V35.9778H35.94V40.3197ZM42.3704 23.6699H35.94V28.0137H42.3704V23.6699ZM27.5973 34.1638H34.1514V29.8202H27.5973V34.1638Z" fill="#686868"/>
</g>
</svg>
