<svg width="160" height="64" viewBox="0 0 160 64" fill="none" xmlns="http://www.w3.org/2000/svg">
<mask id="mask0_125_845" style="mask-type:luminance" maskUnits="userSpaceOnUse" x="4" y="20" width="152" height="24">
<path d="M156 20H4V44H156V20Z" fill="white"/>
</mask>
<g mask="url(#mask0_125_845)">
<path fill-rule="evenodd" clip-rule="evenodd" d="M15.6895 43.6271V20.4659H32.7375V23.2154H18.8311V30.0193H31.7673V32.7688H18.8311V43.6271H15.6895ZM45.0731 27.0834C48.0299 27.0834 50.2937 27.829 51.9107 29.3203C53.5278 30.8116 54.3594 32.862 54.3594 35.5649C54.3594 38.2679 53.5278 40.3184 51.9107 41.8096C50.2937 43.3008 48.0299 44.0465 45.0731 44.0465C42.1163 44.0465 39.8524 43.3008 38.2354 41.8096C36.6183 40.3184 35.7867 38.2212 35.7867 35.5649C35.7867 32.9086 36.6183 30.8116 38.2354 29.3203C39.8524 27.829 42.1624 27.0834 45.0731 27.0834ZM38.9284 35.5649C38.7898 38.8736 41.2846 41.6698 44.5649 41.8096C44.7497 41.8096 44.9345 41.8096 45.1193 41.8096C48.3995 41.9494 51.1715 39.3397 51.3102 36.0309C51.3102 35.8912 51.3102 35.7048 51.3102 35.5649C51.4487 32.2562 48.8615 29.46 45.5813 29.3203C45.4427 29.3203 45.2579 29.3203 45.1193 29.3203C43.456 29.2736 41.8391 29.8795 40.684 31.0912C39.4828 32.2562 38.8822 33.8872 38.9284 35.5649ZM56.115 43.6271L63.9691 34.9591L56.7618 27.5028H60.8274L66.233 33.328L71.8232 27.5028H75.6579L68.3582 35.0057L76.3047 43.6271H72.1466L66.0019 36.73L59.9497 43.6271H56.115ZM77.9678 36.6368H81.3404C81.3868 38.0814 82.126 39.4329 83.3732 40.2717C84.6204 41.1106 86.33 41.53 88.5476 41.53C90.7652 41.53 92.4284 41.1105 93.722 40.3184C94.8772 39.6659 95.6164 38.4076 95.6164 37.0562C95.6164 36.497 95.478 35.9377 95.1084 35.5184C94.6924 35.0057 94.1844 34.6329 93.5836 34.4465C92.29 34.0736 90.95 33.8407 89.6108 33.7008L87.8548 33.4679L87.5772 33.4212C84.7132 33.0018 82.7268 32.5358 81.71 32.0232C80.694 31.5572 79.8621 30.8116 79.2153 29.9261C78.6609 28.994 78.3837 27.9222 78.4299 26.8504C78.4299 24.8465 79.3539 23.2154 81.202 22.0038C83.05 20.7921 85.5444 20.1863 88.6404 20.1863C91.6436 20.1863 93.9532 20.7455 95.57 21.9105C97.1876 22.9824 98.1116 24.8465 98.0188 26.7572H94.7852C94.6924 25.4989 93.9996 24.3804 92.9372 23.7746C91.8284 23.0756 90.35 22.7028 88.502 22.7028C86.33 22.7028 84.7132 23.0756 83.558 23.7746C82.4492 24.4271 81.8028 25.6387 81.8484 26.897C81.8484 27.4096 81.9412 27.8756 82.218 28.295C82.542 28.7144 82.9572 29.0407 83.4196 29.2736C83.9276 29.5067 85.6836 29.8795 88.6868 30.3455C89.7492 30.4853 90.5804 30.6252 91.1812 30.7184C94.0916 31.1844 96.1244 31.8834 97.2332 32.8154C98.342 33.7475 98.9428 35.0989 98.9428 36.8698C98.9892 39.0135 97.9268 41.064 96.0788 42.1824C94.1844 43.4407 91.4588 44.0931 87.9932 44.0931C84.8052 44.0931 82.3572 43.4407 80.6012 42.1824C78.8919 40.9708 77.8755 38.9203 77.9678 36.8232V36.6368ZM106.751 34.3067H117.7V34.0736C117.792 32.7222 117.238 31.4173 116.268 30.4853C115.298 29.6465 113.958 29.1804 112.248 29.1804C110.816 29.1339 109.431 29.5999 108.368 30.532C107.352 31.5572 106.751 32.9086 106.751 34.3067ZM120.519 38.6407C120.288 40.2717 119.364 41.763 117.977 42.6484C116.592 43.5339 114.651 43.9532 112.156 43.9532C109.476 43.9532 107.352 43.2076 105.78 41.763C104.256 40.3184 103.471 38.2679 103.471 35.7048C103.471 33.0484 104.302 30.9513 105.92 29.4135C107.536 27.8756 109.754 27.0834 112.572 27.0834C115.205 27.0834 117.238 27.7824 118.671 29.2271C120.103 30.6717 120.796 32.7222 120.796 35.3785C120.796 35.4717 120.796 35.6116 120.796 35.798C120.796 35.9844 120.796 36.1241 120.796 36.2173H106.566C106.612 38.0348 107.12 39.4329 108.091 40.3649C109.107 41.3436 110.493 41.8096 112.341 41.8096C113.496 41.8562 114.651 41.5766 115.621 40.9708C116.453 40.4581 117.008 39.5727 117.146 38.6407H120.519ZM138.86 38.128H142.048C142.048 39.8057 141.263 41.3902 139.969 42.3688C138.629 43.4407 136.781 43.9532 134.517 43.9532C131.607 43.9532 129.296 43.2076 127.633 41.7164C125.97 40.2252 125.139 38.1746 125.139 35.5649C125.139 32.9552 125.97 30.9048 127.588 29.4135C129.251 27.9222 131.468 27.1766 134.332 27.1766C136.458 27.1766 138.213 27.6426 139.553 28.5746C140.893 29.46 141.771 30.8116 142.002 32.396H138.814C138.537 31.464 137.983 30.6252 137.197 30.0659C136.32 29.5067 135.256 29.2271 134.194 29.2736C132.346 29.2736 130.914 29.8329 129.851 30.9513C128.788 32.0698 128.28 33.6076 128.28 35.5649C128.28 37.5222 128.788 39.06 129.851 40.1785C130.96 41.3436 132.484 41.9494 134.102 41.8562C135.303 41.9028 136.458 41.5766 137.474 40.8776C138.306 40.2252 138.814 39.1999 138.86 38.128Z" fill="#686868"/>
<path d="M146.76 23.1688C146.807 24.9863 145.42 26.4775 143.619 26.5242C141.816 26.5707 140.338 25.1727 140.292 23.3552C140.246 21.5378 141.631 20.0465 143.434 19.9999C143.479 19.9999 143.526 19.9999 143.572 19.9999C145.328 19.9533 146.76 21.3514 146.76 23.1222C146.714 23.1222 146.714 23.1222 146.76 23.1688ZM141.123 23.1688C141.077 24.5202 142.14 25.6387 143.479 25.6853C143.526 25.6853 143.526 25.6853 143.572 25.6853C144.912 25.6853 145.975 24.5669 145.975 23.262C145.975 23.2154 145.975 23.2154 145.975 23.1688C146.021 21.8174 145.004 20.6989 143.664 20.6057C142.325 20.5591 141.216 21.5843 141.123 22.9358C141.077 23.029 141.077 23.1222 141.123 23.1688ZM143.018 24.7999H142.279V21.6775C142.695 21.5843 143.064 21.5843 143.479 21.5843C143.849 21.5378 144.219 21.631 144.588 21.8174C144.774 22.0038 144.912 22.2368 144.912 22.5164C144.866 22.8892 144.635 23.1688 144.265 23.262C144.589 23.4018 144.819 23.6814 144.819 24.0077C144.866 24.2873 144.912 24.5669 145.051 24.7999H144.265C144.127 24.5669 144.08 24.2873 144.034 24.0077C143.988 23.6814 143.803 23.495 143.387 23.495H143.064L143.018 24.7999ZM143.018 23.029H143.387C143.803 23.029 144.127 22.8892 144.127 22.563C144.127 22.2368 143.895 22.097 143.434 22.097C143.295 22.097 143.156 22.097 143.018 22.1436V23.029Z" fill="#686868"/>
</g>
</svg>
