<svg width="160" height="64" viewBox="0 0 160 64" fill="none" xmlns="http://www.w3.org/2000/svg">
<mask id="mask0_119_2394" style="mask-type:luminance" maskUnits="userSpaceOnUse" x="16" y="18" width="128" height="28">
<path d="M144 18.4H16V45.6H144V18.4Z" fill="white"/>
</mask>
<g mask="url(#mask0_119_2394)">
<path d="M138.8 18.8284H137.854V18.4517H140.179V18.8284H139.235V21.4407H138.8V18.8284ZM140.618 18.4517H141.338L142.294 20.9311L143.231 18.4517H143.949V21.4407H143.513V18.8554H143.506L142.5 21.4407H142.069L141.065 18.8554H141.057V21.4407H140.618V18.4517ZM35.069 18.4H39.4003V34.3545H35.069V18.4ZM64.9958 18.4134H70.3088L76.577 34.4454H71.8241L70.6113 31.0251H64.506L63.2225 34.4454H58.8184L64.9958 18.4134ZM67.6515 21.7204H67.6061L65.5074 27.9917H69.5857L67.6515 21.7204ZM78.6861 18.4116H86.1688C89.1968 18.4116 91.4584 19.7195 91.4584 22.4757C91.4584 24.5003 90.4104 25.6268 88.5936 26.2219V26.2667C90.7576 26.7059 91.8784 27.8532 91.8784 29.8079C91.8784 33.6437 88.4528 34.4454 85.54 34.4454H78.6863L78.6861 18.4116ZM83.0192 31.4171H84.3048C85.8888 31.4171 87.5424 31.1847 87.5424 29.5553C87.5424 27.8072 85.8416 27.649 84.352 27.649H83.02V31.4171M83.0192 24.7535H84.2328C85.6552 24.7535 87.1216 24.4087 87.1216 23.0524C87.1216 21.5815 85.7256 21.4468 84.2816 21.4468H83.0192V24.7535ZM97.7464 28.4061L91.7352 18.4116H96.7216L99.9152 24.8439L103.062 18.4116H108.051L102.082 28.4061V34.4454H97.7464V28.4061ZM113.842 21.5815H109.835V18.4116H122.186V21.5815H118.18V34.4454H113.842V21.5815ZM124.25 18.4116H135.716V21.4471H128.582V24.7535H135.318V27.7847H128.582V31.4171H135.97V34.4454H124.25V18.4116ZM25.2257 21.9217C22.3421 22.1579 20.7677 24.0239 20.7677 26.4387C20.7677 28.7861 22.9748 30.7599 25.1062 30.7599L25.5745 30.7552H26.3625C26.3625 30.7552 26.8853 30.7552 26.8889 30.2531V25.2143H31.3397C31.3397 28.0586 31.3289 34.4456 31.3289 34.4456C31.3289 34.4456 26.9356 34.4419 24.3849 34.4419C19.5886 34.4419 16.1665 30.5365 16.1665 26.4387C16.1665 22.0064 19.8889 18.3048 24.5239 18.4687L31.1823 18.4895L31.1787 21.9219L25.2257 21.9217ZM50.9833 21.9217C48.0981 22.1579 46.5271 24.0237 46.5271 26.4387C46.5271 28.7861 48.7308 30.7599 50.8639 30.7599L51.3306 30.7552H52.1204C52.1204 30.7552 52.6393 30.7552 52.6428 30.2531V25.2143H57.0866C57.0866 28.0586 57.0797 34.4456 57.0797 34.4456C57.0797 34.4456 52.6902 34.4419 50.1411 34.4419C45.3468 34.4419 41.9283 30.5365 41.9283 26.4387C41.9283 22.0064 45.6469 18.3048 50.2839 18.4687L56.9312 18.4895L56.9294 21.9219L50.9833 21.9217ZM17.6671 40.8176H16.0508V39.9443H20.4167V40.8176H18.7989V45.5035H17.6671V40.8176ZM28.5645 39.9443H31.8999V40.8176H29.7001V42.1892H31.7121V43.0657H29.7001V44.6267H31.9145V45.5035H28.5645V39.9443ZM44.5924 45.4248C44.1805 45.5215 43.734 45.5998 43.3073 45.5998C41.4816 45.5998 40.2105 44.698 40.2105 42.8163C40.2105 40.9132 41.3926 39.8442 43.3073 39.8442C43.6794 39.8442 44.1713 39.919 44.5854 40.0726L44.5025 41.0169C44.0773 40.7744 43.6869 40.7209 43.2803 40.7209C42.1195 40.7209 41.3929 41.6013 41.3929 42.7382C41.3929 43.8714 42.1035 44.7227 43.3074 44.7227C43.7506 44.7227 44.2785 44.6265 44.544 44.491L44.5924 45.4248ZM52.8507 39.9443H53.9807V42.1892H56.2439V39.9443H57.3759V45.5035H56.2439V43.0657H53.9807V45.5035H52.8507V39.9443ZM66.0534 39.9443H67.4455L69.5949 44.1029H69.6113V39.9443H70.6961V45.5035H69.3129L67.1525 41.3448H67.1381V45.5035H66.0534V39.9443ZM81.8624 39.8444C83.632 39.8444 84.6288 41.0239 84.6288 42.7061C84.6288 44.3883 83.6504 45.6 81.8624 45.6C80.0512 45.6 79.0988 44.413 79.0988 42.7061C79.0988 41.0022 80.0672 39.8444 81.8624 39.8444ZM81.8624 44.7229C83.016 44.7229 83.448 43.7146 83.448 42.7059C83.448 41.7257 82.9872 40.7211 81.8624 40.7211C80.74 40.7211 80.2776 41.7257 80.2776 42.7059C80.2776 43.7145 80.708 44.7229 81.8624 44.7229ZM93.0856 39.9443H94.2192V44.6267H96.4104V45.5035H93.0856V39.9443ZM107.046 39.8444C108.816 39.8444 109.808 41.0239 109.808 42.7061C109.808 44.3883 108.83 45.6 107.046 45.6C105.23 45.6 104.28 44.413 104.28 42.7061C104.28 41.0022 105.247 39.8444 107.046 39.8444ZM107.046 44.7229C108.201 44.7229 108.63 43.7146 108.63 42.7059C108.63 41.7257 108.166 40.7211 107.046 40.7211C105.921 40.7211 105.457 41.7257 105.457 42.7059C105.457 43.7145 105.886 44.7229 107.046 44.7229ZM122.674 41.0169C122.237 40.8176 121.673 40.7211 121.219 40.7211C119.899 40.7211 119.172 41.6014 119.172 42.7383C119.172 43.8715 119.885 44.7228 121.089 44.7228C121.396 44.7228 121.638 44.691 121.834 44.6447V43.1906H120.636V42.3174H122.917V45.315C122.318 45.475 121.696 45.6 121.089 45.6C119.262 45.6 117.991 44.698 117.991 42.8164C117.991 40.9133 119.172 39.8444 121.089 39.8444C121.743 39.8444 122.264 39.9328 122.745 40.0728L122.674 41.0169ZM133.024 43.3048L130.963 39.9443H132.286L133.624 42.2747L134.981 39.9443H136.178L134.156 43.3048V45.5035H133.024V43.3048Z" fill="#686868"/>
</g>
</svg>
