<svg width="160" height="64" viewBox="0 0 160 64" fill="none" xmlns="http://www.w3.org/2000/svg">
<g clip-path="url(#clip0_125_1246)">
<mask id="mask0_125_1246" style="mask-type:luminance" maskUnits="userSpaceOnUse" x="0" y="0" width="160" height="64">
<path d="M160 0H0V64H160V0Z" fill="white"/>
</mask>
<g mask="url(#mask0_125_1246)">
<path d="M20.6745 29.1335L29.2929 23.5581L32.9641 29.0747L28.7236 31.8427L27.9972 30.7434L25.4058 32.4317L30.4905 40.0292L33.0819 38.3605L31.9433 36.6526L30.9027 37.3397L29.1162 34.6501L34.3972 31.2341L40.2082 39.9115L32.3162 45.0157L27.153 44.682L20.1641 34.1789" fill="#686868"/>
<path d="M20.6941 27.72L29.2929 22.1445L32.9837 27.6808L28.7433 30.4292L28.0169 29.3298L25.4254 31.0181L30.4905 38.6157L33.0819 36.947L31.9629 35.239L30.9027 35.9261L29.1162 33.2365L34.4169 29.8206L40.2082 38.4979L32.3358 43.6022L27.1727 43.2685L20.1641 32.7654" fill="#686868"/>
<path d="M35.125 20.1815L42.7226 17.4526L44.568 22.4391L43.4097 22.8514L46.5704 31.411L49.2208 30.4686L48.1803 27.6613L53.3827 25.7962L56.2097 33.4526L41.9373 38.5766L40.1312 33.7078L41.3876 33.276L38.2268 24.7165L36.9704 25.168" fill="#686868"/>
<path d="M35.4551 18.8072L43.0526 16.0784L44.898 21.0649L43.7593 21.4772L46.92 30.0367L49.5508 29.0747L48.5103 26.287L53.7127 24.422L56.5397 32.0784L42.2673 37.2024L40.4612 32.3336L41.7176 31.9017L38.5569 23.3422L37.3004 23.7937" fill="#686868"/>
<path fill-rule="evenodd" clip-rule="evenodd" d="M58.0917 13.0353L65.0413 11.9556L68.7321 14.8415L70.7542 27.4648L68.1432 31.293L61.1935 32.3728L57.5027 29.5261L55.4609 16.9028M60.9579 17.9433L63.883 17.4918L65.3161 26.4047L62.391 26.8562L60.9579 17.9433Z" fill="#686868"/>
<path fill-rule="evenodd" clip-rule="evenodd" d="M58.701 11.7397L65.6507 10.6599L69.3415 13.5458L71.3636 26.1691L68.7526 29.9974L61.8029 31.0771L58.1121 28.2305L56.0703 15.6071M61.5477 16.6477L64.4728 16.1961L65.9059 25.1089L62.9808 25.5606L61.5477 16.6477Z" fill="#686868"/>
<path d="M71.875 30.4686L72.2088 25.2466L73.6026 25.3251L74.172 16.3141L72.7584 16.2355L73.0922 10.9153L81.0232 11.3864L83.3992 21.5165L87.0112 11.7594L94.864 12.2306L94.5304 17.5509L93.156 17.4527L92.6064 26.4638L93.9808 26.5422L93.6472 31.784L87.6592 31.411L88.248 21.811L85.8136 31.3128L79.8456 30.9398L78.4321 21.222L77.8432 30.822" fill="#686868"/>
<path d="M73.9535 9.79614L73.6198 15.0967L75.0333 15.1949L74.4836 24.1863L73.0701 24.1077L72.7363 29.3298L78.7044 29.7029L79.2934 20.1029L80.7068 29.8206L86.6748 30.1741L89.1092 20.6918L88.5204 30.2918L94.5084 30.6452L94.842 25.4231L93.4676 25.3445L94.0172 16.3335L95.3916 16.4121L95.7252 11.0918L87.8724 10.6206L84.2604 20.3973L81.9044 10.2673" fill="#686868"/>
<path d="M102.164 13.7224L116.103 18.7286L113.864 24.8341L109.408 23.2243L109.82 22.1445L106.601 20.9863L105.54 23.8525L110.684 25.7175L109.604 28.6623L104.441 26.8169L103.459 29.4476L106.679 30.6059L107.131 29.4083L111.587 31.0182L109.33 37.1433L95.3906 32.1175L97.197 27.1899L98.6498 27.72L101.771 19.239L100.338 18.7286" fill="#686868"/>
<path d="M103.324 12.8784L117.262 17.9043L115.024 23.9901L110.568 22.3999L110.96 21.3005L107.76 20.1423L106.7 23.0282L111.844 24.8735L110.764 27.8183L105.6 25.9729L104.619 28.6232L107.839 29.7815L108.29 28.5839L112.747 30.1742L110.489 36.2993L96.5508 31.2735L98.3564 26.3655L99.8092 26.8956L102.931 18.4147L101.498 17.8846" fill="#686868"/>
<path d="M119.361 25.8941L122.346 21.4573L126.822 24.3825L125.251 31.7051L131.395 27.3665L135.872 30.3113L132.907 34.7481L131.572 33.8646L127.744 36.3579L126.527 41.3837L127.862 42.2671L124.917 46.6254L120.441 43.7002L122.13 36.3579L115.867 40.7162L111.391 37.791L114.316 33.4131L115.651 34.277L119.852 31.1947L120.696 26.7579" fill="#686868"/>
<path d="M120.697 25.3448L123.661 20.908L128.137 23.8332L126.567 31.1558L132.712 26.8172L137.208 29.762L134.224 34.1988L132.889 33.3153L129.08 35.8086L127.843 40.854L129.178 41.7178L126.253 46.076L121.757 43.1509L123.445 35.8086L117.202 40.1668L112.707 37.2417L115.632 32.8638L116.967 33.7276L121.188 30.6454L122.013 26.2086" fill="#686868"/>
<path fill-rule="evenodd" clip-rule="evenodd" d="M135.148 40.6771C135.678 41.0108 136.228 41.0697 136.601 40.5004C136.758 40.2648 136.836 39.9311 136.699 39.6563C136.562 39.3814 136.326 39.2047 136.091 39.0476L134.815 38.2035L132.852 41.0894L133.204 41.3249L134.108 39.99L134.756 40.4219L134.677 42.3065L135.089 42.5814M133.264 42.5618C131.988 41.7176 131.654 40.0292 132.518 38.7728C133.362 37.5164 135.089 37.2023 136.346 38.0464C137.602 38.8906 137.936 40.5789 137.092 41.8354C136.248 43.0722 134.52 43.406 133.264 42.5618ZM133.048 42.8759C134.48 43.8378 136.424 43.4648 137.406 42.0317C138.368 40.6182 137.995 38.6943 136.562 37.7323C135.109 36.7704 133.165 37.1433 132.204 38.5568C131.241 39.99 131.615 41.9139 133.048 42.8759ZM134.324 39.7152L135.011 38.6943L135.836 39.244C136.188 39.4796 136.562 39.7936 136.248 40.2452C135.836 40.8341 135.266 40.3434 134.854 40.0685L134.324 39.7152Z" fill="#686868"/>
<path d="M36.8323 49.3546C37.0875 49.1779 37.4212 49.0993 37.3231 48.9619L36.6556 49.1386L36.6359 49.119C37.4802 48.0588 38.4814 47.1362 39.5807 46.3509L39.5219 47.627C39.4826 48.4515 39.3451 50.7877 39.7967 51.4159C39.9145 51.5926 40.1697 51.5533 40.3464 51.4355C40.5427 51.2981 40.5427 50.7287 40.5623 50.5128L40.5035 49.865L40.2875 49.8846H40.2679L40.1697 46.5472C40.1697 46.3509 40.209 45.9583 40.0323 45.8404C39.5415 45.5067 39.4433 45.2907 38.9722 45.4871C38.5991 45.6441 38.2458 45.8601 37.9317 46.076C37.1267 46.6257 36.3023 47.3324 35.7918 48.1767C35.4973 48.6478 35.5955 48.7656 35.8311 49.2367L36.047 49.6491L36.4593 49.6098" fill="#686868"/>
<path d="M41.8976 48.4513C42.0743 47.7642 42.8988 44.2697 42.6043 43.8181H42.192C41.9564 43.9556 41.3283 45.9384 41.3086 47.7249C41.3086 48.255 41.3283 48.6868 41.6031 49.1384C41.7012 49.2955 42.0546 49.8059 42.2902 49.6488C42.5061 49.5114 42.408 48.6084 43.0951 47.136H43.1148C43.0559 47.6071 42.8988 48.3924 43.154 48.8047C43.2718 48.9813 43.4877 49.0992 43.684 48.9813C44.0571 48.7654 44.489 47.6071 44.646 47.1948L44.4497 46.9396C44.332 47.1948 44.0571 47.8427 43.8215 47.9801L43.5859 47.9212C43.5467 47.8624 43.5074 47.8427 43.6252 47.0967L43.6644 46.3703L43.1344 46.2329C42.7614 46.4488 42.1724 48.2746 41.9957 48.7261" fill="#686868"/>
<path fill-rule="evenodd" clip-rule="evenodd" d="M46.9607 45.3494C46.7448 45.8402 46.4503 46.6647 45.9595 46.92C45.7436 47.0377 45.4687 47.077 45.3313 46.8021L45.2528 46.6451C46.3522 45.4868 46.4111 44.7801 46.2147 44.4463C46.0577 44.1715 45.7436 44.2697 45.5276 44.3874C44.6246 44.8782 44.1338 46.3506 44.6639 47.2341C44.9387 47.6856 45.4099 47.9997 45.9203 47.7249C46.6074 47.3518 47.0196 46.2917 47.1571 45.5653M45.0957 46.2917C45.0368 45.7421 45.2528 45.1923 45.5473 44.8978L45.6651 44.9371C45.7436 45.0549 45.6062 45.7617 45.0957 46.2917Z" fill="#686868"/>
<path fill-rule="evenodd" clip-rule="evenodd" d="M50.5938 42.2283C50.8294 41.5804 51.4183 40.0099 51.1043 39.3816L50.7705 39.2246C50.476 39.362 49.7496 40.7559 49.4944 41.7178C49.2392 42.6405 49.1803 43.6025 49.5926 44.5056C49.7496 44.8393 50.1423 45.5068 50.6135 45.2909C51.0846 45.0749 51.3987 44.4074 51.5558 43.9362C52.0073 43.7203 52.3214 43.4454 52.4981 42.9546L52.3214 42.7583C52.1643 43.0332 52.0073 43.2884 51.6735 43.3669C51.6735 43.0528 51.7324 42.6209 51.5951 42.3264L51.222 42.1104C50.7901 42.3068 50.5545 43.2688 50.7508 43.681L50.9864 43.9166C50.9275 44.1129 50.8883 44.3681 50.6723 44.5056C50.4171 44.6626 50.0637 44.3681 49.9852 43.8773M50.6527 39.9902H50.6723C50.6723 40.3044 50.7116 40.7755 49.8871 42.9546H49.8674C49.9263 41.9338 50.2208 40.9129 50.6527 39.9902Z" fill="#686868"/>
<path fill-rule="evenodd" clip-rule="evenodd" d="M55.0111 41.6586C54.7558 42.1298 54.3631 42.9151 53.8527 43.131C53.6171 43.2292 53.3423 43.2292 53.2442 42.9543L53.1853 42.7973C54.4024 41.7568 54.5203 41.0697 54.3631 40.7163C54.2454 40.4218 53.9116 40.5003 53.6957 40.5985C52.7337 40.9911 52.0859 42.4046 52.5374 43.3273C52.7534 43.7985 53.2049 44.1715 53.735 43.9359C54.4613 43.6414 54.9718 42.6206 55.2074 41.9138M53.0675 42.4243C53.0675 41.8745 53.3423 41.3445 53.6564 41.0893L53.7742 41.1285C53.8331 41.2464 53.6171 41.9335 53.0675 42.4243Z" fill="#686868"/>
<path fill-rule="evenodd" clip-rule="evenodd" d="M55.913 40.5201C56.0504 40.7557 56.1485 40.952 56.2271 41.0894C56.3645 41.5213 56.286 41.698 55.9326 42.1299C55.7167 41.9925 55.4811 41.8158 55.1866 41.9139M57.3657 41.3446C57.1105 41.7569 56.8946 42.071 56.3841 42.1692C56.7572 41.7176 57.0909 41.0894 56.8553 40.4808C56.7375 40.1667 56.5412 39.9508 56.4038 39.6759C56.3057 39.4796 56.2271 39.4207 56.0112 39.4992C55.7363 39.5974 55.6774 39.8918 55.7559 40.1274L54.6762 42.1692L54.5977 42.4833L54.7744 42.5814L54.9117 42.4244C55.2455 42.9152 55.8933 42.9937 56.4038 42.8366C57.0124 42.66 57.5817 41.698 57.8762 41.0698L57.6995 40.8146L57.3657 41.3446Z" fill="#686868"/>
<path d="M59.3669 38.2428L59.5044 37.6539L59.2099 37.595C58.778 37.7324 58.7191 38.1447 58.6013 38.5177C57.7964 38.8122 57.7964 38.9495 57.5804 39.7348L57.5412 39.8919C57.9142 39.6956 57.7964 39.7741 58.248 39.6367C58.1301 40.1864 57.8356 40.7164 57.502 41.2072L57.6786 41.4625L57.9535 41.0306L57.9731 41.0502C57.9535 41.3054 57.9338 41.6195 58.032 41.8551C58.1301 42.1496 58.3853 42.287 58.6798 42.2085C59.3277 41.9925 59.8774 40.952 60.1915 40.4023L60.054 40.0883C59.4455 40.8931 59.2492 41.2072 59.0136 41.2858L58.6995 41.1091C58.562 40.6575 58.778 39.9115 58.9351 39.4993C59.7792 39.2833 59.7596 38.9888 59.8774 38.1643" fill="#686868"/>
<path fill-rule="evenodd" clip-rule="evenodd" d="M64.828 38.8512C64.5728 39.1457 64.2783 39.6561 63.866 39.7543C63.5127 39.8328 63.3556 39.6954 63.3359 39.3813C63.6108 39.0868 64.1998 38.223 64.1016 37.8304L63.709 37.6929C63.2378 37.8108 62.5114 38.9494 62.747 39.8721C62.8452 40.2648 63.1789 40.7359 63.6304 40.6181C64.2194 40.4807 64.7298 39.6169 64.9654 39.1261M64.1016 37.4377C64.4353 37.3592 64.6316 36.9077 64.5532 36.6132L64.239 36.4365C63.9445 36.5151 63.6304 36.8684 63.709 37.1825C63.7482 37.3788 63.9053 37.477 64.1016 37.4377Z" fill="#686868"/>
<path d="M68.1622 38.3607C68.0444 38.4981 67.7499 38.8319 67.5732 38.8711L67.3965 38.7533C67.2983 38.2232 68.1426 37.4576 68.0836 37.1435L67.8873 36.7508L67.7302 36.6331C67.4946 36.6723 66.2578 37.8895 65.7867 38.8122L65.6493 38.9496L65.5511 38.8711C65.5118 38.6944 66.3364 37.7128 66.2775 37.4183C66.2775 37.3791 66.2971 37.2613 65.8063 37.3398L65.5118 37.4969C65.1389 37.968 64.7854 38.8319 64.9229 39.3619C64.9818 39.6171 65.1585 40.0883 65.5118 40.0294C65.7278 39.9901 65.9438 39.5582 66.0222 39.3815C66.2775 38.8711 66.6112 38.3999 67.0038 37.968L67.0235 37.9877C66.8468 38.3999 66.513 38.9692 66.6112 39.4404C66.6702 39.6956 66.8468 39.9312 67.1413 39.8723C67.7106 39.7545 68.3192 38.6551 68.6726 38.2232L68.5352 37.8895" fill="#686868"/>
<path d="M75.2892 37.1042C75.1322 37.4575 74.7788 38.0268 74.8181 38.4195C74.8377 38.6551 75.0143 38.871 75.2499 38.8514C75.7014 38.8121 76.7616 37.8109 77.115 37.4968L77.0365 37.1238C76.1138 37.8502 76.0156 37.8502 75.8586 37.9091L75.6622 37.7323C75.6622 37.5557 75.7014 37.4183 76.2708 36.7115L76.4867 36.2992L76.3297 36.0047L76.153 35.7888L75.7996 36.0244L74.131 37.5164L74.1113 37.4968C74.2683 37.1827 74.7788 36.5152 74.7591 36.1618C74.7395 35.9655 74.6218 35.8084 74.4058 35.8281C73.8954 35.8673 72.58 37.3594 72.207 37.7716L72.0499 37.9091L71.991 37.8502L72.1874 37.4183C72.2855 37.2415 72.4622 37.0845 72.5996 36.9079L72.8745 36.3778L72.5014 36.2207C72.0303 36.1815 71.245 37.3005 71.3039 38.0661C71.3236 38.341 71.4806 38.9495 71.8536 38.9299L72.1874 38.6943C72.5211 38.2231 72.9334 37.7127 73.326 37.2612L73.6205 37.006L73.6794 37.0649L73.6402 37.1631C73.1886 37.9679 73.0119 38.341 73.0315 38.5765C73.0512 38.7728 73.2082 38.8907 73.4046 38.8907C73.6794 38.871 73.9542 38.5373 74.1113 38.341" fill="#686868"/>
<path fill-rule="evenodd" clip-rule="evenodd" d="M79.5511 36.4365C78.0003 38.0267 77.745 38.0071 77.5879 38.0267L77.4309 37.8696C77.4309 37.4967 77.6665 37.0255 79.5511 36.4365ZM79.1192 37.4967C79.0407 37.7323 78.8444 38.1445 78.8444 38.3997C78.8444 38.6353 78.9622 38.8119 79.2174 38.8119C79.61 38.8119 80.6699 37.9678 81.0235 37.5948L80.9643 37.3003C80.6307 37.5359 80.1595 37.9286 79.8456 37.9286L79.5904 37.7323C79.5904 37.3592 80.2771 36.8095 80.2771 36.5543L80.0419 36.2402L80.3171 36.0439C80.3171 35.9457 80.1595 35.6709 79.8063 35.6709C78.8837 35.6905 76.8223 36.6917 76.8419 37.6733C76.8615 38.0856 77.3131 38.596 77.5487 38.596C77.7254 38.596 78.2358 38.1838 78.3929 38.0659L79.1192 37.4967Z" fill="#686868"/>
<path d="M82.4766 36.9077C82.143 37.2808 81.711 37.6734 81.6718 38.2035C81.6518 38.498 81.8286 38.8121 82.163 38.8513C82.6142 38.8906 83.5958 38.0857 83.9102 37.7716L83.8702 37.4771C83.5958 37.6537 83.0654 38.1249 82.7126 38.1053L82.4766 37.8697C82.4966 37.5556 82.9086 37.2022 83.1638 37.0256C83.3598 36.8881 83.5174 36.79 83.5366 36.5348L83.3798 36.1029C83.3014 36.0047 82.8694 36.0636 82.1038 36.1225L82.1822 35.9065L82.0446 35.7691C81.8486 35.7495 81.0046 36.2599 80.9654 36.8293L81.1614 37.0845C81.0046 37.2808 80.8078 37.4771 80.5918 37.6145V37.9679C80.9654 37.6537 81.299 37.4771 81.6126 37.0648" fill="#686868"/>
<path fill-rule="evenodd" clip-rule="evenodd" d="M86.047 37.8304C85.6934 38.0267 85.2422 38.3801 84.8294 38.3408C84.4566 38.3015 84.3782 38.1053 84.4766 37.7911C84.8294 37.6145 85.7134 37.0059 85.7526 36.6132L85.4382 36.358C84.967 36.2991 83.8678 37.104 83.7502 38.0463C83.691 38.439 83.8478 39.0083 84.319 39.0476C84.9278 39.1261 85.6934 38.4979 86.1054 38.1249M85.8702 36.2599C86.2038 36.2991 86.5574 35.9458 86.5966 35.6316L86.3606 35.3568C86.047 35.3175 85.6342 35.5531 85.595 35.8672C85.5758 36.0831 85.6742 36.2403 85.8702 36.2599Z" fill="#686868"/>
<path d="M89.3271 38.5372C89.1703 38.6354 88.7775 38.8317 88.5815 38.8121L88.4631 38.6551C88.5615 38.125 89.6215 37.7127 89.6807 37.3986L89.6415 36.9667L89.5431 36.79C89.3079 36.7507 87.6975 37.4575 86.9319 38.125L86.7559 38.2035L86.6767 38.1054C86.7159 37.9287 87.8351 37.3201 87.8943 37.0059C87.8943 36.9667 87.9527 36.8489 87.5015 36.7507L87.1871 36.79C86.6575 37.0845 86.0295 37.7912 85.9703 38.3213C85.9311 38.5765 85.9311 39.087 86.2847 39.1458C86.5007 39.1851 86.8535 38.8514 86.9911 38.7335C87.4231 38.3409 87.8943 38.0072 88.4047 37.7519L88.4239 37.7716C88.1103 38.0857 87.5999 38.5176 87.5215 38.9888C87.4623 39.244 87.5799 39.5188 87.8743 39.5778C88.4439 39.6759 89.4255 38.871 89.8967 38.5765V38.2231" fill="#686868"/>
<path fill-rule="evenodd" clip-rule="evenodd" d="M92.6847 38.9301C92.1943 39.146 91.4087 39.5583 90.8591 39.4404C90.6039 39.3816 90.3879 39.2245 90.4663 38.9301L90.5255 38.773C92.1351 38.6356 92.6455 38.1448 92.7247 37.7717C92.8031 37.4773 92.5087 37.3399 92.2535 37.2809C91.2519 37.0454 89.8775 37.811 89.6815 38.8123C89.5831 39.3227 89.7207 39.8724 90.2903 40.0098C91.0559 40.1865 92.0767 39.6565 92.6847 39.2245M90.6631 38.4197C90.9967 37.9681 91.5271 37.6933 91.9391 37.6933L92.0175 37.7914C91.9783 37.9289 91.3895 38.3411 90.6631 38.4197Z" fill="#686868"/>
<path fill-rule="evenodd" clip-rule="evenodd" d="M97.9455 39.7152L97.9655 39.7348C95.9823 40.7556 95.7471 40.6575 95.5895 40.6379L95.4919 40.4416C95.5895 40.0685 95.9631 39.6759 97.9455 39.7152ZM97.1999 40.5789L97.2191 40.5986C97.0623 40.7752 96.7479 41.109 96.6695 41.3446C96.5911 41.5605 96.6495 41.7765 96.9047 41.855C97.2783 41.9728 98.5543 41.5016 99.0055 41.2464L99.0447 40.952C98.6519 41.0697 98.0831 41.3053 97.7687 41.2072L97.5919 40.952C97.7103 40.5986 98.5343 40.2844 98.6127 40.0489L98.4951 39.6759L98.8287 39.5777C98.8679 39.4796 98.8095 39.1655 98.4559 39.0673C97.5727 38.8121 95.2951 39.1262 95.0207 40.0685C94.9023 40.4612 95.1775 41.0894 95.3935 41.1679C95.5703 41.2268 96.1783 40.9912 96.3551 40.9324L97.1999 40.5789Z" fill="#686868"/>
<path d="M102.068 42.2475C101.892 42.3063 101.46 42.4438 101.283 42.3653L101.205 42.2082C101.401 41.6978 102.539 41.5015 102.638 41.207L102.677 40.7751L102.618 40.5984C102.402 40.5199 100.674 40.8929 99.8104 41.4229L99.6144 41.4622L99.5552 41.3444C99.6144 41.1677 100.851 40.7751 100.95 40.5003C100.969 40.461 101.047 40.3628 100.596 40.1861L100.282 40.1665C99.7128 40.3628 98.9472 40.9322 98.7896 41.4426C98.692 41.6978 98.6128 42.1886 98.9272 42.3063C99.1232 42.3849 99.536 42.1297 99.7128 42.0315C100.203 41.7371 100.734 41.5015 101.302 41.3444V41.364C100.93 41.6192 100.341 41.953 100.184 42.3849C100.086 42.6401 100.125 42.915 100.419 43.0327C100.969 43.2487 102.068 42.6205 102.598 42.4242L102.658 42.0708" fill="#686868"/>
<path d="M105.466 41.3643L105.957 41.0306L105.78 40.795C105.368 40.6183 105.054 40.8735 104.701 41.0699C103.915 40.7557 103.798 40.8539 103.13 41.3054L102.993 41.4035C103.405 41.5214 103.248 41.4821 103.699 41.6784C103.228 42.0122 102.658 42.2085 102.07 42.3459L102.03 42.66L102.541 42.5226V42.5423C102.345 42.6993 102.129 42.9349 102.03 43.1704C101.893 43.4649 101.991 43.7201 102.266 43.8575C102.894 44.1324 104.014 43.7005 104.622 43.5042L104.72 43.1704C103.719 43.3667 103.366 43.4649 103.13 43.3667L103.032 43.0134C103.228 42.5815 103.915 42.1692 104.288 41.9729C105.074 42.3655 105.25 42.1299 105.898 41.5999" fill="#686868"/>
<path fill-rule="evenodd" clip-rule="evenodd" d="M107.407 44.2696C106.878 44.3875 106.034 44.6231 105.523 44.3875C105.287 44.2893 105.11 44.093 105.248 43.8181L105.326 43.6611C106.917 43.8574 107.526 43.4843 107.682 43.131C107.82 42.8365 107.565 42.6599 107.329 42.542C106.386 42.1101 104.894 42.5813 104.482 43.5236C104.266 43.9948 104.306 44.5641 104.836 44.8193C105.542 45.1531 106.662 44.839 107.329 44.5445M105.542 43.347C105.955 42.9739 106.544 42.8169 106.937 42.8954L106.995 43.0132C106.937 43.131 106.269 43.4255 105.542 43.347Z" fill="#686868"/>
<path d="M110.156 46.0368C109.979 46.0761 109.528 46.1545 109.37 46.0761L109.312 45.8797C109.567 45.4085 110.725 45.3301 110.862 45.0552L110.961 44.6233L110.921 44.4269C110.725 44.3288 108.958 44.4858 108.016 44.8981L107.82 44.9177L107.781 44.8C107.878 44.6429 109.135 44.3877 109.273 44.1325C109.292 44.0932 109.39 44.0147 108.958 43.7791L108.644 43.7202C108.055 43.838 107.231 44.3092 106.995 44.8C106.877 45.0356 106.72 45.5067 107.034 45.6834C107.231 45.7816 107.662 45.5853 107.839 45.5067C108.369 45.2711 108.919 45.0945 109.488 45.0159V45.0356C109.096 45.2319 108.468 45.4871 108.232 45.8993C108.114 46.1349 108.114 46.4294 108.369 46.5669C108.88 46.8417 110.057 46.3705 110.607 46.2331L110.725 45.8993" fill="#686868"/>
<path d="M113.375 47.9017C113.198 47.9214 112.747 47.9803 112.59 47.8821L112.531 47.6858C112.806 47.2146 113.964 47.2146 114.121 46.9398L114.239 46.5079L114.2 46.3116C114.003 46.1937 112.237 46.2723 111.274 46.6453L111.078 46.6649L111.039 46.5472C111.137 46.39 112.413 46.2134 112.57 45.9582C112.59 45.9189 112.688 45.8404 112.295 45.5852L111.982 45.5066C111.392 45.6048 110.548 46.0171 110.274 46.5079C110.136 46.7435 109.959 47.2146 110.254 47.3913C110.43 47.5091 110.882 47.3128 111.078 47.2539C111.628 47.038 112.178 46.9005 112.747 46.8416V46.8612C112.334 47.038 111.706 47.2735 111.451 47.6661C111.314 47.9017 111.294 48.1766 111.569 48.3336C112.06 48.6281 113.277 48.2159 113.826 48.1177L113.945 47.784" fill="#686868"/>
<path fill-rule="evenodd" clip-rule="evenodd" d="M116.399 48.6476V48.6673C114.2 49.0991 114.003 48.9421 113.867 48.8832L113.827 48.6673C114.043 48.3335 114.514 48.0783 116.399 48.6476ZM115.437 49.2758V49.2954C115.221 49.4133 114.828 49.6489 114.691 49.8648C114.553 50.0611 114.553 50.277 114.769 50.4145C115.083 50.6304 116.458 50.5126 116.948 50.3949L117.067 50.12C116.654 50.12 116.046 50.1986 115.771 50.0218L115.672 49.7274C115.888 49.4133 116.771 49.3544 116.909 49.1384L116.89 48.7458H117.223C117.283 48.6673 117.322 48.3335 117.007 48.1568C116.222 47.666 113.945 47.3519 113.415 48.1961C113.199 48.5494 113.277 49.217 113.474 49.3544C113.631 49.4526 114.279 49.3936 114.475 49.3936L115.437 49.2758Z" fill="#686868"/>
<path fill-rule="evenodd" clip-rule="evenodd" d="M118.676 50.0808C118.558 50.3164 118.46 50.5127 118.381 50.6698C118.087 51.0231 117.91 51.0624 117.36 51.0231C117.36 50.7679 117.36 50.4735 117.125 50.2968M118.794 51.7299C118.303 51.7495 117.91 51.7495 117.557 51.3766C118.146 51.4158 118.852 51.3373 119.245 50.8268C119.461 50.552 119.52 50.2575 119.677 50.0023C119.795 49.806 119.795 49.7275 119.599 49.59C119.363 49.433 119.088 49.5311 118.931 49.7471L116.595 50.0023L116.281 50.1201L116.3 50.3164L116.497 50.336C116.261 50.8858 116.576 51.4551 116.988 51.7888C117.479 52.1815 118.617 52.1029 119.284 52.0047L119.402 51.7103L118.794 51.7299Z" fill="#686868"/>
</g>
</g>
<defs>
<clipPath id="clip0_125_1246">
<rect width="160" height="64" fill="white"/>
</clipPath>
</defs>
</svg>
