<svg width="160" height="64" viewBox="0 0 160 64" fill="none" xmlns="http://www.w3.org/2000/svg">
<g clip-path="url(#clip0_125_883)">
<mask id="mask0_125_883" style="mask-type:luminance" maskUnits="userSpaceOnUse" x="0" y="0" width="160" height="64">
<path d="M160 0H0V64H160V0Z" fill="white"/>
</mask>
<g mask="url(#mask0_125_883)">
<path d="M119.737 20.9116C116.365 20.8002 112.721 22.7144 110.992 26.3182C109.92 28.3525 109.1 30.6166 108.556 32.8401C108.508 33.0353 108.462 33.2312 108.42 33.4278C108.366 33.7441 108.362 34.1498 108.391 34.5633C108.524 36.3132 110.099 38.4288 112.694 38.549H115.772C119.142 38.6594 122.784 36.7444 124.516 33.1405C125.588 31.1062 126.406 28.8404 126.951 26.6187C126.999 26.4207 127.045 26.2245 127.087 26.0301C127.143 25.7129 127.147 25.309 127.116 24.8945C126.984 23.1439 125.408 21.03 122.813 20.9107H119.736L119.737 20.9116ZM61.9364 21.0724L63.3149 38.3775H66.0789H66.0628H66.2259C66.491 38.3691 66.7503 38.2983 66.9821 38.171C67.2139 38.0437 67.4115 37.8637 67.5586 37.6458H67.5603L78.8297 21.0733H75.9152L67.8425 32.9682L66.8949 21.0741H61.9355L61.9364 21.0724ZM80.8444 21.0724L74.3764 38.3775H79.3412L85.806 21.0733H80.8444V21.0724ZM92.4924 21.0724C88.0324 21.1254 86.062 26.0213 88.4988 29.1567C89.7348 30.6458 91.4988 32.1897 92.4956 33.8201C93.1276 34.7021 92.4516 36.1726 91.2452 36.1868H83.3716L82.5564 38.3775H92.5252C96.4332 38.3661 99.0772 33.8264 96.4548 30.3445C95.2444 28.5805 93.3252 27.3761 92.1892 25.6528C91.5148 24.754 92.1932 23.2782 93.4132 23.2623H100.741L101.557 21.0724H92.4924ZM104.993 21.0724L98.53 38.3785H103.493L109.959 21.0733H104.993V21.0724ZM131.79 21.0724L125.296 38.3775H127.854L132.329 26.4508L132.352 26.6646L136.372 37.3754C136.492 37.6591 136.692 37.9035 136.948 38.0807C137.203 38.2578 137.504 38.3607 137.815 38.3775H140.154L146.649 21.0733H144.092L139.703 32.7685L135.028 21.0733H131.789L131.79 21.0724ZM120.871 22.7002C121.807 22.7709 122.55 23.5477 122.55 24.4898C122.557 24.7213 122.517 24.9502 122.429 25.1597L119.149 33.9721C118.488 35.6636 116.949 36.7002 115.122 36.7533H114.638C114.181 36.7173 113.755 36.5132 113.444 36.1815C113.132 35.8498 112.96 35.4148 112.958 34.9629C112.95 34.7329 112.992 34.5039 113.081 34.2912L116.36 25.4787C117.022 23.7872 118.56 22.7533 120.39 22.7011H120.871V22.7002Z" fill="#686868"/>
<path d="M15.9316 21.073L9.46484 38.3782H14.7359L17.8287 30.1021H24.1037L21.011 38.3782H25.1284C25.8252 38.3782 26.4235 37.9442 26.6662 37.339C26.6689 37.3301 26.6716 37.3274 26.6752 37.323L32.7479 21.0722H27.4768L24.9868 27.7354H18.7118L21.2017 21.0722H15.9316V21.073ZM36.0968 21.073L29.6318 38.3782H34.9001L41.3669 21.073H36.0968ZM44.9523 21.073L38.4864 38.3782H43.7556L46.2348 31.7414L47.5515 30.7437L51.0473 37.4299L51.0491 37.4211L51.058 37.437C51.2024 37.7325 51.4328 37.9787 51.7199 38.1441C52.007 38.3094 52.3376 38.3863 52.6694 38.365C52.6568 38.365 52.6425 38.3738 52.6291 38.3738H57.1039L51.5372 27.7222L60.3175 21.0713H56.3792L47.7897 27.5782L50.2215 21.0713H44.9523V21.073Z" fill="#686868"/>
<path d="M150.534 22.6028C150.534 23.567 149.767 24.3226 148.77 24.3226C147.782 24.3226 146.996 23.567 146.996 22.6028C146.996 21.6591 147.782 20.9026 148.77 20.9026C149.767 20.9026 150.534 21.6591 150.534 22.6028ZM147.437 22.6028C147.437 23.3593 148.003 23.9603 148.78 23.9603C149.537 23.9603 150.094 23.3593 150.094 22.6126C150.094 21.857 149.537 21.2446 148.77 21.2446C148.002 21.2446 147.437 21.857 147.437 22.6028ZM148.496 23.4936H148.098V21.7951C148.317 21.7567 148.538 21.7389 148.761 21.7421C149.085 21.7421 149.233 21.7951 149.358 21.8676C149.413 21.9134 149.456 21.9707 149.485 22.0352C149.514 22.0998 149.528 22.1699 149.526 22.2405C149.526 22.4279 149.378 22.5719 149.168 22.6338V22.655C149.337 22.7168 149.431 22.8423 149.484 23.0703C149.537 23.3293 149.569 23.4327 149.61 23.4945H149.18C149.127 23.4327 149.095 23.2771 149.042 23.081C149.011 22.8936 148.906 22.8114 148.686 22.8114H148.496V23.4945V23.4936ZM148.507 22.5304H148.695C148.916 22.5304 149.095 22.4579 149.095 22.2811C149.095 22.1265 148.98 22.0231 148.727 22.0231C148.623 22.0231 148.549 22.0319 148.507 22.0435V22.5295V22.5304Z" fill="#686868"/>
</g>
</g>
<defs>
<clipPath id="clip0_125_883">
<rect width="160" height="64" fill="white"/>
</clipPath>
</defs>
</svg>
