<svg width="160" height="64" viewBox="0 0 160 64" fill="none" xmlns="http://www.w3.org/2000/svg">
<g clip-path="url(#clip0_125_872)">
<mask id="mask0_125_872" style="mask-type:luminance" maskUnits="userSpaceOnUse" x="0" y="0" width="160" height="64">
<path d="M160 0H0V64H160V0Z" fill="white"/>
</mask>
<g mask="url(#mask0_125_872)">
<mask id="mask1_125_872" style="mask-type:luminance" maskUnits="userSpaceOnUse" x="8" y="-40" width="144" height="144">
<path d="M152 -40H8V104H152V-40Z" fill="white"/>
</mask>
<g mask="url(#mask1_125_872)">
<path fill-rule="evenodd" clip-rule="evenodd" d="M136.741 38.5477H142.051V19.6504H136.741V38.5477ZM149.859 19.6504V38.5477H144.549V19.6504H149.859ZM21.4091 26.9907H17.1139V19.6504H10.0859V38.5477H17.1139V29.1774H21.4091V38.5477H28.4363V19.6504H21.4091V26.9907ZM54.3998 26.6784L53.9702 25.4285H48.192V38.5477H53.9702V30.6605C53.9702 28.9429 55.0631 28.0053 56.0008 28.0053C56.7807 28.0053 57.7961 28.1614 57.7961 29.8798V38.5477H63.5742V30.0359C63.575 25.2731 58.2264 23.3986 54.3998 26.6784ZM113.745 33.0422L111.051 25.4293H107.109L104.414 33.3553L101.603 25.4293H93.872L91.1016 32.1062L87.196 25.4293H80.5976L88.368 38.7045L87.352 41.2036C87 41.9843 86.16 42.0232 85.9944 41.2813C85.9944 40.6371 85.7384 40.0194 85.2824 39.5638C84.8272 39.1084 84.2096 38.8525 83.5656 38.8525C82.9208 38.8525 82.3032 39.1084 81.848 39.5638C81.392 40.0194 81.136 40.6371 81.136 41.2813C81.1456 42.6874 82.5504 44.5222 85.3232 44.4057C88.0944 44.2884 89.2656 41.9851 89.6568 41.0086L96.0776 25.4815L100.706 38.5491H104.922L107.498 31.0138L110.154 38.5491H114.137L118.627 25.43H116.322L113.745 33.0422ZM38.3923 24.7621C33.9709 24.7621 30.3863 28.0493 30.3863 32.1053C30.3863 36.1614 33.9709 39.4486 38.3923 39.4486C42.8136 39.4486 46.399 36.1614 46.399 32.1053C46.399 28.0493 42.8144 24.7621 38.3923 24.7621ZM40.384 35.5398C40.384 36.068 40.1743 36.5745 39.8008 36.9479C39.4273 37.3214 38.9208 37.5312 38.3927 37.5312C37.8645 37.5312 37.3579 37.3214 36.9845 36.9479C36.6111 36.5745 36.4012 36.068 36.4012 35.5398V28.6702C36.4012 28.142 36.6111 27.6355 36.9845 27.2621C37.3579 26.8885 37.8645 26.6788 38.3927 26.6788C38.9208 26.6788 39.4273 26.8885 39.8008 27.2621C40.1743 27.6355 40.384 28.142 40.384 28.6702V35.5398Z" fill="#686868"/>
<path fill-rule="evenodd" clip-rule="evenodd" d="M81.2388 33.1587C81.2812 32.8524 81.3028 32.4228 81.3028 32.1053C81.3028 28.0492 77.7191 24.762 73.2977 24.762C68.8764 24.762 65.291 28.0492 65.291 32.1053C65.291 36.1613 68.8756 39.4486 73.2977 39.4486C76.3362 39.4486 78.9787 37.8968 80.3356 35.6092L78.5671 34.954C77.4987 36.5879 75.5383 37.6809 73.2977 37.6809C72.198 37.6809 71.306 36.6395 71.306 35.5397V33.1587H81.2388ZM71.306 28.6701C71.306 28.142 71.5157 27.6354 71.8893 27.262C72.2627 26.8885 72.7692 26.6787 73.2973 26.6787C73.8255 26.6787 74.3321 26.8885 74.7055 27.262C75.0789 27.6354 75.2888 28.142 75.2888 28.6701V31.285H71.306V28.6701ZM134.728 33.1587C134.771 32.8524 134.792 32.4228 134.792 32.1053C134.792 28.0492 131.208 24.762 126.786 24.762C122.364 24.762 118.78 28.0492 118.78 32.1053C118.78 36.1613 122.364 39.4486 126.786 39.4486C129.824 39.4486 132.468 37.8968 133.824 35.6092L132.056 34.954C130.987 36.5879 129.028 37.6809 126.786 37.6809C125.685 37.6809 124.794 36.6395 124.794 35.5397V33.1587H134.728ZM124.794 28.6701C124.794 27.5704 125.685 26.6791 126.786 26.6791C127.887 26.6791 128.778 27.5704 128.778 28.6701V31.285H124.794V28.6701Z" fill="#686868"/>
</g>
</g>
</g>
<defs>
<clipPath id="clip0_125_872">
<rect width="160" height="64" fill="white"/>
</clipPath>
</defs>
</svg>
