<svg width="160" height="64" viewBox="0 0 160 64" fill="none" xmlns="http://www.w3.org/2000/svg">
<mask id="mask0_119_2400" style="mask-type:luminance" maskUnits="userSpaceOnUse" x="56" y="8" width="48" height="48">
<path d="M104 8H56V56H104V8Z" fill="white"/>
</mask>
<g mask="url(#mask0_119_2400)">
<path d="M80 56C79.7614 56 79.5239 55.9958 79.2866 55.9889L84.1912 42.5091H90.9416C92.1264 42.5091 93.4272 41.5983 93.832 40.4855L99.1536 25.8694C100.024 23.4763 98.6536 21.5186 96.1072 21.5186H86.7424L78.8855 43.1092H78.8826L74.4281 55.3485C63.8605 52.8362 56 43.3365 56 32C56 20.9906 63.4134 11.7134 73.5203 8.886L68.9242 21.5186H68.9229L61.2822 42.5091L66.3686 42.5095L72.8663 24.6729H76.6891L70.1914 42.5095L75.2758 42.5105L81.3312 25.8694C82.2024 23.4763 80.8312 21.5186 78.2874 21.5186H74.0119L78.9211 8.0252C79.2789 8.00936 79.6382 8 79.9998 8C93.2544 8 104 18.7451 104 32C104 45.2548 93.2546 56 80 56ZM94.5216 24.66H90.7L85.348 39.3442H89.1696L94.5216 24.66Z" fill="#686868"/>
</g>
</svg>
