<svg width="160" height="64" viewBox="0 0 160 64" fill="none" xmlns="http://www.w3.org/2000/svg">
<mask id="mask0_119_2417" style="mask-type:luminance" maskUnits="userSpaceOnUse" x="44" y="8" width="73" height="48">
<path d="M116.8 8H44V56H116.8V8Z" fill="white"/>
</mask>
<g mask="url(#mask0_119_2417)">
<path d="M78.581 50.7848C64.1954 52.1113 49.2016 50.0219 47.1015 38.7839C46.0742 33.244 48.6023 27.3694 51.9515 23.7181V21.7682C45.9182 27.0575 42.6485 33.7501 44.5318 41.656C46.9375 51.7962 59.8026 57.5385 79.4448 55.6317C87.2192 54.8785 97.3872 52.3797 104.461 48.4958V42.9826C98.0408 46.8062 87.4248 49.9646 78.581 50.7848ZM116.478 21.6365C113.065 4.98371 80.7192 3.92799 59.8678 16.6154V18.0167C80.6952 7.31347 110.237 7.37851 112.927 22.7188C113.83 27.7933 110.97 33.0801 105.861 36.1241V40.1045C112.006 37.8512 118.31 30.5633 116.478 21.6365Z" fill="#686868"/>
<path d="M103.298 19.2117H99.5256V36.0039C99.5256 37.9718 100.477 39.6832 103.298 39.9566V19.2117ZM58.3862 25.3428H54.6076L54.6055 36.3137C54.6055 38.2885 55.5603 39.9981 58.3862 40.2665V25.3428ZM54.6076 19.7225H58.3744V23.2964H54.6076V19.7225ZM80.9744 40.0927C77.9218 40.0927 76.6298 37.9716 76.6298 35.8822V21.3154H80.3688V25.3428H83.1848V28.3616H80.3688V35.6514C80.3688 36.5033 80.7736 36.9779 81.6624 36.9779H83.1848V40.0928L80.9744 40.0927ZM87.8544 33.8867C87.8544 35.7994 89.0512 37.2051 91.168 37.2051C92.8272 37.2051 93.6448 36.7449 94.6024 35.7994L96.9128 37.9994C95.4312 39.4622 93.88 40.3515 91.1408 40.3515C87.5624 40.3515 84.1344 38.3994 84.1344 32.7083C84.1344 27.8429 87.1296 25.0928 91.0576 25.0928C95.0504 25.0928 97.3456 28.3124 97.3456 32.5387V33.8871L87.8544 33.8867ZM90.8936 28.1838C89.6144 28.1838 88.6312 28.8427 88.2144 29.7314C87.9712 30.2657 87.8824 30.6819 87.8544 31.3383H93.6168C93.544 29.7314 92.8152 28.1838 90.8936 28.1838ZM68.5412 28.3616C69.6376 28.3616 70.0935 28.9034 70.0935 29.7828V40.1146H73.8332V29.7611C73.8332 27.6632 72.715 25.3467 69.431 25.3467L61.7058 25.3428V40.1146H65.447V28.3616H68.5412ZM107.355 22.2122C106.524 22.2122 105.861 21.542 105.861 20.7119C105.861 19.8857 106.524 19.2117 107.355 19.2117C108.182 19.2117 108.862 19.8857 108.862 20.7119C108.862 21.542 108.182 22.2122 107.355 22.2122ZM107.355 19.4618C106.67 19.4618 106.119 20.028 106.119 20.7119C106.119 21.3997 106.67 21.9559 107.355 21.9559C108.041 21.9559 108.61 21.3997 108.61 20.7119C108.61 20.028 108.041 19.4618 107.355 19.4618ZM108.021 21.6111H107.741C107.728 21.6109 107.717 21.6073 107.706 21.6007C107.696 21.5941 107.688 21.5846 107.683 21.5737L107.304 20.929C107.292 20.9153 107.261 20.8996 107.251 20.8996H107.077V21.5421C107.077 21.5738 107.055 21.6112 107.014 21.6112H106.761C106.723 21.6112 106.698 21.5738 106.698 21.5421V19.9214C106.698 19.8266 106.73 19.7877 106.813 19.7757C106.903 19.7659 107.14 19.754 107.273 19.754C107.741 19.754 108.015 19.8917 108.015 20.3255V20.3572C108.015 20.6251 107.883 20.7712 107.678 20.8363L108.073 21.5085C108.079 21.5235 108.082 21.5397 108.082 21.556C108.082 21.5814 108.068 21.6111 108.021 21.6111ZM107.658 20.3255C107.658 20.1445 107.545 20.0873 107.304 20.0873H107.065V20.6013C107.102 20.6013 107.273 20.6093 107.304 20.6093C107.545 20.6093 107.658 20.5289 107.658 20.3572V20.3255Z" fill="#686868"/>
</g>
</svg>
