<svg width="160" height="64" viewBox="0 0 160 64" fill="none" xmlns="http://www.w3.org/2000/svg">
<mask id="mask0_125_1288" style="mask-type:luminance" maskUnits="userSpaceOnUse" x="19" y="16" width="122" height="32">
<path d="M140.799 16H19.1992V48H140.799V16Z" fill="white"/>
</mask>
<g mask="url(#mask0_125_1288)">
<path d="M27.7715 17.876V23.7951H34.021V39.2949H39.7011V17.876H27.7715Z" fill="#686868"/>
<path d="M27.0093 16H25.6289V23.7952H27.0093V16Z" fill="#686868"/>
<path d="M31.1175 39.3025V33.3683H24.8717V17.8911H19.1992V39.3025H31.1175Z" fill="#686868"/>
<path d="M33.2633 33.3682H31.8867V41.1785H33.2633V33.3682Z" fill="#686868"/>
<path d="M52.1328 17.2646H47.0977V40.3899H52.1328V17.2646Z" fill="#686868"/>
<path d="M87.6582 23.4782V40.3937H93.0446V31.7604C93.0934 27.5287 97.8454 27.2569 97.8454 27.2569V23.1687C95.2054 23.1687 93.0366 25.2072 93.0366 25.2072V23.4782H87.6582Z" fill="#686868"/>
<path d="M109.951 23.478V40.3934H115.138V30.4125C115.138 28.0079 118.97 27.8343 118.97 30.4125V40.3934H124.076V27.7172C124.076 25.1805 120.73 21.4207 115.138 25.0747V23.4893L109.951 23.478Z" fill="#686868"/>
<path d="M99.0969 27.1286C99.0969 27.1286 99.5537 27.0002 101.507 27.0757C103.974 27.1588 103.679 29.1708 103.679 29.1708C102.777 28.6923 101.774 28.4337 100.753 28.4158C98.8665 28.3818 95.0273 29.5483 95.0273 34.5727C95.0273 39.0158 98.5881 40.2993 100.685 40.2993C101.829 40.3313 102.952 39.988 103.883 39.3216V40.3823H108.787V28.8689C108.787 26.6265 108.36 26.0112 107.368 24.8863C105.939 23.3046 102.552 23.1687 102.552 23.1687H99.0929L99.0969 27.1286ZM99.6097 34.1726C99.6097 33.7429 99.7369 33.3228 99.9753 32.9653C100.214 32.608 100.553 32.3293 100.949 32.1645C101.346 31.9997 101.783 31.9562 102.203 32.0395C102.625 32.1228 103.011 32.3291 103.316 32.6325C103.62 32.9357 103.827 33.3225 103.912 33.7438C103.997 34.1651 103.955 34.602 103.791 34.9994C103.628 35.3969 103.351 35.737 102.995 35.9769C102.639 36.2167 102.219 36.3454 101.79 36.3469C101.504 36.3474 101.221 36.2916 100.957 36.1826C100.693 36.0736 100.452 35.9136 100.25 35.7117C100.047 35.5097 99.8865 35.2699 99.7769 35.0058C99.6673 34.7417 99.6105 34.4586 99.6097 34.1726Z" fill="#686868"/>
<path d="M132.653 35.3538C132.009 35.3531 131.38 35.1612 130.844 34.8023C130.309 34.4435 129.892 33.9338 129.645 33.3378C129.4 32.7417 129.336 32.0861 129.461 31.4536C129.588 30.8212 129.898 30.2404 130.354 29.7847C130.81 29.3289 131.391 29.0187 132.023 28.8932C132.655 28.7676 133.31 28.8324 133.905 29.0794C134.501 29.3264 135.009 29.7444 135.367 30.2807C135.725 30.8169 135.916 31.4473 135.916 32.0923C135.917 32.521 135.833 32.9457 135.669 33.3419C135.505 33.738 135.265 34.098 134.961 34.401C134.658 34.704 134.298 34.9441 133.902 35.1076C133.506 35.2712 133.081 35.3548 132.653 35.3538ZM132.729 24.029C127.328 23.8932 125.02 28.457 125.02 32.0356C124.982 36.7316 128.071 40.5708 132.684 40.2159C133.743 40.0891 134.744 39.6592 135.565 38.9777V40.4084H140.797V17.2568H135.565V24.9501C134.486 24.1536 132.729 24.014 132.729 24.014V24.029Z" fill="#686868"/>
<path d="M78.1974 35.2143C77.5502 35.2158 76.9171 35.025 76.3782 34.6662C75.8394 34.3073 75.4192 33.7965 75.1706 33.1983C74.9221 32.6002 74.8565 31.9417 74.9821 31.3062C75.1077 30.6707 75.419 30.0869 75.8763 29.6286C76.3337 29.1702 76.9167 28.8581 77.5514 28.7316C78.1862 28.6051 78.8442 28.6701 79.4421 28.9182C80.04 29.1662 80.5512 29.5862 80.9104 30.1251C81.2696 30.664 81.4608 31.2974 81.46 31.9453C81.4568 32.8107 81.112 33.6399 80.5016 34.2522C79.8902 34.8646 79.0621 35.2104 78.1974 35.2143ZM78.5519 43.0926C76.1607 42.9756 75.6478 41.443 75.6478 41.443H69.6133C70.873 49.8912 85.6952 50.2386 86.3816 42.1375V23.4668H81.332V25.207C77.8542 21.6813 69.749 24.2331 70.0168 32.1529C70.2695 39.5744 78.1258 41.8054 81.332 38.9478V40.9371C81.3168 43.187 78.5519 43.0926 78.5519 43.0926Z" fill="#686868"/>
<path d="M58.3665 29.7861C58.4463 29.1002 58.775 28.4676 59.2903 28.0084C59.8056 27.5492 60.4714 27.2955 61.1613 27.2955C61.8512 27.2955 62.5171 27.5492 63.0323 28.0084C63.5476 28.4676 63.8763 29.1002 63.956 29.7861H58.3665ZM61.1387 22.844C57.0163 22.844 52.9883 26.2113 52.9883 31.5641C52.9883 37.5586 56.741 41.0316 61.6856 40.8882C65.4572 40.7674 68.0972 38.3665 69.0477 35.0106H63.8995C63.6317 35.5618 62.8962 36.1846 61.3763 36.1846C60.9928 36.2034 60.6097 36.1429 60.2507 36.0069C59.8916 35.8709 59.5644 35.6624 59.2895 35.3942C59.0145 35.1262 58.7977 34.8042 58.6526 34.4486C58.5074 34.0929 58.437 33.7111 58.4457 33.327H69.3833C69.983 27.0946 65.9625 22.844 61.1387 22.844Z" fill="#686868"/>
</g>
</svg>
