<svg width="140" height="48" viewBox="0 0 140 48" fill="none" xmlns="http://www.w3.org/2000/svg">
<path d="M71.9188 31.5142H74.7188V36.8856C73.2616 37.9809 71.2569 38.5666 69.3664 38.5666C65.2092 38.5666 62.1426 35.7094 62.1426 31.7237C62.1426 27.7333 65.2045 24.8809 69.4235 24.8809C71.7473 24.8809 73.6759 25.6761 74.9616 27.1666L72.995 28.9809C72.0331 27.9618 70.914 27.4856 69.5712 27.4856C66.9997 27.4856 65.2426 29.2047 65.2426 31.719C65.2426 34.1952 66.9997 35.9523 69.533 35.9523C70.3664 35.9523 71.1426 35.7999 71.914 35.3856V31.5142H71.9188Z" fill="#040404"/>
<path d="M85.9851 38.3378L83.4327 34.6521H83.2803H80.6137V38.3378H77.5518V25.1045H83.2803C86.8137 25.1045 89.028 26.9378 89.028 29.9045C89.028 31.8902 88.028 33.3474 86.3041 34.0807L89.2708 38.3331H85.9851V38.3378ZM83.1089 27.5997H80.6137V32.214H83.1089C84.9803 32.214 85.9279 31.3426 85.9279 29.9093C85.9279 28.4521 84.9803 27.5997 83.1089 27.5997Z" fill="#040404"/>
<path d="M90.6191 31.7188C90.6191 27.7855 93.681 24.876 97.862 24.876C102.019 24.876 105.105 27.7665 105.105 31.7188C105.105 35.6712 102.024 38.5617 97.862 38.5617C93.681 38.5664 90.6191 35.6522 90.6191 31.7188ZM102 31.7188C102 29.2045 100.224 27.4855 97.8572 27.4855C95.4953 27.4855 93.7144 29.2045 93.7144 31.7188C93.7144 34.2331 95.4906 35.9522 97.8572 35.9522C100.219 35.9569 102 34.2379 102 31.7188Z" fill="#040404"/>
<path d="M107.291 32.514V25.1045H110.353V32.4045C110.353 34.9188 111.448 35.9569 113.301 35.9569C115.172 35.9569 116.248 34.9188 116.248 32.4045V25.1045H119.272V32.514C119.272 36.4093 117.039 38.5664 113.277 38.5664C109.524 38.5664 107.291 36.4093 107.291 32.514Z" fill="#040404"/>
<path d="M133.78 29.9049C133.78 32.8525 131.566 34.6858 128.032 34.6858H125.366V38.3334H122.304V25.1001H128.032C131.57 25.1049 133.78 26.9382 133.78 29.9049ZM130.68 29.9049C130.68 28.4477 129.732 27.6001 127.861 27.6001H125.366V32.1953H127.861C129.732 32.1953 130.68 31.343 130.68 29.9049Z" fill="#040404"/>
<path d="M7 38.3382L24.1048 9.00488L26.9905 13.9573L12.7762 38.3382H7Z" fill="#0158FF"/>
<path d="M29.7754 18.7285L32.6135 23.6047L26.9801 33.3571H38.3039L41.2039 38.338H18.4277L29.7754 18.7285Z" fill="#0158FF"/>
<path d="M29.875 9.00488L46.9798 38.3382L64.0798 9.00488H58.3083L46.9798 28.4382L35.6512 9.00488H29.875Z" fill="#0158FF"/>
<path d="M46.9852 18.5477L52.5471 9.00488H46.7757L44.0947 13.6001L46.9852 18.5477Z" fill="#0158FF"/>
<path d="M83.6758 9.00488H86.7377V19.743H93.3758V22.2382H83.6758V9.00488Z" fill="#040404"/>
<path d="M106.785 9.00488L101.057 22.2382H98.0328L92.3232 9.00488H95.6328L99.6613 18.4573L103.747 9.00488H106.785Z" fill="#040404"/>
<path d="M108.658 9.00488H111.72V22.2382H108.658V9.00488Z" fill="#040404"/>
<path d="M77.5523 9.00475H76.6666H74.419H73.8809L66.1523 22.2381H69.2905L70.9142 19.4048H77.5523V22.2381H80.6143V11.5095V9H77.5523V9.00475ZM77.5523 17.081H72.2524L75.4476 11.5143H77.5523V17.081Z" fill="#040404"/>
</svg>
