<svg width="160" height="64" viewBox="0 0 160 64" fill="none" xmlns="http://www.w3.org/2000/svg">
<g clip-path="url(#clip0_119_2424)">
<mask id="mask0_119_2424" style="mask-type:luminance" maskUnits="userSpaceOnUse" x="0" y="0" width="160" height="64">
<path d="M160 0H0V64H160V0Z" fill="white"/>
</mask>
<g mask="url(#mask0_119_2424)">
<mask id="mask1_119_2424" style="mask-type:luminance" maskUnits="userSpaceOnUse" x="0" y="-48" width="160" height="160">
<path d="M160 -48H0V112H160V-48Z" fill="white"/>
</mask>
<g mask="url(#mask1_119_2424)">
<path fill-rule="evenodd" clip-rule="evenodd" d="M8.42383 43.122L13.5055 20.2455H22.5773L22.9914 33.0252L29.0982 20.2455H38.1916L33.0892 43.122H26.5026L29.2285 30.8221L23.101 43.122H18.368L18.1281 30.8221L15.0751 43.122H8.42383ZM38.9777 23.9741H45.1052L45.9337 20.2455H39.7837L38.9777 23.9741ZM40.8528 43.1444L34.6813 43.122L38.4539 26.1771H44.6254L40.8528 43.1444ZM64.2316 26.1771H69.749L69.2693 28.2705C70.0329 27.3326 70.9485 26.744 72.1047 26.3514C73.0328 26.0423 74.0053 25.8875 74.9834 25.8932L73.5657 31.4107C73.217 31.4107 68.943 30.5814 67.6125 37.1024L66.2387 43.1428H60.415L64.2316 26.1771Z" fill="#686868"/>
<path fill-rule="evenodd" clip-rule="evenodd" d="M61.0052 36.8632C61.0052 36.9936 59.0645 43.7975 50.5372 43.6241C39.1089 43.3842 42.0756 25.0655 55.0512 25.7196C62.4221 26.0898 62.0519 32.2182 61.9864 32.4804H55.618C55.7052 32.2406 55.9236 29.7105 53.8948 29.7545C50.1222 29.8641 47.4394 39.2189 51.6047 39.3069C53.5238 39.3725 54.4186 37.1479 54.5929 36.8648H61.0052V36.8632ZM115.722 43.6896C103.314 43.1659 107.042 24.8903 119.778 25.5013C131.752 26.0898 128.348 44.191 115.722 43.6896ZM119.364 29.4914C115.242 28.663 112.167 38.564 116.094 39.3708C120.454 40.2872 123.378 30.2991 119.364 29.4914Z" fill="#686868"/>
<path fill-rule="evenodd" clip-rule="evenodd" d="M138.969 23.6694C137.267 23.6694 136.942 24.3235 136.658 25.6101L136.548 26.177H140.147L141.041 22.0773H146.667L145.794 26.177H148.695L147.845 30.0808H144.944L143.352 37.5174C143.287 37.9316 143.134 38.3018 143.287 38.76C143.527 39.4356 145.947 39.1535 145.947 39.1535L145.01 43.0356C145.01 43.0356 140.081 43.6026 138.423 42.4463C137.681 41.9449 136.875 40.8982 137.376 38.6521L139.273 30.1032L135.893 30.0816L133.037 43.1228H126.973L129.809 30.0816H126.689L127.562 26.1779H130.593C131.138 23.9973 131.618 22.5139 132.97 21.3801C134.824 19.8751 139.644 20.4637 139.644 20.4637L138.969 23.6694ZM84.5356 37.3215L96.0492 37.2999C96.0492 37.2999 95.0684 39.8515 98.6892 39.8739C101.196 39.8739 102.178 37.0168 98.798 36.4284C97.25 36.1444 91.2524 35.1409 91.9292 30.5175C92.4964 26.7232 96.4428 25.3926 100.762 25.4582C109.594 25.5669 107.937 30.7582 108.045 31.1067H102.157C102.157 31.1067 102.789 28.9262 100.129 28.9262C97.7084 28.9262 97.1188 31.1068 99.91 31.6953C103.313 32.4374 107.217 32.6117 107.434 36.9952C107.499 38.2171 106.78 43.9296 97.8812 43.7561C89.7252 43.5819 89.1588 39.7436 89.3764 37.9556C87.8932 41.0742 84.1852 43.8441 79.2356 43.6698C66.8269 43.2772 70.5996 24.8921 83.314 25.5255C89.0932 25.8085 91.2964 30.192 90.5972 34.51C90.4884 35.2737 90.4244 35.3824 90.2052 35.448L84.5356 37.3215ZM82.8556 29.4699C78.7765 28.6631 75.7244 38.5201 79.6273 39.3493C83.9468 40.2441 86.8476 30.2775 82.8556 29.4699ZM152.098 26.1555C155.042 26.1555 155.042 30.539 152.098 30.539C149.154 30.539 149.154 26.1555 152.098 26.1555ZM152.098 26.548C149.633 26.548 149.633 30.1248 152.098 30.1248C154.583 30.1248 154.583 26.548 152.098 26.548ZM152.491 28.5975L152.926 29.4699H152.403L152.054 28.5975H151.748L151.618 29.5355H151.159L151.53 27.2022H152.599C152.599 27.2022 153.187 27.3549 153.143 27.9218C153.079 28.5975 152.535 28.5975 152.491 28.5975ZM152.38 27.5076H151.946L151.836 28.2713H152.272C152.272 28.2713 152.707 28.3368 152.751 27.9003C152.751 27.5076 152.38 27.5076 152.38 27.5076Z" fill="#686868"/>
</g>
</g>
</g>
<defs>
<clipPath id="clip0_119_2424">
<rect width="160" height="64" fill="white"/>
</clipPath>
</defs>
</svg>
