<svg width="160" height="64" viewBox="0 0 160 64" fill="none" xmlns="http://www.w3.org/2000/svg">
<mask id="mask0_119_2436" style="mask-type:luminance" maskUnits="userSpaceOnUse" x="8" y="14" width="144" height="36">
<path d="M152 14.4H8V49.6H152V14.4Z" fill="white"/>
</mask>
<g mask="url(#mask0_119_2436)">
<path d="M14.0459 25.7577L8 49.1068H10.5736L15.84 27.6552H15.9149L20.4017 49.1068H23.0536L38.4578 27.9841H38.5362L32.8068 49.1068H35.4178L41.3855 25.7577H37.5251L22.2366 46.7194L17.9064 25.7577H14.0459Z" fill="#686868"/>
<path d="M43.8902 32.2346L39.5566 49.1068H42.0145L46.3447 32.2346H43.8902Z" fill="#686868"/>
<path d="M49.8773 32.2312L45.6016 49.1068H48.056L49.6186 42.993L53.908 39.9857L59.2526 49.1068H61.942L55.8586 38.7424L65.3735 32.2346H62.0986L50.3199 40.4721L50.2416 40.4104L52.3386 32.2312H49.8773Z" fill="#686868"/>
<path d="M66.8205 32.2313L62.4902 49.1069H64.955L67.2188 40.2803C68.0358 37.1087 70.3779 34.1323 74.7864 34.0672C75.2528 34.0672 75.7226 34.1015 76.189 34.1015L76.7337 32.0464C76.3047 32.0121 75.835 32.0121 75.4094 32.0121C71.8111 31.9779 69.6766 33.7247 68.1175 36.1223H68.0392L69.0605 32.2313H66.8205Z" fill="#686868"/>
<path d="M93.7759 38.3486C93.7759 34.1938 90.5007 31.7449 85.8199 31.7449C78.6438 31.7449 74.5859 37.0436 74.5859 42.5683C74.5859 46.7914 77.4353 49.6001 82.6199 49.6001C90.0687 49.6001 93.7759 44.0411 93.7759 38.352M91.3175 38.7766C91.3175 42.6984 88.4687 47.867 83.0895 47.867C79.0047 47.867 77.0438 45.6441 77.0438 42.3868C77.0438 38.4307 80.0087 33.4814 85.3879 33.4814C89.3263 33.4814 91.3175 35.6393 91.3175 38.7766Z" fill="#686868"/>
<path d="M117.353 32.2209L118.95 25.7543H94.9223L93.3359 32.2312H101.04V32.2346H109.635V32.2312L117.353 32.2209Z" fill="#686868"/>
<path d="M100.282 35.3242L96.875 49.1035H105.457L108.871 35.3276V35.3208H100.282V35.3242Z" fill="#686868"/>
<path d="M118.734 35.324L115.33 49.0999H123.064L126.469 35.324H118.734ZM127.245 32.2209L128.848 25.7543H121.114L119.49 32.2277L127.245 32.2209Z" fill="#686868"/>
<path d="M132.033 25.7543L126.26 49.1033H133.981L135.189 44.2636L136.946 42.9552L139.676 49.1033H148.061L142.91 38.965L152 32.1318H142.757L137.061 37.1017H136.983L139.754 25.7543H132.033Z" fill="#686868"/>
<path d="M47.2106 14.4C48.1535 20.9934 51.6702 24.9939 58.8395 25.3227C52.0854 27.9224 45.1238 21.812 47.2106 14.4Z" fill="#686868"/>
<path d="M43.4608 15.5577C43.5425 15.5406 43.5493 15.5954 43.5561 15.6537C43.7843 19.8563 45.5476 23.0451 47.883 25.2269C49.1913 26.504 50.7409 27.5041 52.4401 28.1683C54.1393 28.8325 55.9535 29.1472 57.7757 29.0938C49.4966 32.4128 40.7953 24.4391 43.4574 15.5577" fill="#686868"/>
</g>
</svg>
