<svg width="160" height="64" viewBox="0 0 160 64" fill="none" xmlns="http://www.w3.org/2000/svg">
<path d="M68.8706 32.6747L66.2304 25.3212H58.6424V38.3462L53.5967 25.3212H47.534C46.6736 21.7228 44.092 19.2782 39.4179 19.2L21.6016 19.2195V44.8H32.9641V36.4492H39.6135C40.9042 36.4492 42.0776 36.2144 43.1142 35.8233L39.4961 44.8H45.8912L47.2407 41.2601L53.3229 41.2797L54.731 44.8H64.1574V37.4856L67.1888 44.8H74.327V25.3212H68.8706V32.6747ZM36.8364 30.9341C36.8364 31.6381 36.367 32.2248 35.6043 32.264H33.5117V23.0527H35.5848C36.3475 22.994 36.7777 23.6394 36.8168 24.4021V30.9341H36.8364ZM48.5119 37.2119L50.4872 31.9315L52.4624 37.2314L48.5119 37.2119ZM110.625 44.7804H116.726V25.3017H110.625V44.7804ZM103.408 39.1284C103.408 39.5783 103.389 40.4779 102.763 40.4584H101.218C100.534 40.4584 100.494 39.7543 100.494 39.1284L100.514 25.2822H94.1776V40.7321C94.1776 44.5262 98.1672 44.8 98.1672 44.8H105.09C108.552 44.8 108.493 40.8104 108.493 40.8104V25.3408H103.291C103.35 33.3592 103.408 39.1284 103.408 39.1284ZM117.958 25.2626V29.2522H122.242V44.8H128.187V29.2522H132.529V25.2626H117.958ZM88.8776 25.204H76.8499V44.7217H88.8776C90.6768 44.7217 92.0648 44.1937 92.0648 42.062V27.8441C92.0264 26.2209 90.6568 25.204 88.8776 25.204ZM86.3744 38.6787C86.3744 39.5783 85.924 39.9694 85.4352 39.9694H83.7144V29.2913H85.2592C85.924 29.2913 86.3744 29.8585 86.3744 30.5821V38.6787Z" fill="#686868"/>
<path d="M135.715 28.9003H135.344V26.1624H136.615C137.065 26.1624 137.514 26.3188 137.514 26.9055C137.514 27.3162 137.319 27.4531 137.123 27.5704C137.28 27.6291 137.436 27.7073 137.456 28.0789L137.475 28.5679C137.475 28.7243 137.495 28.783 137.612 28.8416V28.9003H137.162C137.104 28.7243 137.104 28.3136 137.104 28.2158C137.104 27.9812 137.065 27.7269 136.634 27.7269H135.735V28.9003H135.715ZM135.715 27.3944H136.576C136.849 27.3944 137.143 27.3357 137.143 26.9251C137.143 26.4948 136.83 26.4752 136.654 26.4752H135.735V27.3944H135.715Z" fill="#686868"/>
<path d="M138.512 27.5312C138.512 28.646 137.612 29.5652 136.478 29.5652C135.363 29.5652 134.444 28.646 134.444 27.5312C134.444 26.4165 135.363 25.4973 136.478 25.4973C137.592 25.4973 138.512 26.397 138.512 27.5312ZM136.478 25.0867C135.128 25.0867 134.033 26.1819 134.033 27.5312C134.033 28.8807 135.128 29.9759 136.478 29.9759C137.828 29.9759 138.923 28.8807 138.923 27.5312C138.923 26.1819 137.828 25.0867 136.478 25.0867Z" fill="#686868"/>
</svg>
