<svg width="160" height="64" viewBox="0 0 160 64" fill="none" xmlns="http://www.w3.org/2000/svg">
<g clip-path="url(#clip0_125_852)">
<mask id="mask0_125_852" style="mask-type:luminance" maskUnits="userSpaceOnUse" x="0" y="0" width="160" height="64">
<path d="M160 0H0V64H160V0Z" fill="white"/>
</mask>
<g mask="url(#mask0_125_852)">
<path d="M91.2296 39.7659C91.2296 43.6922 89.36 45.6586 85.616 45.6586C81.8712 45.6586 80.168 43.7386 80.168 39.9054V32.3586H83.1904V39.9453C83.1904 42.0579 84.0384 43.1208 85.7288 43.1208C87.4184 43.1208 88.22 42.0978 88.22 40.0582V32.3653H91.236V39.7792L91.2296 39.7659Z" fill="#686868"/>
<path d="M103.202 44.9677C102.227 45.4327 100.948 45.6586 99.3775 45.6586C97.3223 45.6586 95.7119 45.0673 94.5327 43.8915C93.3591 42.7156 92.7695 41.1411 92.7695 39.1747C92.7695 37.0821 93.4319 35.388 94.7511 34.0859C96.0703 32.7839 97.7863 32.1328 99.8943 32.1328C101.2 32.1328 102.3 32.2923 103.194 32.6178V35.4545C102.3 34.9296 101.279 34.6706 100.133 34.6706C98.8735 34.6706 97.8591 35.0559 97.0903 35.8265C96.3215 36.5971 95.9311 37.6467 95.9311 38.9621C95.9311 40.2775 96.2951 41.2342 97.0247 41.9848C97.7535 42.7355 98.7343 43.1142 99.9607 43.1142C101.186 43.1142 102.214 42.8351 103.188 42.2771V44.9677H103.202Z" fill="#686868"/>
<path d="M129.399 39.7659C129.399 43.6922 127.53 45.6586 123.786 45.6586C120.041 45.6586 118.338 43.7386 118.338 39.9054V32.3586H121.36V39.9453C121.36 42.0579 122.208 43.1208 123.899 43.1208C125.588 43.1208 126.39 42.0978 126.39 40.0582V32.3653H129.406V39.7792L129.399 39.7659Z" fill="#686868"/>
<path d="M131.102 44.9278V42.0114C131.646 42.4565 132.229 42.7887 132.865 43.008C133.501 43.2272 134.138 43.3401 134.787 43.3401C135.165 43.3401 135.497 43.3069 135.781 43.2405C136.066 43.1741 136.298 43.081 136.491 42.9614C136.683 42.8419 136.822 42.7024 136.915 42.5429C137.008 42.3835 137.054 42.2041 137.054 42.0181C137.054 41.7657 136.981 41.5331 136.829 41.3338C136.676 41.1345 136.477 40.9485 136.219 40.7758C135.961 40.6031 135.656 40.4437 135.297 40.2842C134.946 40.1248 134.562 39.9653 134.151 39.7993C133.104 39.3741 132.329 38.8559 131.812 38.2381C131.301 37.6269 131.043 36.8829 131.043 36.0125C131.043 35.3349 131.182 34.7437 131.461 34.2587C131.739 33.7671 132.123 33.3685 132.601 33.0497C133.084 32.7308 133.641 32.4982 134.277 32.3521C134.913 32.206 135.583 32.1262 136.292 32.1262C137.001 32.1262 137.604 32.1661 138.141 32.2525C138.677 32.3321 139.175 32.4584 139.632 32.6311V35.3549C139.407 35.2021 139.161 35.0692 138.903 34.9563C138.638 34.8433 138.366 34.7437 138.088 34.6706C137.809 34.5975 137.531 34.5377 137.253 34.5045C136.974 34.4713 136.716 34.4514 136.464 34.4514C136.12 34.4514 135.808 34.4846 135.529 34.5444C135.251 34.6109 135.013 34.6972 134.821 34.8168C134.629 34.9297 134.476 35.0692 134.37 35.2286C134.264 35.3881 134.211 35.5674 134.211 35.7734C134.211 35.9926 134.27 36.1853 134.389 36.3646C134.509 36.5373 134.675 36.7034 134.893 36.8562C135.112 37.009 135.377 37.1618 135.689 37.3146C136 37.4608 136.352 37.6202 136.742 37.773C137.279 37.9922 137.757 38.2248 138.181 38.4705C138.605 38.7164 138.969 38.9954 139.274 39.3077C139.579 39.6199 139.811 39.972 139.977 40.3705C140.136 40.7692 140.222 41.2342 140.222 41.759C140.222 42.4897 140.083 43.1009 139.797 43.5992C139.513 44.0974 139.129 44.4961 138.645 44.8017C138.161 45.1073 137.597 45.3265 136.954 45.466C136.312 45.6055 135.629 45.6653 134.913 45.6653C134.197 45.6653 133.481 45.6055 132.819 45.4859C132.157 45.3663 131.58 45.1803 131.096 44.9412L131.102 44.9278Z" fill="#686868"/>
<path d="M108.324 45.4326H105.309V32.3586H108.324V45.4326Z" fill="#686868"/>
<path d="M109.51 39.7526L114.175 45.4326H117.979L112.147 38.5901L116.813 32.3586H113.221L109.53 37.8062L109.51 39.7526Z" fill="#686868"/>
<path d="M75.8161 40.344C76.1807 40.1712 76.5187 39.9587 76.8169 39.7062C77.7845 38.8957 78.2684 37.8328 78.2684 36.5174C78.2684 33.7405 76.5849 32.3521 73.2116 32.3521H66.9883V45.4261H70.0038V34.6108H72.6946C74.2984 34.6108 75.1004 35.2818 75.1004 36.6237C75.1004 37.9657 74.2984 38.6832 72.6946 38.6832V38.6965H70.9913L76.3464 45.4194H80.1504L75.8161 40.3307V40.344Z" fill="#686868"/>
<path d="M63.7536 20.8328L62.9319 19.7898L58.4782 21.6964L56.6026 20.4208L53.5937 21.072L50.2932 22.5468L49.4382 24.4534L51.0222 26.3268L52.2351 26.6855L55.4361 23.3506L52.6062 27.9809L50.4257 27.2768L49.922 26.546L46.2636 31.09L34.8776 34.0928C34.4799 34.0928 33.8967 34.106 33.8967 34.106C23.3457 29.5753 29.4099 23.5034 29.4695 23.4369C29.3966 23.4768 20.814 27.8215 30.5167 35.8267L28.7008 37.8928L27.415 43.7322L24.1543 46.3297L20.582 54.109H23.9753L24.532 52.7936L23.2198 52.4681L25.3604 48.7346C26.4739 48.1367 30.4636 46.529 31.2457 45.9843L36.5477 39.3078L42.4793 41.1812L43.3144 37.4875L43.606 38.1053L44.0633 43.3735L41.5581 54.6338H45.1038V53.4845L43.7784 52.9265L48.0928 43.2207C48.0928 43.2207 54.6541 39.0354 54.6475 38.9956C54.6276 38.8892 57.8287 29.0107 57.8287 29.0107L61.792 28.6719L62.9517 27.0708L58.2528 27.0841L63.7007 23.0583L63.7536 20.8593V20.8328Z" fill="#686868"/>
<path d="M49.1719 43.8186L53.4865 41.075L48.8207 51.9766L50.1528 52.4882V53.5776L47.0312 53.5843L49.1719 43.8186Z" fill="#686868"/>
<path d="M38.2913 46.2764L33.3604 48.7876L31.5445 52.003L32.923 52.3883L32.3663 53.5708H29.3242L31.6903 47.2664C31.9156 47.1268 34.4208 44.888 34.4208 44.888L34.6329 43.4664L36.9393 40.5632L40.3657 41.6528L38.2913 46.2764Z" fill="#686868"/>
<path d="M56.973 33.4418L47.0781 29.7148L48.0656 28.4792L57.3905 31.8341L56.973 33.4418Z" fill="white"/>
<path d="M143.523 33.1693C143.523 33.9266 142.913 34.5178 142.124 34.5178C141.336 34.5178 140.719 33.9266 140.719 33.1693C140.719 32.4119 141.342 31.834 142.124 31.834C142.906 31.834 143.523 32.4252 143.523 33.1693ZM141.071 33.1693C141.071 33.7605 141.521 34.2322 142.137 34.2322C142.754 34.2322 143.178 33.7605 143.178 33.1759C143.178 32.5913 142.734 32.0997 142.131 32.0997C141.528 32.0997 141.077 32.578 141.077 33.1626L141.071 33.1693ZM141.912 33.8668H141.594V32.5315C141.72 32.5049 141.892 32.4917 142.117 32.4917C142.376 32.4917 142.496 32.5315 142.595 32.5913C142.668 32.6511 142.728 32.7574 142.728 32.8836C142.728 33.0297 142.608 33.1427 142.442 33.1958V33.2091C142.575 33.2557 142.648 33.3553 142.694 33.5346C142.734 33.7406 142.76 33.8203 142.793 33.8668H142.456C142.416 33.8203 142.389 33.6941 142.349 33.5413C142.323 33.3951 142.244 33.3287 142.064 33.3287H141.912V33.8668ZM141.919 33.1095H142.071C142.244 33.1095 142.389 33.0497 142.389 32.9169C142.389 32.7973 142.296 32.7109 142.098 32.7109C142.012 32.7109 141.959 32.7175 141.925 32.7241V33.1095H141.919Z" fill="#686868"/>
<path d="M67.041 20.7198V27.0642H70.0698V18.5342L67.041 20.7198Z" fill="#686868"/>
<path d="M73.5234 16.0429V27.0641H76.5522V13.8572L73.5234 16.0429Z" fill="#686868"/>
<path d="M80.168 11.2465V27.0642H83.1968V9.06079L80.168 11.2465Z" fill="#686868"/>
</g>
</g>
<defs>
<clipPath id="clip0_125_852">
<rect width="160" height="64" fill="white"/>
</clipPath>
</defs>
</svg>
