<svg width="160" height="64" viewBox="0 0 160 64" fill="none" xmlns="http://www.w3.org/2000/svg">
<path d="M17.5996 36.3791V35.0118H22.3924V36.7509C22.3887 36.9795 22.434 37.206 22.5253 37.4155C22.6166 37.6251 22.7516 37.8127 22.9215 37.9656C23.0914 38.1186 23.292 38.2334 23.51 38.3023C23.728 38.3713 23.9582 38.3927 24.1852 38.3653C24.573 38.4179 24.9663 38.3229 25.2873 38.0992C25.6082 37.8755 25.8334 37.5394 25.918 37.1575C26.0463 36.7201 26.0354 36.2535 25.8868 35.8226C24.9592 33.491 18.6208 32.4355 17.8156 28.8013C17.6517 28.003 17.6415 27.1807 17.7856 26.3785C18.28 23.4603 20.8456 22.4049 24.0304 22.4049C26.566 22.4049 30.0604 22.995 30.0604 26.9075V28.1812H25.6084V27.0634C25.6219 26.8431 25.5874 26.6224 25.5074 26.4167C25.4275 26.2109 25.3039 26.0248 25.1452 25.8714C24.9865 25.7179 24.7964 25.6005 24.588 25.5274C24.3796 25.4543 24.1579 25.4271 23.938 25.4478C23.5626 25.4064 23.1853 25.5083 22.8816 25.7328C22.578 25.9574 22.3702 26.2882 22.3 26.6591C22.2499 26.9689 22.2606 27.2854 22.3312 27.5911C22.8556 29.6709 29.6284 30.7899 30.3712 34.5476C30.5569 35.5215 30.567 36.5207 30.4012 37.4982C29.968 40.4775 27.3088 41.5953 24.094 41.5953C20.7196 41.5953 17.5996 40.3839 17.5996 36.3791ZM75.67 36.3179V34.9507H80.402V36.6586C80.394 36.885 80.4356 37.1104 80.5236 37.3193C80.6116 37.5282 80.7428 37.7157 80.91 37.869C81.0772 38.0223 81.2748 38.1377 81.4908 38.2075C81.706 38.2771 81.9348 38.2995 82.1596 38.273C82.5436 38.3303 82.9356 38.2405 83.2564 38.0218C83.5772 37.803 83.8044 37.4712 83.8916 37.0927C84.0196 36.6655 84.0092 36.2087 83.8612 35.7878C82.9636 33.491 76.6864 32.4295 75.8836 28.8013C75.7194 28.0135 75.7088 27.2015 75.8524 26.4097C76.3504 23.5227 78.9196 22.4673 82.0396 22.4673C84.5452 22.4673 88.0076 23.0886 88.0076 26.9387V28.1812H83.5868V27.0946C83.6004 26.8769 83.5676 26.6588 83.49 26.4551C83.4124 26.2512 83.2916 26.0665 83.1364 25.9134C82.9812 25.7603 82.7948 25.6423 82.5892 25.5676C82.3844 25.4928 82.166 25.4631 81.9484 25.4802C81.5796 25.4313 81.2068 25.5269 80.9068 25.7469C80.6068 25.9668 80.4044 26.2942 80.3404 26.6603C80.29 26.97 80.3004 27.2866 80.3708 27.5923C80.8652 29.6721 87.5708 30.7599 88.318 34.4853C88.5036 35.4487 88.514 36.4376 88.3484 37.4046C87.9148 40.3863 85.2868 41.473 82.1084 41.473C78.7636 41.4754 75.67 40.2603 75.67 36.3179ZM92.6156 36.9716C92.5724 36.5794 92.562 36.1842 92.5852 35.7902V22.9327H97.0996V36.192C97.094 36.4203 97.1036 36.6487 97.13 36.8757C97.23 37.2495 97.4516 37.5799 97.7588 37.8154C98.0668 38.0509 98.4428 38.1786 98.8308 38.1786C99.218 38.1786 99.5948 38.0509 99.902 37.8154C100.21 37.5799 100.431 37.2495 100.532 36.8757C100.558 36.6488 100.569 36.4203 100.563 36.192V22.9327H105.08V35.7878C105.08 36.1296 105.048 36.7821 105.048 36.9692C104.74 40.3275 102.111 41.407 98.834 41.407C95.5564 41.407 92.9252 40.3215 92.6156 36.9692V36.9716ZM129.784 36.7845C129.738 36.3908 129.717 35.9947 129.722 35.5983V28.0565C129.722 27.7459 129.752 27.1869 129.783 26.8751C130.185 23.5227 132.876 22.4673 136.06 22.4673C139.215 22.4673 141.996 23.5227 142.308 26.8763C142.344 27.2689 142.354 27.6636 142.337 28.0577V28.6418H137.823V27.6535C137.824 27.4242 137.803 27.1953 137.762 26.9699C137.643 26.5912 137.407 26.2604 137.087 26.0255C136.767 25.7906 136.38 25.6639 135.984 25.6639C135.586 25.6639 135.2 25.7906 134.88 26.0255C134.56 26.2604 134.324 26.5912 134.205 26.9699C134.152 27.2464 134.132 27.5281 134.144 27.8094V36.0061C134.138 36.2344 134.149 36.4628 134.175 36.6898C134.282 37.0963 134.531 37.4514 134.876 37.6911C135.222 37.9307 135.641 38.0392 136.06 37.9971C136.471 38.0408 136.884 37.9323 137.22 37.6919C137.556 37.4516 137.792 37.0963 137.884 36.6934C137.926 36.4679 137.936 36.2379 137.916 36.0097V33.3974H136.092V30.7887H142.4V35.5983C142.404 35.9927 142.384 36.3868 142.337 36.7785C142.029 40.0385 139.217 41.1875 136.06 41.1875C132.903 41.1875 130.092 40.0421 129.784 36.7821V36.7845ZM66.8584 40.8493L66.7384 24.2675L63.6424 40.8493H59.128L56.0656 24.2675L55.9456 40.8493H51.49L51.8608 22.9639H59.128L61.3852 36.938L63.6424 22.9639H70.9084L71.3104 40.8493H66.8584ZM43.1104 40.8493L40.6984 24.2675L38.224 40.8493H33.4012L36.6796 22.9639H44.6272L47.9056 40.8493H43.1104ZM118.683 40.6634L114.2 25.7896L114.447 40.6622H110.055V22.9639H116.672L120.872 37.3722L120.631 22.9639H125.052V40.6646L118.683 40.6634Z" fill="#686868"/>
</svg>
