<svg width="160" height="64" viewBox="0 0 160 64" fill="none" xmlns="http://www.w3.org/2000/svg">
<mask id="mask0_119_2322" style="mask-type:luminance" maskUnits="userSpaceOnUse" x="16" y="13" width="128" height="39">
<path d="M144 13.6H16V51.2H144V13.6Z" fill="white"/>
</mask>
<g mask="url(#mask0_119_2322)">
<path d="M30.5583 19.0771C27.6329 17.7836 25.8879 17.293 24.1548 17.293C22.3349 17.293 21.1666 17.9412 21.1666 18.9433C21.1666 21.9643 31.4697 21.1139 31.4697 28.1076C31.4697 31.9732 28.2186 34.2033 23.7005 34.2033C20.1566 34.2033 18.4145 33.2904 16.4035 32.2587V27.9203C19.302 29.8323 21.074 30.5073 23.3091 30.5073C25.2484 30.5073 26.2973 29.8323 26.2973 28.6547C26.2973 25.3631 15.9941 26.5733 15.9941 19.3715C15.9941 15.9014 19.0092 13.6029 23.7035 13.6029C25.9685 13.6029 28.0125 14.0756 30.5524 15.1639V19.0801" fill="#686868"/>
<path d="M44.9841 33.2697C43.5123 33.846 41.9489 34.1562 40.3674 34.1855C35.5685 34.1855 32.4668 31.4053 32.4668 27.171C32.4668 23.0081 35.688 20.0822 40.1911 20.0822C41.76 20.1262 43.3107 20.4276 44.781 20.9742V24.1529C43.7048 23.5786 42.5085 23.263 41.2878 23.2311C38.712 23.2311 37.0536 24.7714 37.0536 27.1472C37.0536 29.523 38.6822 31.1466 41.1384 31.1466C42.1753 31.1466 43.0956 30.9087 44.9901 30.2039V33.2786" fill="#686868"/>
<path d="M82.3908 25.6159C82.5676 23.7277 83.6668 22.6424 85.3556 22.6424C87.0436 22.6424 88.1372 23.7634 88.3164 25.6159H82.3908ZM85.0804 20.0881C80.87 20.0881 77.873 23.0617 77.873 27.2246C77.873 31.3875 80.978 34.1856 85.7796 34.1856C86.8436 34.1856 89.4196 34.1856 91.8692 32.3777V29.7253C89.8612 31.1496 88.5316 31.6402 86.8164 31.6402C84.1092 31.6402 82.4572 30.2457 82.3076 27.8698H92.1116C92.3148 22.9041 89.0396 20.0912 85.0684 20.0912L85.0804 20.0881Z" fill="#686868"/>
<path d="M93.7695 33.9387H98.0575V20.3379H93.7695V33.9387Z" fill="#686868"/>
<path d="M109.986 30.2217C109.089 31.0216 108.352 31.3427 107.434 31.3427C105.417 31.3427 104.147 29.6894 104.147 27.2125C104.147 24.4977 105.423 22.9337 107.584 22.9337C108.445 22.972 109.279 23.2479 109.992 23.7305L109.986 30.2217ZM109.986 13.8525V20.9384C108.881 20.3844 107.661 20.0933 106.424 20.088C102.516 20.088 99.8086 22.9633 99.8086 27.1263C99.8086 31.197 102.516 34.1943 106.182 34.1943C107.573 34.2266 108.927 33.7458 109.983 32.8443V33.9386H114.274V13.8525H109.986Z" fill="#686868"/>
<path d="M120.619 25.6159C120.798 23.7277 121.892 22.6424 123.577 22.6424C125.262 22.6424 126.371 23.7634 126.565 25.6159H120.619ZM123.284 20.0881C119.073 20.0881 116.083 23.0617 116.083 27.2246C116.083 31.3875 119.199 34.1856 123.998 34.1856C125.062 34.1856 127.637 34.1856 130.097 32.3777V29.7253C128.086 31.1496 126.757 31.6402 125.032 31.6402C122.343 31.6402 120.678 30.2457 120.529 27.8698H130.33C130.533 22.9041 127.255 20.0912 123.284 20.0912V20.0881Z" fill="#686868"/>
<path d="M136.748 24.2331H136.811C138.084 21.4024 139.5 20.0702 141.162 20.0702C142.02 20.0702 142.757 20.3943 144.001 21.3101L142.82 25.0805C141.694 24.3728 140.959 24.0755 140.274 24.0755C138.703 24.0755 137.696 25.5623 136.748 28.0451V33.9119H132.454V20.3259H136.748V24.2331Z" fill="#686868"/>
<path d="M98.2564 14.6198C98.6604 15.6754 97.934 17.1503 96.6428 17.9085C95.3524 18.6667 93.978 18.4259 93.5772 17.3703C93.1764 16.3147 93.8908 14.8368 95.1876 14.0815C96.4844 13.3263 97.85 13.5612 98.2564 14.6198Z" fill="#686868"/>
<path d="M60.4276 25.2828C60.4276 21.5986 57.9116 20.0881 55.4284 20.0881C53.7401 20.0881 52.3506 20.7987 51.1076 22.3628H51.0478V13.8496H46.7568V33.8881H51.0478V25.265C52.0518 23.8198 52.9094 23.2013 53.9134 23.2013C55.2461 23.2013 56.1336 24.1439 56.1336 26.1748V30.9741C57.4726 30.2743 58.9252 29.8153 60.4246 29.6182V25.2828" fill="#686868"/>
<path d="M71.1905 20.0852C69.4424 20.0852 68.1097 20.7304 66.7411 22.2856V20.3409H62.4531V29.5826C63.9472 29.7312 65.8357 30.4092 66.7411 31.5272V25.1758C67.8676 23.4928 68.6685 22.9308 69.7293 22.9308C70.9454 22.9308 71.8687 23.7307 71.8687 25.6456V33.903H76.1598V25.2799C76.1598 21.2746 73.318 20.0703 71.1845 20.0703" fill="#686868"/>
<path d="M78.5364 37.8072H73.5492V41.3309H78.3602V42.8444H73.5492V46.481H78.6829V47.9916H71.8789V36.2968H78.5364V37.8072Z" fill="#686868"/>
<path d="M82.6064 47.9974H84.1336V36.2937H82.6064V47.9974Z" fill="#686868"/>
<path d="M91.6927 41.4437C92.7743 41.4437 93.4463 42.1871 93.4855 43.3527H89.6007C89.8103 42.1335 90.5151 41.4437 91.6927 41.4437ZM89.5799 44.3667H95.0215C95.0215 41.5151 93.7127 40.1354 91.6599 40.1354C89.5319 40.1354 88.0527 41.7024 88.0527 44.0367C88.0527 46.1716 89.3887 48.1431 91.7911 48.1431C92.8951 48.1827 93.9815 47.8633 94.8871 47.2331V45.7464C94.0959 46.3171 93.1527 46.6411 92.1767 46.6771C90.6975 46.6771 89.8191 45.8862 89.5799 44.3578" fill="#686868"/>
<path d="M104.99 42.309C104.11 41.7143 103.525 41.5359 102.856 41.5359C101.458 41.5359 100.489 42.6034 100.489 44.1645C100.489 45.7256 101.52 46.7157 103.11 46.7157C103.822 46.6958 104.522 46.5213 105.159 46.2043V47.6911C104.426 47.9824 103.645 48.1327 102.856 48.1341C100.543 48.1341 98.9385 46.5522 98.9385 44.2893C98.9385 41.7381 100.406 40.1265 102.751 40.1265C103.528 40.1302 104.294 40.3113 104.99 40.6557V42.2971" fill="#686868"/>
<path d="M111.95 40.2842H114.4V41.6521H111.95V45.6098C111.935 45.761 111.954 45.9137 112.003 46.0573C112.053 46.2011 112.132 46.3327 112.237 46.4433C112.342 46.5539 112.469 46.641 112.61 46.6989C112.751 46.7566 112.903 46.7837 113.056 46.7784C113.679 46.7531 114.282 46.5543 114.798 46.2045V47.6288C114.22 47.9297 113.584 48.1041 112.933 48.1402C111.272 48.1402 110.432 47.1144 110.432 45.7228V41.6491H109.084V41.4796L111.953 38.6875V40.2813" fill="#686868"/>
<path d="M120.238 40.2841V42.0682H120.269C121.049 40.7033 121.786 40.1354 122.51 40.1354C123.131 40.1354 123.705 40.4327 124.354 41.0275L123.543 42.3655C123.078 41.9076 122.477 41.5924 122.112 41.5924C121.063 41.5924 120.236 42.6569 120.236 43.9712V47.9943H118.712V40.2841H120.236" fill="#686868"/>
<path d="M139.999 42.3091C139.103 41.7144 138.532 41.536 137.857 41.536C136.462 41.536 135.502 42.6035 135.502 44.1646C135.502 45.7257 136.534 46.7159 138.114 46.7159C138.828 46.6949 139.53 46.5204 140.17 46.2044V47.6912C139.433 47.9814 138.647 48.1316 137.854 48.1343C135.547 48.1343 133.934 46.5523 133.934 44.2895C133.934 41.7383 135.406 40.1266 137.753 40.1266C138.53 40.1311 139.297 40.3121 139.994 40.6559V42.2972" fill="#686868"/>
<path d="M128.398 47.9973H129.926V40.281H128.398V47.9973Z" fill="#686868"/>
<path d="M129.979 37.5129C130.129 37.8846 129.869 38.4049 129.409 38.6814C128.949 38.958 128.455 38.8628 128.318 38.4911C128.181 38.1194 128.431 37.5991 128.894 37.3226C129.358 37.046 129.839 37.1382 129.979 37.5129Z" fill="#686868"/>
<path d="M61.6313 38.1343C61.5417 38.1202 61.4499 38.1279 61.3641 38.157C61.2782 38.1859 61.2006 38.2354 61.1382 38.3008C61.0937 38.3559 61.0675 38.4235 61.0635 38.4941L59.68 43.6621C59.3573 45.473 57.1222 47.2838 54.2057 47.2838H50.1658L50.868 44.6285H53.4736C53.5972 44.6304 53.7196 44.6047 53.8318 44.5532C53.9441 44.5018 54.0433 44.4259 54.1221 44.3311C54.2038 44.2443 54.2587 44.1359 54.2804 44.0189L55.3621 39.5051C55.6818 37.6913 57.6062 35.6901 60.5197 35.6901H64.6702L64.1383 38.1314L61.6313 38.1343ZM62.5666 41.2833L63.0297 39.6122H67.249C67.7689 37.1887 67.3595 34.9408 65.8804 33.4689C62.8922 30.4954 56.6171 31.5034 51.9646 35.9429C51.2655 36.6174 50.6285 37.3528 50.0612 38.1403H52.6011L52.0034 39.8174H48.9765C48.6861 40.3289 48.4286 40.8583 48.2055 41.4022H51.7913L51.2146 43.0793H47.6916C47.0939 45.6395 47.4734 48.0272 48.9914 49.5407C51.9467 52.4815 58.1889 51.4467 62.8504 47.0073C63.627 46.2568 64.3276 45.4322 64.9421 44.5452H61.688L62.1841 42.8741H65.9999C66.2782 42.3593 66.5247 41.828 66.738 41.2833H62.5666Z" fill="#686868"/>
</g>
</svg>
