<svg width="160" height="64" viewBox="0 0 160 64" fill="none" xmlns="http://www.w3.org/2000/svg">
<mask id="mask0_119_2456" style="mask-type:luminance" maskUnits="userSpaceOnUse" x="8" y="14" width="144" height="36">
<path d="M152 14.4H8V49.6H152V14.4Z" fill="white"/>
</mask>
<g mask="url(#mask0_119_2456)">
<path d="M21.5678 15.3273C22.0201 15.0576 22.4724 14.788 22.9246 14.6083C23.1055 15.0576 23.3769 15.5071 23.5578 15.9564C22.5628 16.4957 21.5678 16.9452 20.6633 17.5743C18.1306 19.1023 15.7789 20.8999 13.789 23.1468C12.2513 24.9444 10.985 27.1016 10.7136 29.5284C10.6231 30.9664 10.8945 32.4944 11.799 33.6628C12.613 34.6516 13.8794 35.3706 15.1458 35.5504C16.593 35.82 18.1306 35.6402 19.4874 35.2807C22.2914 34.5616 24.8242 33.2135 27.2663 31.7754C28.7136 30.8766 30.1608 29.9778 31.3367 28.7195C31.789 28.1802 32.1507 27.551 32.1507 26.832C32.1507 26.2927 31.789 25.7534 31.3367 25.5736C30.8844 25.304 30.2513 25.2141 29.7086 25.304C28.985 25.4837 28.2613 25.8433 27.5377 26.2028C25.4573 27.2814 23.6482 28.7195 21.5678 29.798C20.3015 30.4272 18.9447 31.0564 17.4975 31.0564C16.593 31.0564 15.6885 30.6968 15.1458 29.9778C14.6934 29.4385 14.5126 28.8093 14.603 28.0903C14.6934 27.0117 15.1458 25.9332 15.7789 25.1242C16.9548 23.5064 18.5829 22.338 20.3015 21.3492C23.196 19.4618 26.3618 17.9338 29.7086 17.035C31.5176 16.5856 33.3266 16.316 35.1357 16.4059C37.7588 16.4957 40.3819 17.3047 42.5528 18.8326C45.0854 20.6302 46.985 23.5064 47.1658 26.6522C47.4372 29.2588 46.6231 31.8652 45.4472 34.2021C44.5427 35.9997 43.2764 37.6176 41.9196 39.0557C40.8342 40.2241 39.6583 41.3027 38.4824 42.2914C36.9447 43.6396 35.2262 44.808 33.5075 45.8866C31.789 46.9652 29.8894 47.864 27.9899 48.6728C27.4472 48.9425 26.8141 49.2121 26.2714 49.3919C25.9095 47.774 25.3668 46.1562 25.005 44.5384C26.5427 43.8193 28.0804 43.1902 29.6181 42.3812C31.3367 41.4824 32.9648 40.314 34.5025 39.1456C35.8593 38.067 37.1256 36.9884 38.3015 35.7301C40.2914 33.6628 41.9196 30.9664 42.2814 28.0903C42.3718 27.0117 42.3718 26.0231 42.1005 24.9444C41.4674 22.7873 39.9297 20.8999 37.8493 19.8213C36.1306 18.9225 34.1407 18.563 32.2412 18.7428C29.4372 18.9225 26.8141 20.0011 24.3718 21.2594C23.196 21.8885 22.1106 22.5177 21.0251 23.2368C19.9397 23.8659 18.9447 24.5849 18.1306 25.5736C17.7689 26.0231 17.4975 26.5624 17.4975 27.1016C17.4975 27.4612 17.7689 27.9105 18.1306 28.0004C18.7638 28.27 19.4874 28.0004 20.1206 27.7308C23.1055 26.2927 25.6382 24.0456 28.804 22.9671C30.3417 22.4278 32.1507 22.338 33.6885 22.9671C34.9548 23.5064 35.9498 24.6748 36.2211 26.0231C36.3115 26.832 36.3115 27.6409 36.0402 28.36C35.5879 29.5284 34.8643 30.5171 33.9598 31.4159C32.8744 32.4944 31.6081 33.3932 30.3417 34.2021C28.5326 35.1908 26.8141 36.3592 24.9146 37.1682C23.2864 37.8872 21.4774 38.5164 19.7588 38.9658C17.7689 39.5051 15.6885 39.595 13.6985 39.1456C11.7086 38.6962 10.0804 37.6176 9.17584 36.0896C8.36184 34.8313 8 33.3033 8 31.8652C8.09048 30.1576 8.45224 28.4498 9.17584 26.9219C10.4422 24.3153 12.3417 21.9784 14.603 20.0909C16.7738 18.2035 19.1256 16.5856 21.6583 15.2374L21.5678 15.3273Z" fill="#686868"/>
<path d="M42.3711 27.7308V26.1129C42.4616 26.6522 42.4616 27.1915 42.3711 27.7308ZM56.3008 27.4612C57.3862 26.832 58.6525 26.832 59.8285 27.1016C60.4616 27.1915 61.0043 27.6409 61.4565 28.0903C61.0948 28.4498 60.7329 28.8093 60.2807 29.1688C59.5571 28.1802 58.0193 28.0004 57.0244 28.6296C56.3913 29.079 56.2103 30.0676 56.6626 30.6968C57.1149 31.2361 57.8385 31.4159 58.562 31.6855C59.3761 31.8652 60.2807 32.1349 60.9138 32.854C61.547 33.4831 61.6375 34.3819 61.547 35.1908C61.4565 36.0896 60.9138 36.8986 60.0997 37.348C59.2857 37.7974 58.3812 37.9772 57.4766 37.8872C56.3913 37.7974 55.3058 37.348 54.6726 36.4492C55.0344 36.0896 55.4867 35.7301 55.8485 35.4605C56.6626 36.6289 58.4717 36.9884 59.5571 36.0896C60.1902 35.6403 60.3711 34.6516 59.8285 34.0224C59.2857 33.4831 58.4716 33.3033 57.748 33.1236C56.934 32.854 56.1199 32.4944 55.5772 31.7754C55.1249 31.2361 55.0345 30.4272 55.0345 29.7081C55.1249 28.8093 55.6676 28.0903 56.3912 27.6409L56.3008 27.4612ZM101.798 27.4612C102.974 26.832 104.422 26.7421 105.688 27.0117C106.682 27.1915 107.587 27.551 108.22 28.27C107.858 28.6296 107.587 28.9891 107.226 29.3486C105.778 28.0004 103.246 27.8207 101.798 29.2588C100.261 30.6069 100.08 33.1236 101.165 34.7414C101.798 35.6403 102.702 36.2694 103.788 36.4492C104.874 36.5391 105.959 36.4492 106.954 35.9998V33.1236H104.693V31.7754H108.402V36.7188C108.402 36.8986 108.22 36.9884 108.039 37.0784C106.682 37.7075 105.235 37.8872 103.788 37.7974C102.25 37.7075 100.803 36.8986 99.9888 35.6403C99.0849 34.3819 98.8136 32.764 99.0848 31.326C99.356 29.7081 100.351 28.27 101.889 27.551L101.798 27.4612ZM69.145 27.1016H75.8385V28.4498H70.5018V31.5057H75.3862V32.854H70.5018C70.5018 33.9325 70.4113 35.0111 70.5018 36.0896C70.8636 36.1796 71.3158 36.0896 71.6777 36.0896H76.0193V37.4379H69.0545V27.1016H69.145ZM86.9641 27.1016H88.2304C89.6777 30.5171 91.2153 33.9325 92.6625 37.4379C92.1201 37.4379 91.5768 37.5277 91.0344 37.4379C90.6728 36.6289 90.3104 35.7301 89.9488 34.9212H85.0648C84.7024 35.7301 84.4312 36.6289 84.0696 37.4379H82.4417C83.8889 34.0224 85.5168 30.5171 86.9641 27.1016ZM119.798 27.1016H121.065C122.512 30.5171 124.05 33.9325 125.497 37.4379C124.954 37.4379 124.411 37.5277 123.869 37.4379C123.416 36.6289 123.145 35.7301 122.783 34.9212H117.898C117.537 35.7301 117.266 36.6289 116.904 37.4379C116.361 37.5277 115.818 37.4379 115.275 37.4379C116.814 34.0224 118.351 30.5171 119.889 27.1016H119.798ZM129.838 27.1016H137.979V28.4498H134.632V37.4379H133.185V28.4498H129.838V27.1016ZM145.034 27.1016H151.728V28.4498H146.482V31.5057H151.457V32.854H146.482V36.0896H151.999V37.4379H145.034V27.1016Z" fill="#686868"/>
<path d="M85.6074 33.6628C86.2402 32.1349 86.8738 30.517 87.597 28.989C88.2306 30.517 88.8634 32.1349 89.497 33.6628H85.6074ZM118.441 33.6628C119.075 32.1349 119.707 30.517 120.431 28.989C121.064 30.517 121.698 32.1349 122.331 33.6628H118.441Z" fill="white"/>
</g>
</svg>
