<svg width="160" height="64" viewBox="0 0 160 64" fill="none" xmlns="http://www.w3.org/2000/svg">
<mask id="mask0_125_908" style="mask-type:luminance" maskUnits="userSpaceOnUse" x="4" y="16" width="152" height="32">
<path d="M156 16H4V48H156V16Z" fill="white"/>
</mask>
<g mask="url(#mask0_125_908)">
<path d="M4 20.1993C5.03728 19.8349 6.09836 19.4805 7.20921 19.4498C7.80647 19.4484 8.4052 19.375 9.00104 19.4427C11.0489 19.5461 13.0224 20.133 15.0162 20.5537C16.4567 20.8838 17.921 21.1362 19.4012 21.1776C19.79 21.1869 20.173 21.0978 20.5618 21.0978C21.5976 21.0015 22.6054 20.6949 23.5568 20.2863C23.5344 20.784 23.5416 21.2832 23.5026 21.7809C23.5078 23.3218 23.432 24.8642 23.4918 26.4052C23.1637 26.4972 22.8571 26.6491 22.531 26.7461C20.9066 27.2588 19.1624 27.2545 17.4882 27.0299C17.4904 25.9746 17.4766 24.9185 17.4962 23.8631C15.8537 24.5734 14.2184 25.2978 12.5824 26.0223C11.3425 25.7135 10.0722 25.516 8.79616 25.424C8.27104 25.372 7.73867 25.372 7.21426 25.4354C6.54774 25.4575 5.88917 25.5838 5.2479 25.762C4.82304 25.8961 4.37942 26.0074 4.00794 26.2626C4.03462 24.2418 4.01587 22.2202 4 20.1993Z" fill="#686868"/>
<path d="M114.593 20.0272C115.228 19.8091 115.901 19.7342 116.567 19.6907C117.024 19.7413 117.486 19.7542 117.937 19.8561C119.035 20.0686 120.087 20.6926 120.664 21.6588C121.082 22.2999 121.305 23.0436 121.402 23.7952C121.597 25.5052 121.314 27.2144 121.214 28.9194C121.017 31.1164 120.787 33.3105 120.625 35.5096C118.938 35.4861 117.25 35.4861 115.564 35.5089C115.71 33.6385 115.917 31.7732 116.061 29.9027C116.145 29.0948 116.199 28.284 116.281 27.4761C116.402 26.6782 116.439 25.8667 116.378 25.0616C116.338 24.5696 116.146 24.0519 115.717 23.7645C115.192 23.3987 114.496 23.4236 113.897 23.5656C113.223 23.726 112.676 24.2009 112.28 24.7472C111.94 25.2392 111.735 25.8075 111.573 26.378C111.202 27.695 111.217 29.0734 111.068 30.4225C110.948 32.1204 110.745 33.8132 110.64 35.514C108.948 35.484 107.255 35.4847 105.562 35.5096C105.846 32.8377 106.015 30.1559 106.284 27.4818C106.35 26.629 106.428 25.7704 106.325 24.9161C106.297 24.4533 106.116 23.9442 105.684 23.7075C105.133 23.4044 104.461 23.4208 103.868 23.577C103.184 23.7439 102.604 24.2173 102.239 24.8049C101.458 25.9458 101.354 27.3634 101.227 28.694C101.117 29.8578 101.031 31.0251 100.905 32.186C100.862 33.2956 100.696 34.3987 100.676 35.5089C98.9804 35.4861 97.2844 35.494 95.5892 35.499C95.8724 31.781 96.2804 28.0722 96.5572 24.3528C96.6708 22.9274 96.8508 21.5062 96.922 20.0779C98.6124 20.0886 100.303 20.0915 101.994 20.0786C101.928 20.8252 101.858 21.5718 101.782 22.317C102.769 21.0399 104.188 20.0152 105.828 19.7884C107.044 19.6301 108.357 19.7648 109.407 20.4401C110.217 20.9372 110.852 21.7194 111.135 22.6229C111.451 22.2877 111.726 21.9169 112.064 21.6011C112.777 20.9029 113.637 20.3403 114.593 20.0272ZM33.3345 19.7976C33.6368 19.7092 33.9563 19.7677 34.2658 19.742C35.0347 19.7278 35.8065 19.7249 36.5712 19.8084C37.9431 19.8989 39.2892 20.197 40.6287 20.4886C40.7541 20.5164 40.8782 20.5521 41.0009 20.5928C40.8977 21.2937 40.8833 22.0032 40.8097 22.707C40.7657 23.2561 40.7188 23.8044 40.6986 24.3543C40.2261 24.2144 39.7782 24.0063 39.3101 23.8536C38.3232 23.4886 37.2845 23.2917 36.2451 23.1348C35.3478 23.0258 34.4324 22.993 33.5387 23.1563C33.1016 23.2582 32.6291 23.3602 32.3066 23.694C32.1595 23.8301 32.0823 24.0163 32.0167 24.1995C31.9221 24.576 31.9871 25.0252 32.3161 25.2734C32.6507 25.5101 33.0677 25.5864 33.4615 25.6748C35.078 25.9465 36.7328 26.0585 38.3002 26.5648C39.1448 26.845 40.0285 27.2315 40.5356 27.9945C41.1639 28.96 41.2057 30.1701 41.0644 31.2761C41.0319 31.4137 41.0095 31.5535 40.9893 31.6932C40.9669 31.7688 40.946 31.8452 40.928 31.9228C40.6986 32.9939 39.9953 33.9231 39.0987 34.5477C38.5952 34.8978 38.0275 35.146 37.4505 35.3507C36.7291 35.6088 35.9609 35.6865 35.2049 35.7864C34.4172 35.8997 33.6188 35.8726 32.8253 35.8769C31.2492 35.8327 29.6817 35.6038 28.1481 35.248C27.7218 35.1446 27.3021 35.0105 26.8685 34.9378C26.9681 33.6571 27.1051 32.3792 27.1736 31.0964C27.6461 31.3139 28.1135 31.5428 28.5997 31.7296C30.292 32.355 32.1133 32.6524 33.9188 32.5454C34.5428 32.5168 35.1877 32.4049 35.7178 32.0584C36.2639 31.7218 36.5336 30.9638 36.2501 30.3798C36.1095 30.086 35.7936 29.9291 35.4921 29.8449C34.7145 29.626 33.9065 29.5526 33.1088 29.4413C31.7887 29.241 30.429 29.037 29.246 28.3839C28.371 27.9289 27.75 27.039 27.618 26.0713C27.4542 25.2392 27.5444 24.3864 27.7045 23.5613C27.9793 22.3847 28.7605 21.3344 29.8281 20.7418C30.8979 20.1528 32.122 19.8868 33.3345 19.7976ZM50.6776 19.7606C51.4342 19.7442 52.1916 19.7192 52.949 19.7477C54.2691 19.8426 55.5992 20.1378 56.7555 20.7945C57.1825 21.052 57.5936 21.34 57.9594 21.6773C58.931 22.6243 59.5759 23.8864 59.7851 25.2185C60.0584 26.8472 59.9048 28.5336 59.423 30.1102C59.1128 31.1271 58.6 32.0826 57.9197 32.9048C57.0628 33.9444 55.9043 34.7174 54.6499 35.2116C53.5614 35.6459 52.3828 35.8056 51.2185 35.879C49.954 35.9624 48.6824 35.7935 47.4575 35.4804C46.3885 35.1616 45.3844 34.6019 44.5852 33.8268C44.042 33.2471 43.5811 32.5824 43.2724 31.8516C42.784 30.6279 42.6917 29.2866 42.7703 27.9838C42.8662 26.7295 43.1165 25.4688 43.6828 24.3343C44.319 23.0422 45.3014 21.9056 46.54 21.144C47.604 20.4636 48.8316 20.0651 50.0767 19.8632C50.2757 19.8269 50.4777 19.8133 50.6804 19.8105L50.6776 19.7606ZM49.7802 23.8529C48.9737 24.422 48.5179 25.3461 48.2387 26.261C47.9761 27.4796 47.8319 28.7511 48.08 29.984C48.2221 30.7356 48.6181 31.468 49.268 31.9036C50.6609 32.7493 52.7089 32.3736 53.6242 31.0087C54.3686 29.9405 54.6384 28.617 54.691 27.3399C54.7134 26.3965 54.6824 25.3918 54.1688 24.5632C53.8175 23.9264 53.1762 23.4544 52.4499 23.3331C51.541 23.1848 50.534 23.2917 49.7802 23.8529ZM65.4208 20.9122C66.6493 20.2683 68.0212 19.896 69.4069 19.7991C69.8044 19.7092 70.2177 19.7613 70.6224 19.7371C71.7607 19.7064 72.9004 19.8397 74.0047 20.1172C74.5068 20.2548 75.0001 20.4237 75.5087 20.5385C75.3889 21.9276 75.2353 23.3153 75.1913 24.7087C73.9824 23.721 72.3961 23.2055 70.8323 23.2711C69.9076 23.3103 68.9691 23.5599 68.2175 24.1111C67.2494 24.78 66.6652 25.886 66.448 27.0155C66.2814 27.9724 66.2576 28.97 66.505 29.9156C66.7762 30.7663 67.3887 31.5264 68.2023 31.9257C69.0037 32.2573 69.8902 32.4292 70.7587 32.3286C72.1271 32.2288 73.507 31.796 74.5825 30.9338C74.4924 32.3129 74.3409 33.6877 74.2471 35.0661C73.2581 35.4027 72.2375 35.6401 71.1988 35.7564C69.689 35.9753 68.1453 35.9176 66.6508 35.6216C65.2982 35.3677 64.0157 34.7403 63.0124 33.8047C62.1352 32.944 61.5048 31.8309 61.2674 30.6293C61.1022 29.7829 61.0517 28.9136 61.1116 28.0544C61.1996 26.4871 61.6136 24.9097 62.4857 23.5848C63.2056 22.4603 64.2372 21.5426 65.4208 20.9122ZM84.734 19.792C86.0732 19.6757 87.4436 19.6943 88.7556 20.018C90.2692 20.3588 91.698 21.1732 92.6292 22.4196C93.49 23.5384 93.8644 24.9561 93.9132 26.3444C93.99 27.6037 93.7884 28.8659 93.4556 30.0788C93.058 31.3517 92.3716 32.5476 91.3996 33.4781C90.3588 34.4778 89.0436 35.1873 87.6396 35.5417C85.8932 35.9268 84.0652 36.0238 82.3052 35.6716C80.4964 35.3699 78.7662 34.3644 77.791 32.8036C77.1707 31.8288 76.8432 30.6864 76.7703 29.5412C76.665 28.16 76.8288 26.7544 77.2645 25.4367C77.8573 23.47 79.2812 21.7608 81.1236 20.8138C82.2348 20.2205 83.482 19.9089 84.734 19.792ZM86.3036 23.3124C85.634 23.2561 84.934 23.2782 84.3132 23.5584C83.5244 23.895 82.9508 24.5924 82.6028 25.3512C82.0324 26.6696 81.8684 28.1379 82.0148 29.5576C82.1108 30.414 82.474 31.2911 83.1724 31.8359C84.1468 32.4776 85.4764 32.5212 86.51 31.9877C87.3636 31.5699 87.9188 30.7313 88.242 29.8706C88.5532 28.9679 88.698 28.0124 88.7076 27.0596C88.7252 26.2653 88.6284 25.4452 88.2788 24.7222C87.9132 23.9613 87.1532 23.4072 86.3036 23.3124ZM128.968 20.3646C129.784 20.06 130.643 19.8704 131.512 19.7962C131.911 19.7114 132.322 19.7577 132.726 19.7328C134.183 19.6971 135.676 19.9481 136.963 20.6491C138.142 21.3065 139.106 22.3391 139.656 23.5648C140.12 24.566 140.287 25.6784 140.288 26.7737C140.295 27.5873 140.193 28.3974 140.135 29.2082C139.448 29.1419 138.756 29.1918 138.066 29.174C135.684 29.1654 133.303 29.1704 130.921 29.1704C130.114 29.1625 129.307 29.1882 128.5 29.1512C128.603 29.9063 128.696 30.7184 129.206 31.3296C129.52 31.7732 130.007 32.0512 130.501 32.2588C131.163 32.5048 131.878 32.5853 132.582 32.5725C134.479 32.5518 136.338 32.022 138.059 31.2576C138.462 31.0679 138.889 30.9132 139.247 30.64C139.164 31.9478 138.992 33.2499 138.943 34.5598C138.208 34.7837 137.48 35.0233 136.738 35.2216C135.6 35.5624 134.412 35.6951 133.235 35.817C131.701 35.9739 130.144 35.8833 128.642 35.5417C127.224 35.1938 125.873 34.4572 124.951 33.3191C124.26 32.5112 123.868 31.5014 123.64 30.4782C123.382 28.8409 123.473 27.1396 123.986 25.5572C124.681 23.1712 126.595 21.1775 128.968 20.3646ZM131.428 23.204C130.601 23.4001 129.904 23.9756 129.454 24.6759C129.178 25.1351 128.995 25.6413 128.821 26.1448C129.016 26.1362 129.213 26.122 129.412 26.1205C131.375 26.1127 133.339 26.1127 135.301 26.1376C135.246 25.5729 135.262 24.9739 134.99 24.4576C134.688 23.8095 134.073 23.316 133.375 23.1427C132.736 22.9723 132.06 23.0415 131.428 23.204ZM149.407 19.844C150.934 19.6629 152.496 19.6821 154.005 20.0037C154.686 20.1136 155.327 20.3824 156.001 20.5228C155.927 21.9184 155.767 23.3075 155.692 24.7022C155.216 24.2758 154.64 23.9841 154.054 23.7381C153.376 23.4579 152.645 23.3068 151.912 23.2875C151.626 23.2219 151.339 23.2982 151.052 23.3024C149.934 23.3731 148.827 23.8558 148.086 24.698C147.452 25.3875 147.089 26.2796 146.922 27.188C146.878 27.7356 146.773 28.2833 146.834 28.8352C146.892 29.2838 146.932 29.7452 147.116 30.1644C147.411 30.8782 147.937 31.5185 148.632 31.8829C149.296 32.1924 150.031 32.33 150.763 32.3636C152.178 32.3236 153.612 31.9685 154.793 31.1741C154.906 31.0921 155.008 30.9966 155.116 30.9053C154.988 32.2965 154.86 33.6863 154.77 35.0796C153.999 35.3057 153.227 35.5432 152.428 35.6559C151.541 35.8028 150.646 35.8862 149.748 35.9118C148.859 35.8726 147.969 35.7928 147.099 35.6045C146.053 35.4034 145.06 34.9635 144.195 34.3516C143.019 33.5088 142.174 32.2366 141.835 30.8432C141.657 30.1173 141.6 29.3672 141.611 28.6228C141.618 27.1944 141.884 25.7526 142.513 24.4598C143.073 23.2704 143.958 22.2378 145.034 21.4727C146.312 20.5592 147.851 20.0458 149.407 19.844ZM12.584 26.0221C14.22 25.2976 15.8552 24.5732 17.4977 23.8629C17.4782 24.9183 17.4919 25.9744 17.4897 27.0297C17.4897 27.9239 17.484 28.8188 17.4969 29.713C19.495 29.7066 21.4932 29.7308 23.4905 29.7044C23.4451 30.7448 23.4818 31.7874 23.4746 32.8285C23.4789 33.7883 23.4588 34.7488 23.4877 35.7086C21.4715 35.6487 19.4532 35.668 17.4357 35.6723C17.4385 33.7276 17.4594 31.7831 17.427 29.8392C16.3876 30.3391 15.3207 30.7805 14.2661 31.249C11.1673 32.6117 8.06981 33.978 4.96884 35.3364C4.64496 35.499 4.28718 35.6052 4.00586 35.8391C4.0275 33.809 4.0174 31.7781 4.0138 29.748C5.21337 29.3087 6.35596 28.7312 7.53246 28.237C9.21965 27.506 10.8953 26.748 12.584 26.0221ZM46.5068 39.0687C46.9331 39.0872 47.3601 39.0686 47.7872 39.0736C47.78 39.428 47.7821 39.7824 47.7828 40.1368C47.3573 40.1361 46.9324 40.1197 46.5082 40.1354C46.5097 39.7796 46.5111 39.4237 46.5068 39.0687ZM118.852 39.0693C119.272 39.0857 119.695 39.0793 120.116 39.0779C120.106 40.1804 120.115 41.2828 120.108 42.3852C120.106 43.0655 120.134 43.7464 120.094 44.4268C119.686 44.3248 119.267 44.3932 118.855 44.4089C118.868 42.6291 118.88 40.8485 118.852 39.0693ZM134.916 39.0793C135.348 39.0836 135.78 39.0765 136.212 39.0736C136.207 39.4295 136.208 39.7853 136.206 40.1411C135.777 40.139 135.35 40.1319 134.923 40.144C134.918 39.7888 134.917 39.4337 134.916 39.0793ZM106.211 39.4266C107.136 39.0401 108.152 39.3211 109.103 39.4373C109.096 39.8444 109.1 40.2524 109.11 40.6596C108.735 40.4056 108.28 40.3087 107.84 40.2395C107.493 40.1988 107.116 40.186 106.801 40.3544C106.594 40.4592 106.587 40.738 106.651 40.9298C106.741 41.0581 106.909 41.1002 107.054 41.1437C107.709 41.312 108.431 41.342 108.996 41.7491C109.4 42.07 109.48 42.6284 109.416 43.1082C109.381 43.6444 109.017 44.1714 108.48 44.3169C107.484 44.6249 106.436 44.3975 105.448 44.1814C105.44 43.7607 105.432 43.3392 105.422 42.9185C106.032 43.355 106.805 43.5475 107.553 43.4733C107.758 43.4534 107.983 43.3728 108.087 43.1824C108.184 42.9485 108.1 42.614 107.831 42.5392C107.168 42.3139 106.411 42.3117 105.836 41.8753C105.07 41.2357 105.268 39.8038 106.211 39.4266ZM4.09675 39.2883C4.55696 39.2983 5.01861 39.3132 5.47882 39.2954C5.43698 40.9982 5.47088 42.7025 5.47305 44.406C5.01572 44.4039 4.55768 44.359 4.1018 44.4082C4.1155 42.7018 4.15662 40.994 4.09675 39.2883ZM67.7933 39.2976C68.5435 39.3168 69.2944 39.3118 70.0453 39.3147C70.6354 39.3268 71.2752 39.458 71.6892 39.9065C72.2894 40.6217 72.1711 41.8939 71.317 42.3688C70.6649 42.7396 69.8837 42.6426 69.1646 42.6248C69.153 43.2188 69.1999 43.8113 69.197 44.4053C68.7296 44.4032 68.2622 44.3953 67.7955 44.4096C67.8005 42.7053 67.8438 41.0011 67.7933 39.2976ZM69.1696 40.2766C69.1718 40.7451 69.1668 41.2128 69.1668 41.6814C69.5461 41.6621 69.9544 41.747 70.3101 41.578C70.7832 41.374 70.7969 40.544 70.2928 40.3728C69.9263 40.2795 69.544 40.3008 69.1696 40.2766ZM41.4921 39.4929C41.909 39.5072 42.3267 39.5022 42.7436 39.4851C42.7378 39.8537 42.7364 40.2231 42.7371 40.5925C43.1562 40.5932 43.5768 40.5889 43.9965 40.5775C43.9872 40.8813 44.0168 41.1851 44.0001 41.4896C43.576 41.4796 43.1519 41.4845 42.7277 41.4803C42.7328 42.0215 42.7356 42.5635 42.7486 43.1047C42.7595 43.206 42.7421 43.3228 42.8085 43.4106C43.1526 43.5425 43.5299 43.4748 43.8884 43.4784C43.8898 43.7878 43.8876 44.098 43.8912 44.4082C43.3264 44.3782 42.7509 44.441 42.1954 44.314C41.8131 44.2249 41.5303 43.8669 41.5173 43.4812C41.4913 42.808 41.5101 42.1342 41.5101 41.461C41.3096 41.4696 41.1098 41.4839 40.9107 41.5038C40.9093 41.19 40.9114 40.8763 40.9085 40.5625C41.1134 40.5754 41.3189 40.584 41.5252 40.5911C41.513 40.2245 41.5238 39.858 41.4921 39.4929ZM129.918 39.4951C130.347 39.5022 130.776 39.4965 131.206 39.4965C131.199 39.853 131.196 40.2103 131.196 40.5676C131.616 40.5661 132.035 40.5689 132.455 40.5754C132.414 40.8863 132.42 41.2 132.428 41.5124C132.015 41.4945 131.602 41.5095 131.191 41.4796C131.193 42.1313 131.172 42.786 131.227 43.4363C131.592 43.5211 131.973 43.4961 132.342 43.4391C132.336 43.7664 132.332 44.0944 132.337 44.4224C131.768 44.3711 131.19 44.426 130.628 44.3219C130.197 44.2335 129.955 43.8006 129.939 43.3942C129.91 42.7545 129.93 42.1135 129.92 41.4732C129.72 41.4867 129.52 41.5016 129.322 41.5173C129.32 41.1993 129.322 40.8806 129.307 40.5632C129.511 40.5654 129.716 40.5704 129.923 40.5718C129.924 40.2132 129.925 39.8537 129.918 39.4951ZM10.5866 40.5191C11.0489 40.4371 11.5993 40.4998 11.9369 40.8528C12.1469 41.1295 12.3012 41.4653 12.294 41.8176C12.299 42.679 12.3055 43.5411 12.3005 44.4032C11.8785 44.3868 11.4565 44.3968 11.0353 44.406C11.0093 43.5689 11.0915 42.7282 11.0035 41.8932C10.9805 41.6528 10.7936 41.4176 10.531 41.4254C10.0305 41.3926 9.69357 41.9138 9.69933 42.3602C9.69213 43.0384 9.69573 43.7172 9.69285 44.396C9.27229 44.3932 8.85109 44.384 8.43053 44.4075C8.44061 43.1253 8.47741 41.8425 8.42333 40.5604C8.84741 40.5847 9.27229 40.5789 9.69645 40.5632C9.68349 40.7558 9.67773 40.949 9.67485 41.1423C9.91357 40.8584 10.2014 40.5775 10.5866 40.5191ZM17.1435 40.584C17.6153 40.4036 18.1923 40.4477 18.5934 40.7658C18.9237 41.0317 19.0327 41.4675 19.0457 41.8711C19.0832 42.7132 19.0767 43.5568 19.0738 44.3996C18.6439 44.4103 18.214 44.359 17.7848 44.396C17.779 43.606 17.7898 42.8166 17.7884 42.0265C17.7934 41.7791 17.639 41.5167 17.3909 41.446C17.1031 41.3968 16.7734 41.516 16.6299 41.7784C16.4575 42.0436 16.4568 42.3702 16.4366 42.674C16.4316 43.2408 16.4301 43.8078 16.4366 44.3747C16.0168 44.3904 15.5962 44.3904 15.1757 44.4018C15.1656 43.1246 15.193 41.8475 15.1649 40.5704C15.6005 40.5818 16.0369 40.5825 16.4727 40.5689C16.4316 40.7494 16.4106 40.9333 16.4099 41.1188C16.6421 40.9262 16.842 40.6724 17.1435 40.584ZM23.3369 40.5169C24.0272 40.4242 24.8156 40.5191 25.3407 41.0118C25.7208 41.3626 25.8767 41.8868 25.9076 42.3866C25.9437 43.0733 25.6689 43.8228 25.0465 44.185C24.465 44.5073 23.7567 44.5316 23.1147 44.4068C22.6458 44.3233 22.213 44.0416 21.967 43.6345C21.6028 43.0584 21.597 42.3239 21.791 41.6885C22.006 41.0339 22.6559 40.5832 23.3369 40.5169ZM23.6081 41.4004C23.4537 41.4432 23.2907 41.5102 23.2063 41.6536C22.948 42.0308 22.9416 42.5235 23.0476 42.9528C23.1111 43.2016 23.2532 43.4698 23.5222 43.544C23.8 43.601 24.1527 43.596 24.3417 43.3528C24.6489 42.9606 24.6533 42.4158 24.53 41.9552C24.4377 41.5665 23.9997 41.2999 23.6081 41.4004ZM34.8998 40.656C35.8232 40.5055 36.8135 40.3265 37.7116 40.6844C38.1862 40.8748 38.4322 41.369 38.4617 41.8532C38.508 42.704 38.4776 43.5568 38.5028 44.4082C38.0629 44.3889 37.6228 44.3911 37.1836 44.4103C37.2009 44.2178 37.2139 44.0252 37.2211 43.8328C37.0212 44.0773 36.7976 44.3362 36.4738 44.4117C35.9486 44.5416 35.311 44.5101 34.9143 44.1008C34.5593 43.72 34.5385 43.1389 34.7015 42.669C34.8219 42.3267 35.1717 42.1299 35.5072 42.0393C36.0547 41.8789 36.6303 41.9309 37.1922 41.9302C37.2888 41.6678 37.0588 41.4154 36.807 41.3684C36.1585 41.2214 35.461 41.3533 34.8904 41.6842C34.8955 41.3412 34.9077 40.9989 34.8998 40.656ZM36.1535 42.7567C35.8188 42.8344 35.7358 43.3222 35.9985 43.5247C36.2163 43.6872 36.5229 43.6444 36.7659 43.5668C37.1252 43.4184 37.2506 42.9906 37.1951 42.6369C36.8481 42.6768 36.4918 42.6683 36.1535 42.7567ZM57.2157 41.1195C57.6716 40.5968 58.4124 40.4477 59.0804 40.4884C59.6754 40.524 60.2756 40.8107 60.5872 41.3291C60.8858 41.7698 60.875 42.3167 60.9219 42.8237C59.9474 42.8316 58.9736 42.8244 57.9991 42.8252C58.0813 43.1424 58.2602 43.4926 58.6129 43.5732C59.3292 43.7322 60.0729 43.5125 60.6954 43.1596C60.6976 43.5033 60.6918 43.8477 60.6868 44.1914C59.8666 44.4182 58.9873 44.5779 58.144 44.384C57.497 44.2399 56.9452 43.718 56.8255 43.064C56.7281 42.4059 56.7317 41.64 57.2157 41.1195ZM58.6007 41.354C58.2818 41.4439 58.1022 41.7591 58.0063 42.0508C58.5617 42.0379 59.1179 42.0479 59.674 42.0379C59.5745 41.7904 59.436 41.5488 59.2246 41.379C59.0371 41.2671 58.8012 41.2999 58.6007 41.354ZM75.9956 40.5197C76.6801 40.4085 77.4426 40.5069 78.0002 40.9412C78.5036 41.3598 78.6559 42.05 78.6112 42.6732C78.6112 43.3228 78.2512 43.9811 77.6409 44.2556C77.0444 44.5073 76.3621 44.533 75.7359 44.3832C75.2916 44.2777 74.884 44.001 74.6669 43.5981C74.3473 43.0797 74.3668 42.4365 74.4671 41.8589C74.6099 41.138 75.2815 40.621 75.9956 40.5197ZM76.3382 41.4004C76.0469 41.4439 75.8542 41.6828 75.7836 41.9516C75.6364 42.3852 75.6667 42.8936 75.9112 43.2872C76.1132 43.5974 76.5539 43.6245 76.8728 43.4968C77.1656 43.37 77.2716 43.0376 77.3048 42.7474C77.3336 42.4165 77.3336 42.06 77.1707 41.7598C77.0184 41.471 76.6492 41.3362 76.3382 41.4004ZM90.7412 40.5454C91.4724 40.3907 92.3356 40.5076 92.8572 41.0831C93.3116 41.5423 93.354 42.2162 93.3996 42.8216C92.426 42.8223 91.4524 42.843 90.4804 42.7973C90.4996 43.1553 90.7412 43.5283 91.1196 43.5846C91.8244 43.7051 92.5556 43.5132 93.166 43.161C93.17 43.4997 93.1676 43.8384 93.158 44.1772C92.3548 44.4175 91.4908 44.5679 90.6572 44.3989C90.0252 44.2798 89.466 43.8035 89.2988 43.1824C89.1764 42.7032 89.1676 42.1841 89.3244 41.7106C89.526 41.0995 90.1036 40.6438 90.7412 40.5454ZM90.4804 42.0479C91.0284 42.0308 91.5756 42.05 92.1236 42.0372C92.0348 41.7769 91.8868 41.5209 91.65 41.3684C91.1564 41.153 90.5452 41.5302 90.4804 42.0479ZM97.8196 40.616C98.1532 40.4791 98.522 40.472 98.8788 40.4748C98.874 40.8763 98.8916 41.2778 98.9172 41.6792C98.574 41.5216 98.1684 41.4325 97.8052 41.5758C97.4404 41.7348 97.2724 42.152 97.27 42.5256C97.2652 43.1503 97.2804 43.7756 97.27 44.4004C96.8468 44.3975 96.4228 44.3911 96.0004 44.4096C95.9948 43.1296 96.0596 41.8489 95.994 40.5696C96.418 40.5811 96.8428 40.5796 97.2668 40.5625C97.2348 40.7629 97.2148 40.9647 97.214 41.1672C97.4108 40.9797 97.574 40.7465 97.8196 40.616ZM113.726 40.5112C114.414 40.4235 115.184 40.5419 115.703 41.0332C116.165 41.4974 116.269 42.1912 116.203 42.8159C116.161 43.4804 115.707 44.1258 115.052 44.3262C114.473 44.5016 113.84 44.518 113.256 44.3554C112.619 44.1814 112.129 43.6052 112.032 42.9642C111.954 42.4208 111.975 41.8254 112.28 41.3476C112.577 40.8449 113.149 40.5597 113.726 40.5112ZM113.79 41.4439C113.644 41.4984 113.525 41.6057 113.456 41.7441C113.227 42.1727 113.248 42.7053 113.427 43.1475C113.588 43.5611 114.14 43.6673 114.512 43.4833C114.816 43.2723 114.9 42.8751 114.919 42.53C114.913 42.2204 114.885 41.8775 114.671 41.6336C114.465 41.3812 114.083 41.3106 113.79 41.4439ZM140.485 40.5176C141.18 40.4242 141.969 40.5069 142.504 40.9996C143.028 41.4952 143.174 42.2804 143.039 42.9649C142.964 43.4527 142.658 43.8976 142.243 44.1657C141.648 44.4959 140.924 44.5451 140.267 44.4024C139.8 44.3084 139.368 44.0288 139.125 43.6209C138.769 42.9956 138.732 42.2062 139.019 41.548C139.264 40.969 139.868 40.5925 140.485 40.5176ZM140.688 41.4318C140.368 41.5238 140.208 41.8632 140.177 42.1677C140.15 42.5706 140.137 43.0269 140.413 43.3578C140.612 43.591 140.962 43.5988 141.242 43.5347C141.506 43.4633 141.652 43.2024 141.71 42.9549C141.798 42.5713 141.798 42.1499 141.631 41.7869C141.474 41.4468 141.033 41.2849 140.688 41.4318ZM147.649 40.5818C148.104 40.4142 148.646 40.4556 149.056 40.7187C149.408 40.9918 149.572 41.4524 149.56 41.8868C149.561 42.716 149.567 43.5453 149.566 44.3747C149.148 44.3676 148.731 44.396 148.314 44.4004C148.318 43.6352 148.32 42.8693 148.313 42.1035C148.323 41.8268 148.178 41.4867 147.874 41.434C147.333 41.3491 146.937 41.8939 146.955 42.3816C146.943 43.0569 146.95 43.7322 146.948 44.4075C146.532 44.3632 146.112 44.3632 145.696 44.4046C145.688 43.1268 145.716 41.8482 145.688 40.5704C146.108 40.5804 146.531 40.5847 146.951 40.5554C146.935 40.7416 146.925 40.9284 146.928 41.1166C147.163 40.9326 147.356 40.6809 147.649 40.5818ZM153.344 40.5204C154.062 40.3971 154.781 40.5625 155.49 40.6652C155.488 41.006 155.488 41.3462 155.51 41.6864C154.996 41.4553 154.436 41.2828 153.864 41.3163C153.708 41.3312 153.535 41.342 153.415 41.4517C153.333 41.5723 153.352 41.7199 153.384 41.8532C154.016 42.04 154.723 41.9723 155.306 42.3139C155.569 42.45 155.697 42.7452 155.719 43.0262C155.75 43.36 155.736 43.7379 155.5 44.0032C155.24 44.304 154.825 44.3953 154.446 44.4374C153.727 44.528 153.011 44.3825 152.304 44.2756C152.286 43.9219 152.292 43.5675 152.285 43.2131C152.762 43.5475 153.361 43.6338 153.934 43.6252C154.132 43.6109 154.357 43.5952 154.515 43.4576C154.592 43.3428 154.544 43.1952 154.556 43.0668C153.936 42.8458 153.211 42.9628 152.646 42.5898C152.184 42.2825 152.157 41.6343 152.341 41.1636C152.512 40.7729 152.934 40.5632 153.344 40.5204ZM28.0053 40.5611C28.454 40.5825 28.9034 40.5818 29.3528 40.5754C29.5872 41.4404 29.963 42.2611 30.2083 43.1246C30.3468 43.0276 30.3612 42.8487 30.416 42.7032C30.631 41.983 30.9311 41.2906 31.1445 40.5704C31.5824 40.5782 32.021 40.5896 32.4589 40.5775C32.0708 41.4553 31.7447 42.358 31.3848 43.2473C31.2282 43.6295 31.0811 44.0145 30.9498 44.406C30.4809 44.3889 30.0106 44.384 29.5425 44.4103C29.145 43.2851 28.6754 42.1869 28.2376 41.0767C28.1677 40.9012 28.0868 40.7308 28.0053 40.5611ZM46.496 40.5796C46.9252 40.5953 47.3551 40.5896 47.7843 40.5882C47.7604 41.8518 47.7886 43.1154 47.7778 44.3789C47.3544 44.374 46.9259 44.3404 46.5111 44.4396C46.5104 43.1524 46.5053 41.866 46.496 40.5796ZM50.1928 40.5818C50.6364 40.5825 51.08 40.5889 51.5236 40.5775C51.5734 40.8413 51.6614 41.0952 51.7596 41.3448C51.9889 41.9302 52.1721 42.532 52.3828 43.124C52.4549 43.0212 52.5162 42.9107 52.5508 42.7895C52.7673 42.0372 53.0774 41.3156 53.3198 40.5718C53.7512 40.5854 54.1825 40.5982 54.6139 40.574C54.0952 41.8447 53.5824 43.1189 53.1077 44.406C52.6367 44.3847 52.1642 44.3904 51.6932 44.4053C51.5301 43.8548 51.2943 43.3293 51.0872 42.7945C50.7994 42.0528 50.4928 41.3184 50.1928 40.5818ZM80.8916 40.5725C81.3228 40.5818 81.7532 40.5754 82.1844 40.5711C82.3012 41.2784 82.4996 41.9688 82.6436 42.6704C82.6884 42.8201 82.6868 42.9984 82.806 43.116C82.9308 42.2611 83.2404 41.4446 83.3364 40.5854C83.7172 40.5832 84.0988 40.5718 84.4804 40.5747C84.6452 41.4254 84.8588 42.2675 85.0412 43.1147C85.194 42.7175 85.2588 42.2953 85.37 41.8868C85.4716 41.4539 85.5908 41.0224 85.6252 40.5775C86.0748 40.5711 86.5244 40.5889 86.974 40.5683C86.7092 41.1915 86.5884 41.8632 86.4036 42.5121C86.246 43.1432 86.062 43.7685 85.9292 44.406C85.4604 44.3975 84.9908 44.3911 84.5228 44.4075C84.3676 43.5447 84.074 42.7118 83.9516 41.8425C83.7972 42.249 83.7204 42.6783 83.6108 43.0976C83.5092 43.5347 83.3668 43.9647 83.322 44.4132C82.862 44.3789 82.4004 44.4075 81.9412 44.3918C81.8492 44.2884 81.8564 44.1229 81.8124 43.9939C81.5204 42.8501 81.226 41.7049 80.8916 40.5725ZM122.999 40.5704C123.418 40.5804 123.838 40.5832 124.259 40.5789C124.246 41.1822 124.251 41.7848 124.252 42.388C124.254 42.6783 124.253 42.977 124.348 43.2552C124.502 43.5768 124.985 43.6267 125.243 43.4006C125.465 43.1967 125.617 42.9064 125.61 42.6012C125.617 41.926 125.621 41.2507 125.608 40.5754L126.877 40.584C126.858 41.8482 126.868 43.1125 126.874 44.3768C126.448 44.3946 126.022 44.3932 125.597 44.4103C125.627 44.2149 125.648 44.0188 125.654 43.822C125.419 44.0616 125.188 44.3404 124.841 44.416C124.37 44.523 123.8 44.5094 123.43 44.1643C123.158 43.8798 123.013 43.4869 123.012 43.0976C122.993 42.2554 123.008 41.4125 122.999 40.5704ZM134.909 40.5804C135.344 40.586 135.78 40.5875 136.216 40.5832C136.195 41.856 136.205 43.1289 136.213 44.4018C135.781 44.3975 135.35 44.3939 134.919 44.4089C134.914 43.1332 134.917 41.8568 134.909 40.5804Z" fill="#686868"/>
</g>
</svg>
