<svg width="160" height="64" viewBox="0 0 160 64" fill="none" xmlns="http://www.w3.org/2000/svg">
<g clip-path="url(#clip0_125_891)">
<mask id="mask0_125_891" style="mask-type:luminance" maskUnits="userSpaceOnUse" x="0" y="0" width="160" height="64">
<path d="M160 0H0V64H160V0Z" fill="white"/>
</mask>
<g mask="url(#mask0_125_891)">
<path d="M24.6172 57.0916H25.665C25.7025 57.4284 25.8147 57.653 25.9644 57.7652C26.1141 57.9149 26.3761 57.9523 26.7129 57.9523C27.349 57.9523 27.6484 57.6904 27.6484 57.2039C27.6484 56.9794 27.5736 56.7922 27.4613 56.68C27.349 56.5677 27.1245 56.4929 26.8625 56.418L26.3012 56.3432C25.2533 56.1561 24.7295 55.6322 24.7295 54.7341C24.7295 54.2102 24.9166 53.7611 25.2533 53.4617C25.6276 53.1623 26.0767 52.9752 26.6754 52.9752C27.2368 52.9752 27.6858 53.1249 28.0226 53.4242C28.3594 53.7237 28.5465 54.1727 28.584 54.6966H27.5361C27.5361 54.3972 27.4238 54.2102 27.2741 54.0979C27.1245 53.9856 26.9 53.9107 26.638 53.9107C26.3386 53.9107 26.1515 53.9856 26.0018 54.0979C25.8521 54.2102 25.7773 54.3973 25.7773 54.6592C25.7773 54.8463 25.8521 55.0335 25.9644 55.1457C26.0767 55.2579 26.3012 55.3328 26.5632 55.4076L27.1619 55.5199C28.1723 55.7071 28.6588 56.231 28.6588 57.1665C28.6588 57.7652 28.4717 58.2143 28.0974 58.5137C27.7233 58.813 27.2368 58.9627 26.6005 58.9627C25.9644 58.9627 25.4779 58.813 25.1411 58.5137C24.8417 58.1394 24.6546 57.6904 24.6172 57.0916ZM33.7856 54.0231V58.8879H32.6629V54.0231H31.1661V53.0501H35.2451V54.0231H33.7856ZM38.4259 57.7278L38.0891 58.8505H36.929L38.9873 53.0501H39.8854L41.9436 58.8505H40.7835L40.4467 57.7278H38.4259ZM39.4363 54.5843L38.7253 56.8297H40.1473L39.4363 54.5843ZM45.6858 56.5303V58.8879H44.6005V53.0875H46.8085C47.3698 53.0875 47.8189 53.2371 48.1557 53.5366C48.4925 53.8359 48.6796 54.285 48.6796 54.8089C48.6796 55.1831 48.6047 55.5199 48.4176 55.7819C48.2305 56.0439 47.9685 56.2309 47.6692 56.3806L48.9415 58.9253H47.6692L46.5839 56.5677H45.6858V56.5303ZM46.7337 55.5947C46.9956 55.5947 47.1827 55.5199 47.3324 55.3703C47.4821 55.2206 47.5569 55.0335 47.5569 54.7715C47.5569 54.547 47.4821 54.3599 47.3324 54.2102C47.1827 54.0605 46.9956 53.9856 46.7337 53.9856H45.6858V55.5574H46.7337V55.5947ZM52.7585 53.0501V57.9149H55.3033V58.8879H51.6733V53.0875H52.7585V53.0501ZM59.27 53.0501V58.8879H58.1848V53.0875H59.27V53.0501ZM66.7918 58.8879H65.7066L63.5736 55.2579V58.8879H62.4135V53.0875H63.4987L65.6317 56.7174V53.0875H66.717V58.8879H66.7918ZM70.9831 57.2413V58.8505H69.8979V53.0501H70.9831V55.7444L73.0039 53.0501H74.3137L72.4425 55.3703L74.4633 58.8505H73.191L71.7689 56.2683L70.9831 57.2413ZM26.2637 45.8651L24.8043 47.2871H37.7149C72.5174 12.3349 122.626 6.12283 135.386 5.07501V5.0376C65.744 9.04177 33.5611 38.8297 26.2637 45.8651Z" fill="#686868"/>
<path d="M61.7389 47.2872H74.4998L56.8366 34.2644C54.7036 35.7238 52.4957 37.3704 50.4001 39.0169L61.7389 47.2872ZM38.4249 20.5679H25.6641L40.6329 31.5325C42.8033 30.0731 45.3106 28.5013 47.6308 27.1541L38.4249 20.5679Z" fill="#686868"/>
</g>
</g>
<defs>
<clipPath id="clip0_125_891">
<rect width="160" height="64" fill="white"/>
</clipPath>
</defs>
</svg>
