<svg width="160" height="64" viewBox="0 0 160 64" fill="none" xmlns="http://www.w3.org/2000/svg">
<mask id="mask0_125_1185" style="mask-type:luminance" maskUnits="userSpaceOnUse" x="46" y="6" width="69" height="52">
<path d="M114.101 6.3999H46.3984V57.5999H114.101V6.3999Z" fill="white"/>
</mask>
<g mask="url(#mask0_125_1185)">
<mask id="mask1_125_1185" style="mask-type:luminance" maskUnits="userSpaceOnUse" x="45" y="3" width="71" height="58">
<path d="M115.255 3.31079H45.6367V60.1558H115.255V3.31079Z" fill="white"/>
</mask>
<g mask="url(#mask1_125_1185)">
<path d="M91.9787 22.8282L92.6187 20.7366V6.41602C85.1491 6.41602 84.3491 9.28656 84.3491 12.029V27.7529C84.3475 28.6 84.2651 29.445 84.1035 30.2766C88.0731 29.551 90.6659 27.0753 91.9731 22.8069" fill="#686868"/>
<path d="M72.8063 8.05396H71.1523V9.68667H72.8063V8.05396Z" fill="#686868"/>
<path d="M74.4626 10.519H72.8086V12.157H74.4626V10.519Z" fill="#686868"/>
<path d="M72.804 12.5784H71.166V14.2111H72.804V12.5784Z" fill="#686868"/>
<path d="M71.1444 15.033H69.5117V16.6656H71.1444V15.033Z" fill="#686868"/>
<path d="M67.8454 6.3999H66.1914V8.0539H67.8454V6.3999Z" fill="#686868"/>
<path d="M69.4994 18.2822H71.1481V21.9265H72.8021V15.8493H74.4561V27.7582C74.4561 33.4086 79.4022 36.135 79.4022 36.135C71.0948 36.135 66.1914 31.0982 66.1914 24.3968V10.9246H67.8454V19.9363H69.4994V18.2822Z" fill="#686868"/>
</g>
<mask id="mask2_125_1185" style="mask-type:luminance" maskUnits="userSpaceOnUse" x="75" y="23" width="18" height="14">
<path d="M80.5736 31.1677C78.737 31.136 76.9395 30.6305 75.3555 29.7005C75.9905 32.1551 77.5634 34.2625 79.7359 35.5697L80.7176 36.1032C88.2304 35.6017 92.6264 30.7676 92.6264 24.4129V23.0364C90.8392 28.8628 86.688 31.4505 80.5736 31.1785" fill="white"/>
</mask>
<g mask="url(#mask2_125_1185)">
<path d="M92.6185 23.0256H75.3477V36.0924H92.6185V23.0256Z" fill="#686868"/>
</g>
<path d="M71.1385 9.70264H69.5059V11.3354H71.1385V9.70264Z" fill="#686868"/>
<mask id="mask3_125_1185" style="mask-type:luminance" maskUnits="userSpaceOnUse" x="45" y="3" width="71" height="58">
<path d="M115.255 3.31079H45.6367V60.1558H115.255V3.31079Z" fill="white"/>
</mask>
<g mask="url(#mask3_125_1185)">
<path d="M88.7948 50.9303C88.1932 50.969 87.5908 50.8849 87.0228 50.6831C86.4548 50.4813 85.934 50.166 85.4924 49.7564C85.0796 49.2926 84.7652 48.75 84.5676 48.1612C84.3708 47.5724 84.2948 46.9499 84.3452 46.331V39.4321C84.7292 39.4321 85.9724 39.5228 85.9724 40.6913V46.6938C86.0148 48.4759 87.0396 49.495 88.7732 49.495C90.5076 49.495 91.5324 48.4706 91.5748 46.6938V40.6913C91.5748 39.5228 92.8236 39.4321 93.2076 39.4321V46.331C93.2644 46.9482 93.1948 47.5704 93.0044 48.1601C92.8132 48.7498 92.5052 49.2947 92.098 49.7618C91.6556 50.1711 91.1348 50.4862 90.5668 50.688C89.9988 50.8898 89.3964 50.974 88.7948 50.9356" fill="#686868"/>
<path d="M50.8441 50.9305C50.2428 50.9693 49.6399 50.8852 49.072 50.6833C48.5042 50.4816 47.9835 50.1663 47.5415 49.7567C47.1281 49.2933 46.8133 48.7506 46.6161 48.1617C46.4189 47.5729 46.3435 46.9501 46.3943 46.3313V39.4324C46.7784 39.4324 48.027 39.5231 48.027 40.6916V46.6941C48.0696 48.4761 49.0941 49.4953 50.8281 49.4953C52.5622 49.4953 53.5866 48.4709 53.6293 46.6941V40.6916C53.6293 39.5231 54.8778 39.4324 55.262 39.4324V46.3313C55.3125 46.9501 55.2368 47.5729 55.0397 48.1617C54.8425 48.7504 54.5279 49.293 54.1148 49.7567C53.6727 50.166 53.1519 50.4811 52.5841 50.6829C52.0164 50.8847 51.4135 50.9689 50.8121 50.9305" fill="#686868"/>
<path d="M83.4336 50.7011C83.4456 50.3026 83.3201 49.9121 83.076 49.5966C82.9848 49.5035 82.8744 49.4307 82.7536 49.3828C82.6321 49.335 82.5017 49.3133 82.3721 49.3192H80.4513C80.9809 48.7753 81.3952 48.1304 81.6704 47.4226C81.9456 46.7149 82.0753 45.959 82.0513 45.2001C82.0513 42.4309 80.7553 39.427 77.1215 39.427C73.488 39.427 72.1914 42.4363 72.1914 45.2001C72.1914 47.964 73.4826 50.9252 77.1109 50.9252C77.3986 50.9108 77.6854 50.8805 77.9698 50.8344C78.1459 50.8344 78.3327 50.7811 78.5034 50.7491L78.7915 50.7011H83.4336ZM77.1268 49.4899C74.3364 49.4899 73.9255 46.8221 73.9255 45.2214C73.9255 43.9302 74.2349 40.8783 77.1268 40.8783C79.9173 40.8783 80.3281 43.6154 80.3281 45.2214C80.3281 46.5126 80.0136 49.4899 77.1268 49.4899Z" fill="#686868"/>
<path d="M96.0469 50.8289V40.6913C96.0469 39.5228 97.2949 39.4321 97.6789 39.4321V50.6368C97.6789 50.6864 97.6597 50.7339 97.6245 50.7688C97.5893 50.8039 97.5421 50.8236 97.4925 50.8236L96.0469 50.8289Z" fill="#686868"/>
<path d="M68.4023 50.8609V40.6913C68.4023 39.5228 69.6508 39.4321 70.035 39.4321V50.6742C70.035 50.6987 70.0302 50.7229 70.0207 50.7456C70.0114 50.7683 69.9976 50.7888 69.9803 50.8062C69.963 50.8236 69.9423 50.8373 69.9197 50.8467C69.8971 50.856 69.8727 50.8609 69.8483 50.8609H68.4023Z" fill="#686868"/>
<path d="M109.104 50.8289V40.6913C109.104 39.5228 110.347 39.4321 110.704 39.4321V50.6368C110.704 50.6864 110.684 50.7339 110.649 50.7688C110.615 50.8039 110.567 50.8236 110.517 50.8236L109.104 50.8289Z" fill="#686868"/>
<path d="M99.3086 39.4592V40.8945H102.67V50.8293H104.126C104.175 50.8293 104.221 50.8103 104.257 50.7765C104.292 50.7426 104.312 50.6964 104.313 50.6479V40.8945H107.376C107.425 40.8945 107.471 40.8755 107.506 40.8417C107.541 40.8078 107.561 40.7616 107.562 40.7131V39.4592H99.3086Z" fill="#686868"/>
<path d="M99.334 39.459V40.8943H102.696V50.8291H104.152C104.2 50.8291 104.248 50.8101 104.282 50.7763C104.317 50.7423 104.337 50.6962 104.339 50.6476V40.8943H107.401C107.45 40.8943 107.496 40.8753 107.532 40.8415C107.567 40.8075 107.587 40.7614 107.588 40.7128V39.459H99.334Z" fill="#686868"/>
<path d="M64.0817 44.9603L63.943 44.9176L64.0763 44.8589C64.5348 44.6544 64.9241 44.3212 65.1968 43.8996C65.4696 43.4782 65.6142 42.9866 65.613 42.4845C65.613 40.6438 64.3111 39.502 62.0382 39.502H58.0898V50.8294H62.3582C62.8864 50.8481 63.4137 50.774 63.9162 50.6106C64.4975 50.4109 65.003 50.0368 65.364 49.5394C65.7249 49.042 65.9236 48.4453 65.9331 47.8308C65.9331 46.7957 65.4475 45.3551 64.0763 44.9442M63.8842 42.5752C63.9092 42.8288 63.8706 43.0844 63.7718 43.3192C63.6731 43.554 63.5174 43.7604 63.3187 43.9198C62.962 44.1204 62.5594 44.2252 62.1502 44.224H59.7226V40.9212H62.0542C63.3667 40.9692 63.8842 41.5082 63.8842 42.5752ZM62.433 49.3834H59.8186V45.6485H62.2622C63.0306 45.6485 64.3164 45.9633 64.3164 47.516C64.3272 47.7648 64.2858 48.013 64.195 48.2448C64.1042 48.4767 63.966 48.6871 63.7891 48.8624C63.6123 49.0377 63.4008 49.1741 63.1682 49.2629C62.9356 49.3517 62.687 49.391 62.4383 49.3781" fill="#686868"/>
<path d="M46.6211 54.2332H47.2293L48.734 56.6556H48.7393V54.2332H49.2889V57.5252H48.6806L47.1813 55.1029H47.1706V57.5252H46.6211V54.2332Z" fill="#686868"/>
<path d="M55.4805 54.2332H57.8494V54.7294H56.062V55.5938H57.7161V56.0633H56.062V57.0237H57.8814V57.5252H55.4805V54.2332Z" fill="#686868"/>
<path d="M63.6445 54.2332H66.3124V54.7294H65.2612V57.5252H64.685V54.7294H63.6445V54.2332Z" fill="#686868"/>
<path d="M72.0215 54.2332H72.6084L73.2007 56.7516H73.2113L73.8729 54.2332H74.4652L75.1108 56.7516H75.1161L75.7297 54.2332H76.3166L75.4096 57.5252H74.8227L74.1611 55.0068H74.1557L73.4835 57.5252H72.8859L72.0215 54.2332Z" fill="#686868"/>
<path d="M83.5231 54.1531C83.7519 54.1491 83.9775 54.1965 84.1847 54.2918C84.3751 54.3799 84.5439 54.5071 84.6815 54.6653C84.8175 54.822 84.9223 55.0031 84.9903 55.1988C85.1359 55.6315 85.1359 56.1 84.9903 56.5327C84.9223 56.7285 84.8175 56.9095 84.6815 57.0663C84.5439 57.2231 84.3751 57.3486 84.1847 57.4344C83.9759 57.5243 83.7511 57.5706 83.5231 57.5706C83.2959 57.5706 83.0711 57.5243 82.8615 57.4344C82.6719 57.3485 82.5031 57.223 82.3655 57.0663C82.2303 56.9091 82.1255 56.7282 82.0559 56.5327C81.9111 56.0999 81.9111 55.6317 82.0559 55.1988C82.1255 55.0034 82.2303 54.8224 82.3655 54.6653C82.5031 54.5071 82.6719 54.3799 82.8615 54.2918C83.0695 54.1968 83.2951 54.1495 83.5231 54.1531ZM83.5231 54.6226C83.3655 54.6186 83.2095 54.6553 83.0695 54.7293C82.9455 54.7978 82.8399 54.8947 82.7607 55.0121C82.6783 55.136 82.6191 55.2732 82.5847 55.4176C82.5063 55.7203 82.5063 56.0379 82.5847 56.3407C82.6191 56.4851 82.6783 56.6223 82.7607 56.7462C82.8399 56.8635 82.9455 56.9604 83.0695 57.0289C83.2111 57.0986 83.3663 57.1348 83.5231 57.1348C83.6807 57.1348 83.8359 57.0986 83.9767 57.0289C84.1007 56.9603 84.2071 56.8635 84.2863 56.7462C84.3679 56.6223 84.4279 56.4851 84.4623 56.3407C84.5407 56.038 84.5407 55.7203 84.4623 55.4176C84.4279 55.2732 84.3679 55.136 84.2863 55.0121C84.2071 54.8948 84.1007 54.7979 83.9767 54.7293C83.8375 54.6553 83.6815 54.6186 83.5231 54.6226Z" fill="#686868"/>
<path d="M91.127 54.2332H92.7013C92.9925 54.2113 93.2822 54.2946 93.5174 54.468C93.6094 54.55 93.6806 54.6516 93.7278 54.7652C93.775 54.8788 93.7957 55.0015 93.7893 55.1242C93.7941 55.2575 93.7702 55.3902 93.7198 55.5137C93.6822 55.6062 93.6277 55.6911 93.5597 55.7645C93.5085 55.8197 93.4469 55.8649 93.3789 55.8979L93.2453 55.9566C93.3005 55.9648 93.355 55.981 93.4054 56.0046C93.4662 56.032 93.5206 56.072 93.5654 56.122C93.619 56.1832 93.6606 56.2538 93.6878 56.33C93.7238 56.4348 93.7397 56.545 93.7357 56.6556C93.7333 56.8344 93.7477 57.013 93.7789 57.1891C93.7917 57.3128 93.8373 57.4309 93.9125 57.5306H93.2933C93.2501 57.4592 93.2246 57.3788 93.219 57.2958C93.219 57.2104 93.219 57.1251 93.219 57.0451C93.2206 56.9147 93.2117 56.7844 93.1917 56.6556C93.1781 56.5586 93.1437 56.4658 93.0909 56.3834C93.0413 56.3104 92.9702 56.2545 92.8878 56.2233C92.7838 56.1852 92.6734 56.1672 92.5622 56.17H91.7141V57.5252H91.1373L91.127 54.2332ZM91.7029 55.7325H92.6477C92.7997 55.743 92.9509 55.6953 93.0693 55.5991C93.1189 55.5464 93.1573 55.4844 93.1813 55.4164C93.2061 55.3486 93.2173 55.2764 93.2133 55.2043C93.2157 55.1164 93.1998 55.0291 93.1654 54.9481C93.1374 54.8859 93.0933 54.8324 93.0373 54.7934C92.9813 54.755 92.9174 54.7295 92.8502 54.7187C92.7798 54.7126 92.7077 54.7126 92.6373 54.7187H91.7029V55.7325Z" fill="#686868"/>
<path d="M99.9004 54.2332H100.476V55.7325L101.944 54.2332H102.653L101.341 55.5457L102.744 57.5252H102.024L100.946 55.9512L100.476 56.4154V57.5252H99.9004V54.2332Z" fill="#686868"/>
<path d="M108.853 56.426C108.849 56.5379 108.871 56.6492 108.917 56.7515C108.958 56.8383 109.02 56.9135 109.098 56.9703C109.178 57.0285 109.269 57.0703 109.365 57.093C109.471 57.1194 109.581 57.1319 109.69 57.1303C109.8 57.1338 109.91 57.1194 110.016 57.0876C110.095 57.0647 110.17 57.0266 110.234 56.9756C110.286 56.9325 110.326 56.8775 110.352 56.8155C110.376 56.758 110.389 56.6964 110.389 56.6341C110.398 56.5341 110.367 56.4347 110.304 56.3567C110.253 56.2997 110.189 56.2558 110.117 56.2286C109.984 56.1803 109.849 56.1393 109.711 56.1059L109.135 55.9565C109.011 55.9268 108.893 55.8783 108.783 55.8124C108.697 55.7587 108.621 55.6901 108.559 55.6097C108.506 55.5395 108.466 55.4599 108.442 55.3749C108.42 55.2931 108.409 55.2088 108.41 55.1242C108.405 54.9737 108.44 54.8246 108.511 54.6919C108.578 54.5736 108.672 54.4716 108.783 54.3931C108.902 54.3119 109.034 54.2523 109.173 54.2171C109.474 54.1337 109.794 54.1337 110.096 54.2171C110.241 54.2586 110.377 54.3274 110.496 54.4199C110.61 54.5089 110.702 54.6218 110.768 54.7507C110.838 54.8914 110.873 55.0471 110.87 55.2042H110.293C110.296 55.1173 110.278 55.0311 110.239 54.953C110.201 54.8748 110.145 54.8072 110.074 54.756C109.926 54.6623 109.754 54.6157 109.578 54.6226C109.509 54.6161 109.439 54.6161 109.37 54.6226C109.303 54.6357 109.238 54.6591 109.178 54.6919C109.121 54.7251 109.071 54.7707 109.034 54.8254C108.994 54.8873 108.974 54.9598 108.975 55.0335C108.972 55.0839 108.98 55.1343 108.998 55.1813C109.017 55.2283 109.046 55.2707 109.082 55.3055C109.163 55.3767 109.26 55.4279 109.365 55.455L109.509 55.4923L109.791 55.567L110.101 55.6471L110.314 55.7057C110.416 55.7361 110.511 55.783 110.598 55.8445C110.675 55.9007 110.744 55.9691 110.8 56.0472C110.853 56.12 110.892 56.2012 110.918 56.2873C110.942 56.3703 110.955 56.4567 110.954 56.5435C110.961 56.7089 110.922 56.8729 110.842 57.0183C110.77 57.1467 110.667 57.2563 110.544 57.3384C110.415 57.4231 110.273 57.4846 110.122 57.5198C109.966 57.5587 109.804 57.5784 109.642 57.5785C109.462 57.5805 109.282 57.5571 109.109 57.5091C108.952 57.4673 108.805 57.3947 108.677 57.2957C108.553 57.1964 108.452 57.0706 108.383 56.9275C108.305 56.7607 108.264 56.5784 108.266 56.394L108.853 56.426Z" fill="#686868"/>
<path d="M113.05 39.4539C113.261 39.4539 113.467 39.5164 113.642 39.6337C113.818 39.751 113.955 39.9176 114.036 40.1126C114.117 40.3075 114.138 40.5222 114.097 40.7291C114.055 40.9362 113.954 41.1263 113.805 41.2755C113.655 41.4247 113.465 41.5263 113.258 41.5675C113.051 41.6087 112.837 41.5876 112.642 41.5068C112.446 41.4261 112.28 41.2893 112.162 41.1138C112.046 40.9383 111.982 40.732 111.982 40.521C111.982 40.2379 112.095 39.9665 112.295 39.7664C112.495 39.5663 112.767 39.4539 113.05 39.4539ZM113.05 41.396C113.228 41.4023 113.404 41.3554 113.556 41.2611C113.707 41.1667 113.827 41.0295 113.9 40.8666C113.973 40.7038 113.995 40.5229 113.965 40.3471C113.934 40.1714 113.853 40.0087 113.729 39.8799C113.606 39.7511 113.446 39.6621 113.272 39.6243C113.098 39.5863 112.916 39.6014 112.75 39.6674C112.585 39.7334 112.442 39.8473 112.342 39.9946C112.241 40.1419 112.186 40.3159 112.186 40.4943C112.181 40.6109 112.199 40.7273 112.24 40.8366C112.282 40.9458 112.344 41.0455 112.425 41.1298C112.506 41.214 112.603 41.2811 112.71 41.3268C112.818 41.3726 112.933 41.3961 113.05 41.396ZM112.639 39.886H113.119C113.413 39.886 113.546 40.0035 113.546 40.2382C113.548 40.2813 113.542 40.3244 113.526 40.3648C113.511 40.4053 113.488 40.4421 113.458 40.4731C113.428 40.5042 113.392 40.5287 113.352 40.5452C113.312 40.5617 113.269 40.5698 113.226 40.569L113.578 41.1026H113.375L113.045 40.569H112.842V41.1026H112.65L112.639 39.886ZM112.831 40.4196H113.029C113.199 40.4196 113.349 40.4195 113.349 40.2168C113.349 40.0141 113.21 40.0301 113.082 40.0301H112.831V40.4196Z" fill="#686868"/>
</g>
</g>
</svg>
