<svg width="160" height="64" viewBox="0 0 160 64" fill="none" xmlns="http://www.w3.org/2000/svg">
<path d="M105.905 22.693C105.36 22.8872 104.98 23.2639 104.808 23.7938C104.69 24.1587 104.755 24.8239 104.945 25.1419C105.3 25.7364 105.887 26.0425 106.581 25.9954C107.062 25.9601 107.37 25.8129 107.702 25.4597C108.04 25.0888 108.146 24.8239 108.146 24.3295C108.153 23.8467 108.016 23.4995 107.69 23.1345C107.275 22.6812 106.486 22.4869 105.905 22.693ZM122.863 22.693C122.466 22.8343 122.217 23.0167 122.015 23.317C121.778 23.6584 121.707 23.8998 121.707 24.3589C121.707 25.3361 122.525 26.066 123.539 25.9954C124.019 25.9601 124.328 25.8129 124.66 25.4597C124.998 25.0888 125.105 24.8239 125.105 24.3295C125.11 23.8585 124.98 23.5112 124.678 23.1639C124.257 22.693 123.45 22.4869 122.863 22.693ZM8.01175 22.8872C7.99989 22.9107 11.0298 34.6312 11.7828 37.4686L11.9133 37.9572H15.9808L16.0401 37.7335C16.1112 37.4686 16.8346 34.6607 17.896 30.5223C18.3229 28.8505 18.6905 27.4789 18.7083 27.4789C18.7261 27.4789 18.898 28.0793 19.0878 28.8211C19.4138 30.0984 21.3469 37.6275 21.418 37.8689C21.4477 37.9867 21.4891 37.9867 23.3569 37.969C24.4064 37.9572 25.2721 37.9455 25.278 37.9337C25.2898 37.9278 25.4322 37.4039 25.5922 36.774C25.7523 36.1441 25.9658 35.3259 26.0666 34.955C26.9382 31.6702 29.1973 22.9107 29.1795 22.8872C29.1677 22.8695 28.4976 22.8637 27.6794 22.8755L26.203 22.8931L25.9836 23.7291C25.871 24.1882 25.2543 26.5782 24.6258 29.0388C23.932 31.7408 23.4577 33.4656 23.4399 33.395C23.4043 33.2831 22.8766 31.2523 21.8568 27.2728C21.3469 25.289 20.8843 23.4759 20.7835 23.1051L20.7242 22.8872H16.8821L16.8287 23.0756C16.799 23.1815 16.1646 25.654 15.4175 28.5679C14.6704 31.4819 14.0538 33.8247 14.0419 33.7776C14.036 33.7306 13.4015 31.264 12.6426 28.303L11.261 22.9167L9.64231 22.8872C8.75887 22.8695 8.02359 22.8695 8.01175 22.8872ZM90.424 22.9167C90.412 22.9461 90.4056 26.3486 90.412 30.4693L90.4296 37.9631L93.5248 37.9572C96.8688 37.9572 97.3784 37.9219 98.4816 37.6335C100.29 37.1684 101.695 36.0794 102.46 34.5547C103.023 33.4362 103.278 32.1647 103.278 30.4516C103.278 28.8446 103.089 27.7496 102.609 26.6311C102.081 25.395 101.078 24.3354 99.8576 23.7291C98.9856 23.2934 97.7288 22.9638 96.6912 22.9107C95.588 22.8519 90.4472 22.8578 90.424 22.9167ZM96.9872 25.5834C98.4224 25.9719 99.312 26.8784 99.6792 28.3383C99.976 29.4863 99.988 31.317 99.7088 32.4355C99.3352 33.9425 98.4576 34.8549 97.0056 35.2552C96.6024 35.3611 96.3352 35.3847 95.1312 35.4083L93.72 35.4377V25.4067L95.1312 25.4303C96.3112 25.4539 96.608 25.4774 96.9872 25.5834ZM144.535 22.8578V37.9631H147.648V22.8814L146.088 22.8695C145.234 22.8637 144.535 22.8578 144.535 22.8578ZM49.7958 30.3163L49.8136 35.8086L49.9559 36.2207C50.1516 36.8034 50.288 37.0507 50.6022 37.3862C51.0884 37.8983 51.5746 38.1279 52.4462 38.2515C52.9918 38.3339 54.065 38.2575 54.735 38.0926C55.0966 37.9984 55.1441 37.969 55.1381 37.8512C55.1381 37.7806 55.1322 37.3686 55.1263 36.9329L55.1204 36.15L54.5926 36.1795C53.7388 36.2265 53.2526 35.9851 52.9621 35.3671C52.8435 35.1139 52.8376 35.0021 52.8197 32.3531L52.802 29.5981L53.9998 29.5863L55.1915 29.5687L55.2034 28.5267L55.2093 27.4789L54.1717 27.473C53.6025 27.4671 53.0747 27.473 53.0036 27.4789C52.8138 27.4907 52.802 27.3788 52.8197 26.019L52.8376 24.8299H49.7781L49.7958 30.3163ZM126.937 30.2868C126.954 35.3023 126.966 35.7791 127.061 36.1029C127.393 37.2155 128.051 37.8866 129.101 38.1691C129.777 38.3457 130.945 38.3104 131.876 38.0867C132.279 37.9867 132.29 37.9807 132.285 37.81C132.279 37.7099 132.273 37.2979 132.267 36.8917L132.261 36.15L131.734 36.1795C131.081 36.2147 130.719 36.1088 130.406 35.7909C129.972 35.3494 129.978 35.4259 129.961 32.3531L129.942 29.5981L131.146 29.5863L132.35 29.5687V27.4671L131.164 27.4553L129.978 27.4495V24.8299H126.918L126.937 30.2868ZM32.7134 27.1845C31.0473 27.42 29.6361 28.4207 28.9186 29.8747C28.4324 30.8579 28.2901 31.5171 28.296 32.7769C28.302 33.6246 28.3198 33.8188 28.4562 34.331C28.6578 35.0786 29.055 35.8851 29.476 36.4149C30.561 37.763 32.3576 38.4458 34.3202 38.2515C35.5121 38.1338 36.4489 37.7453 37.1841 37.0624C37.5814 36.6915 38.0438 36.1029 38.0438 35.9675C38.0438 35.9381 37.5873 35.6496 37.024 35.3317L36.0101 34.7548L35.9212 34.8961C35.8678 34.9785 35.6662 35.2023 35.4646 35.4023C34.9547 35.9087 34.6108 36.0382 33.7451 36.0382C33.1581 36.044 33.0573 36.0263 32.7549 35.8851C32.1026 35.5849 31.6402 34.9962 31.4326 34.2191C31.2726 33.5951 30.8278 33.6599 35.0792 33.6599H38.8147V33.0242C38.8147 31.8232 38.6368 30.9108 38.2218 30.0337C37.5339 28.562 36.4014 27.6378 34.842 27.2728C34.3618 27.161 33.2174 27.1139 32.7134 27.1845ZM33.923 29.3685C34.8954 29.5451 35.5121 30.2221 35.7018 31.317L35.7374 31.5407H33.5376C31.0413 31.5407 31.2607 31.5937 31.4386 31.005C31.7291 30.0455 32.3102 29.4921 33.1699 29.3685C33.3538 29.3391 33.5257 29.3155 33.5435 29.3096C33.5613 29.3096 33.7332 29.3331 33.923 29.3685ZM43.0898 27.1845C42.1054 27.3199 41.2398 27.7202 40.6469 28.303C39.9946 28.9387 39.7159 29.6982 39.7871 30.6047C39.8582 31.4465 40.137 32.0293 40.7654 32.6121C41.2991 33.1183 41.892 33.4009 43.4158 33.8719C44.0978 34.0838 44.7855 34.331 44.9456 34.4134C45.2836 34.5959 45.4555 34.8372 45.4555 35.1316C45.4555 35.6731 44.9219 36.0146 44.0029 36.0617C43.0364 36.1088 42.396 35.8792 41.7971 35.267L41.4236 34.8843L40.4453 35.4318C39.9057 35.7262 39.4491 35.9969 39.4314 36.0263C39.378 36.1147 39.6982 36.5974 40.0302 36.9211C41.0738 37.9395 42.7874 38.434 44.661 38.2575C47.1395 38.0161 48.5388 36.8211 48.5388 34.9255C48.5388 34.0072 48.2364 33.3067 47.5901 32.7003C47.0565 32.2 46.3745 31.8703 44.8922 31.4171C43.2261 30.9049 42.9297 30.7342 42.8644 30.2633C42.823 29.9454 42.9652 29.6923 43.2794 29.5275C43.4989 29.4097 43.6174 29.392 44.24 29.392C44.9278 29.392 44.9694 29.3979 45.3488 29.5863C45.6216 29.7158 45.841 29.8865 46.0426 30.1043L46.3331 30.434L47.3174 29.7747L48.3016 29.1154L48.106 28.8505C47.5605 28.0852 46.5762 27.5201 45.3666 27.267C44.8507 27.161 43.5997 27.1139 43.0898 27.1845ZM59.8164 27.1963C59.2709 27.2728 58.4112 27.5613 57.9665 27.8144C57.7352 27.9498 57.3438 28.2677 56.9881 28.6267C56.5019 29.1095 56.3418 29.3155 56.1165 29.7452C55.577 30.7872 55.3813 31.6996 55.4346 33.0006C55.5295 35.6261 56.9585 37.5039 59.3124 38.1162C60.0536 38.3045 61.3343 38.3281 62.0873 38.1691C63.1072 37.9455 63.961 37.4922 64.5599 36.8447C64.8563 36.5267 65.2358 35.9734 65.1884 35.9263C65.135 35.8675 63.1783 34.7784 63.1369 34.7784C63.1072 34.7784 63.0597 34.8372 63.0241 34.9079C62.8759 35.2199 62.455 35.6025 62.0281 35.8144C61.6545 35.9969 61.5181 36.0323 61.0675 36.0558C60.4805 36.0911 60.0121 35.9911 59.6326 35.7556C59.3539 35.579 58.9566 35.1434 58.8084 34.8549C58.6542 34.5665 58.5001 34.0367 58.5001 33.8247V33.6599H65.9236L65.894 32.5827C65.8702 31.6761 65.8406 31.4288 65.7161 30.9815C65.2062 29.186 64.1093 27.9734 62.5024 27.42C61.7672 27.1669 60.6643 27.0727 59.8164 27.1963ZM61.5241 29.498C61.7493 29.5745 61.945 29.7099 62.1525 29.9159C62.5024 30.2691 62.6862 30.6223 62.793 31.1404L62.87 31.5113L60.7058 31.5289C59.514 31.5348 58.5238 31.5289 58.506 31.5113C58.4526 31.4524 58.6068 30.8402 58.755 30.5105C59.2235 29.498 60.3678 29.08 61.5241 29.498ZM72.8194 27.1904C71.6158 27.367 70.6493 27.9851 70.2105 28.8505L70.0623 29.1507V27.4789H67.2755V32.7063C67.2755 35.5849 67.2873 37.9513 67.2993 37.9631C67.3111 37.9749 68.0167 37.9807 68.8586 37.969L70.3884 37.9513V35.0551C70.3884 32.7769 70.4062 32.0882 70.4714 31.8351C70.6671 31.058 71.1948 30.3575 71.8411 30.016C72.2561 29.7983 72.9914 29.5981 73.3946 29.5981H73.6792V28.4207C73.6792 27.7732 73.6851 27.2257 73.697 27.1963C73.7148 27.1375 73.2285 27.1315 72.8194 27.1904ZM79.9702 27.2139C79.1638 27.3611 78.3633 27.8674 77.9009 28.5091L77.7764 28.6856L77.7705 28.0793V27.4789H74.6872V37.9572H76.134C76.9285 37.9572 77.6222 37.9749 77.6756 37.9925C77.7586 38.0279 77.7705 37.7159 77.7705 34.7666C77.7705 32.671 77.7942 31.3818 77.8357 31.158C77.9602 30.4929 78.3041 29.9925 78.8081 29.7452C79.1698 29.5687 80.1952 29.5745 80.5336 29.7571C81.0672 30.0396 81.4048 30.5635 81.512 31.264C81.5416 31.4642 81.5656 33.0477 81.5656 34.7784C81.5592 36.5091 81.5768 37.9337 81.5952 37.9395C81.6128 37.9513 82.3064 37.9572 83.1424 37.9572H84.66L84.6304 34.0543C84.6072 30.3692 84.6008 30.1338 84.4888 29.7394C84.1152 28.4267 83.2792 27.5966 82.0096 27.2728C81.4944 27.1433 80.4976 27.1139 79.9702 27.2139ZM113.05 27.1904C112.114 27.3317 111.408 27.6967 110.767 28.3736C110.246 28.9211 109.866 29.6334 109.629 30.5105C109.474 31.0698 109.469 31.1639 109.469 32.4531C109.469 33.7364 109.474 33.8365 109.629 34.3899C109.718 34.7136 109.907 35.2258 110.062 35.5319C110.287 35.9969 110.418 36.1735 110.844 36.5974C111.71 37.4568 112.434 37.7335 113.821 37.7394C114.55 37.7453 114.663 37.7276 115.096 37.5805C115.701 37.3744 116.056 37.1448 116.447 36.7151L116.762 36.3737L116.774 36.8859C116.821 38.5223 116.252 39.4642 115.036 39.7644C114.693 39.8468 114.562 39.8527 114.165 39.7939C113.494 39.6997 113.014 39.4466 112.558 38.9521L112.184 38.5576L111.165 39.1581L110.145 39.7586L110.37 40.1294C110.661 40.618 111.313 41.2303 111.834 41.501C113.275 42.2487 115.576 42.3134 117.1 41.6423C118.209 41.1596 119.104 40.1353 119.501 38.8991C119.803 37.9807 119.81 37.8277 119.81 32.4591V27.4495L118.291 27.4612L116.768 27.4671L116.78 28.0204L116.791 28.5679L116.466 28.2088C116.05 27.7555 115.665 27.5083 115.09 27.3258C114.568 27.161 113.649 27.1021 113.05 27.1904ZM115.582 29.6334C116.353 30.0043 116.738 30.9579 116.732 32.512C116.726 33.9778 116.335 34.9079 115.558 35.2847C115.107 35.5083 114.42 35.5201 113.958 35.3141C113.103 34.9373 112.73 34.0602 112.73 32.4531C112.736 31.2169 112.908 30.5694 113.388 30.016C113.886 29.4332 114.829 29.2684 115.582 29.6334ZM136.548 27.1904C135.706 27.2963 134.994 27.5436 134.384 27.9439C133.974 28.2147 133.269 28.8799 133.269 28.9976C133.269 29.0271 133.654 29.3508 134.134 29.7158L134.994 30.3751L135.314 30.069C136.056 29.3744 137.23 29.1507 138.238 29.5039C138.926 29.7511 139.365 30.3339 139.376 31.0167V31.2875L138.119 31.3229C135.908 31.3759 134.751 31.7232 133.856 32.6003C133.234 33.2125 132.973 33.8659 132.973 34.8372C132.973 36.4679 133.791 37.6393 135.255 38.1162C135.658 38.2457 135.837 38.2692 136.442 38.2692C137.615 38.2751 138.469 37.969 139.139 37.2979C139.454 36.9859 139.506 36.9565 139.495 37.0801C139.489 37.1567 139.483 37.3862 139.489 37.5863L139.495 37.9572H142.459V34.4016C142.459 30.3339 142.454 30.2633 142.021 29.392C141.748 28.8446 141.321 28.356 140.835 28.0322C139.809 27.3435 138.042 26.9962 136.548 27.1904ZM139.376 33.7011C139.376 34.2427 139.264 34.8372 139.103 35.1375C138.962 35.42 138.606 35.7791 138.345 35.9087C137.817 36.1795 136.975 36.1029 136.506 35.7497C135.997 35.3671 135.878 34.4605 136.263 33.8836C136.595 33.3891 137.194 33.2007 138.475 33.1949L139.376 33.189V33.7011ZM106.368 27.4671L104.867 27.4789V37.9513L106.439 37.969L108.01 37.9867V32.7122C108.01 28.5326 107.992 27.4435 107.939 27.4435C107.898 27.4495 107.186 27.4553 106.368 27.4671ZM121.826 32.718V37.9513L123.397 37.969L124.968 37.9867V27.4789H121.826V32.718ZM150.179 35.7379C149.504 35.9851 149.148 36.7975 149.426 37.4745C149.854 38.4811 151.306 38.5635 151.81 37.6099C151.988 37.2743 152 36.6975 151.834 36.3795C151.526 35.785 150.82 35.5083 150.179 35.7379ZM151.182 36.0794C151.585 36.2795 151.798 36.8328 151.656 37.2685C151.3 38.3281 149.8 38.2163 149.598 37.1154C149.522 36.6798 149.913 36.0735 150.334 35.9793C150.422 35.9616 150.523 35.9381 150.553 35.9263C150.654 35.891 150.956 35.9675 151.182 36.0794Z" fill="#686868"/>
<path d="M150.174 36.1792C150.133 36.191 150.109 36.4794 150.109 36.9621V37.7215H150.257C150.4 37.7215 150.405 37.7039 150.405 37.3977C150.405 37.127 150.424 37.0739 150.513 37.0739C150.697 37.0739 150.833 37.2211 150.874 37.4625C150.904 37.6567 150.933 37.6921 151.069 37.7097C151.218 37.7274 151.224 37.7215 151.194 37.4743C151.177 37.333 151.129 37.1623 151.081 37.0916C151.017 36.9857 151.017 36.9563 151.088 36.8974C151.206 36.7973 151.2 36.4029 151.081 36.3028C150.987 36.2263 150.305 36.1379 150.174 36.1792ZM150.785 36.4618C150.838 36.4794 150.88 36.5559 150.88 36.6325C150.88 36.7738 150.779 36.8385 150.554 36.8385C150.441 36.8385 150.417 36.8091 150.424 36.6325C150.429 36.4618 150.453 36.4264 150.56 36.4264C150.631 36.4264 150.732 36.4441 150.785 36.4618Z" fill="#686868"/>
</svg>
